<ttFont>
          <CharString index="0">
            375 359 rmoveto
            -66 -138 -41 -24 -129 -15 rrcurveto
            -32 -4 -35 -15 -33 vvcurveto
            -79 250 -71 276 204 140 81 209 67 vhcurveto
            146 455 175 399 197 vvcurveto
            118 -45 97 -209 -373 -480 -187 -367 -183 113 -125 130 -80 vhcurveto
            -38 -107 -34 -88 -19 -40 rrcurveto
            273 862 rmoveto
            -62 -69 -231 -71 -211 vhcurveto
            -43 69 -34 79 101 vvcurveto
            232 122 77 40 35 20 -23 -31 vhcurveto
            return
          </CharString>
          <CharString index="1">
            -47 -143 -223 -52 -349 hhcurveto
            -15 -19 1 2 -21 hvcurveto
            385 175 262 375 418 vvcurveto
            249 -140 119 -211 -245 -161 -99 -222 -135 vhcurveto
            -126 -208 -117 -344 -84 -341 -32 13 -31 13 -27 12 rrcurveto
            5 -11 -12 2 -10 hhcurveto
            -26 -17 -11 -26 -31 30 -22 21 -14 hvcurveto
            23 -17 31 -19 34 -19 -49 -215 -35 -208 -14 -162 rrcurveto
            -16 15 -17 19 vhcurveto
            167 272 -16 51 hhcurveto
            21 27 23 29 2 hvcurveto
            280 1319 rmoveto
            365 118 37 84 61 hhcurveto
            46 29 -37 -139 -364 -197 -391 -270 -182 hvcurveto
            45 212 59 231 72 221 rrcurveto
            return
          </CharString>
          <CharString index="2">
            rmoveto
            -32 32 35 -26 67 hhcurveto
            73 28 9 33 52 hvcurveto
            239 150 177 125 60 vvcurveto
            30 -23 15 -25 -26 -37 -9 -14 -41 vhcurveto
            -187 -64 -30 -11 -149 -57 -124 67 -31 14 -152 61 rrcurveto
            14 -34 -36 6 -23 hhcurveto
            -26 -25 -11 -31 -55 109 -118 157 -156 hvcurveto
            endchar
          </CharString>
          <CharString index="3">
            -116 -269 -11 -109 hhcurveto
            -81 callgsubr
            -287 -251 -429 -102 vvcurveto
            -120 147 -46 156 298 421 149 91 121 vhcurveto
            17 13 14 11 19 vvcurveto
            27 -15 15 -27 -19 -16 -7 -7 -14 vhcurveto
            return
          </CharString>
          <CharString index="4">
            1682 192 rmoveto
            43 25 6 15 19 vvcurveto
            27 -19 7 -16 -14 -12 -4 -5 -15 vhcurveto
            -71 -222 -249 -70 -204 hhcurveto
            -144 -172 41 161 -18 hvcurveto
            480 35 368 104 289 vvcurveto
            175 -141 121 -344 -524 -427 -269 -416 -264 199 -152 477 510 355 183 49 83 vhcurveto
            -1035 255 rmoveto
            219 18 109 248 162 hhcurveto
            51 36 -31 -50 -193 -153 -131 -223 -62 hvcurveto
            return
          </CharString>
          <CharString index="5">
            rmoveto
            -89 -55 -76 -9 -111 -30 rrcurveto
            -40 -11 -33 -16 -36 vvcurveto
            -29 36 -10 49 291 270 93 210 150 -159 38 -114 -244 -173 -81 -101 vhcurveto
            return
          </CharString>
          <CharString index="6">
            879 -40 rmoveto
            415 373 95 313 hvcurveto
            332 -658 240 167 39 30 33 32 vvcurveto
            22 -23 23 -62 -216 -381 -84 -272 vhcurveto
            -275 618 -236 -148 vvcurveto
            -67 -82 -24 -56 vhcurveto
            -279 -233 265 -75 hhcurveto
            -50 -107 -241 -56 -19 9 -13 16 -8 hvcurveto
            -43 82 355 -75 324 hhcurveto
            895 1097 rmoveto
            return
          </CharString>
          <CharString index="7">
            -93 callgsubr
            hintmask 10011000
            -103 callgsubr
            return
          </CharString>
          <CharString index="8">
            1041 1087 rmoveto
            72 65 48 32 38 vvcurveto
            21 -16 27 -59 -394 -557 -319 -488 -335 245 -168 469 644 538 365 597 17 callgsubr
            return
          </CharString>
          <CharString index="9">
            1166 191 rmoveto
            -144 84 -87 200 190 412 78 115 vhcurveto
            78 -225 -61 175 vvcurveto
            164 151 433 159 358 vhcurveto
            15 35 10 42 29 vvcurveto
            73 -77 44 -69 vhcurveto
            return
          </CharString>
          <CharString index="10">
            37 305 141 299 hhcurveto
            245 95 -113 -293 -432 -280 -405 -232 -121 -48 100 159 312 159 268 140 113 hvcurveto
            return
          </CharString>
          <CharString index="11">
            1183 -40 rmoveto
            361 150 72 39 56 hvcurveto
            29 20 13 26 29 vvcurveto
            43 -44 -12 -48 4 vhcurveto
            -82 6 -25 32 67 175 175 430 290 vvcurveto
            286 -182 109 -333 -416 -322 -173 -54 -20 14 -10 25 vhcurveto
            return
          </CharString>
          <CharString index="12">
            rmoveto
            35 -29 -38 23 -57 hhcurveto
            -73 -29 -7 -35 -51 hvcurveto
            -236 -161 -210 -210 -64 vvcurveto
            -30 23 -15 25 26 32 12 18 33 vhcurveto
            189 102 70 36 150 67 124 -75 50 -31 145 -99 rrcurveto
            -29 43 25 -8 23 hhcurveto
            26 25 11 31 4 0 5 -1 6 hvcurveto
            -9 60 -117 165 -159 189 rrcurveto
            endchar
          </CharString>
          <CharString index="13">
            rmoveto
            170 177 94 127 94 -102 64 -134 -169 -178 -96 -129 -94 104 -60 132 hvcurveto
            740 hmoveto
            171 176 94 127 94 -102 64 -134 -169 -178 -96 -129 -94 104 -60 132 hvcurveto
            endchar
          </CharString>
          <CharString index="14">
            2015 177 rmoveto
            36 22 23 21 31 vvcurveto
            26 -19 8 -19 -13 -16 -8 -7 -13 vhcurveto
            -48 -86 -196 -62 -89 hhcurveto
            -53 -17 29 47 hvcurveto
            178 248 467 120 vvcurveto
            17 -24 22 -14 vhcurveto
            -111 -138 -12 -254 hhcurveto
            -10 -38 -3 -34 -5 hvcurveto
            -44 -277 -142 -253 -65 -229 rrcurveto
            return
          </CharString>
          <CharString index="15">
            -64 -65 -19 -73 hhcurveto
            -125 -44 94 130 182 75 240 68 141 hvcurveto
            10 24 5 20 18 vvcurveto
            52 -41 26 -70 -109 -116 -7 -160 -159 vhcurveto
            -185 -187 -239 -325 -233 vvcurveto
            hintmask 10101010
            -235 208 -36 272 vhcurveto
            -414 1555 rmoveto
            -123 -33 -79 -316 16 callsubr
            38 90 54 67 163 vhcurveto
            77 186 311 34 182 209 219 -149 65 hhcurveto
            83 100 285 73 63 -47 25 -82 hvcurveto
            return
          </CharString>
          <CharString index="16">
            7 11 0 -10 9 hvcurveto
            75 126 265 81 6 hvcurveto
            20 -3 19 -11 6 vhcurveto
            119 -216 -290 19 -235 hhcurveto
            -576 -481 -234 -102 -24 17 -14 16 12 30 6 13 33 hvcurveto
            71 175 274 74 272 hhcurveto
            return
          </CharString>
          <CharString index="17">
            -38 vvcurveto
            -27 19 -4 25 vhcurveto
            37 46 24 35 hhcurveto
            33 20 -19 -73 -158 -297 -557 -62 -261 hvcurveto
            -6 -27 -3 -35 -29 vvcurveto
            -82 74 -4 72 vhcurveto
            return
          </CharString>
          <CharString index="18">
            rmoveto
            176 190 87 128 106 -102 62 -146 -173 -195 -87 -129 -107 105 -60 145 hvcurveto
            endchar
          </CharString>
          <CharString index="19">
            rmoveto
            170 167 104 127 94 -92 74 -134 -169 -168 -106 -129 -94 94 -70 132 hvcurveto
            720 hmoveto
            171 166 104 127 94 -92 74 -134 -169 -168 -106 -129 -94 94 -70 132 hvcurveto
            endchar
          </CharString>
          <CharString index="20">
            rmoveto
            -105 -85 -54 -98 -82 59 -54 74 -7 hvcurveto
            196 -19 103 -18 184 -56 rrcurveto
            -17 56 30 -9 37 hhcurveto
            27 16 15 23 75 -328 301 -264 hvcurveto
            endchar
          </CharString>
          <CharString index="21">
            rmoveto
            286 135 -121 -250 -345 -143 -487 -455 -25 -22 1 2 -21 hvcurveto
            17 44 99 278 119 465 86 132 rlinecurve
            44 71 9 29 24 vvcurveto
            44 -60 6 -60 -116 -165 -21 -46 -98 vhcurveto
            -256 -120 -67 -467 -129 -229 rrcurveto
            return
          </CharString>
          <CharString index="22">
            rmoveto
            379 184 175 207 177 -180 73 -216 -324 -263 -137 -237 -153 149 -105 271 hvcurveto
            -124 250 rmoveto
            156 152 119 116 115 13 -73 -59 -164 -135 -117 -113 -129 -19 71 67 vhcurveto
            return
          </CharString>
          <CharString index="23">
            -229 -126 134 -81 hhcurveto
            -39 -30 -21 -46 -45 19 -37 19 -29 hvcurveto
            -116 75 116 -106 231 hhcurveto
            190 152 94 109 109 hvcurveto
            54 54 44 51 52 vvcurveto
            return
          </CharString>
          <CharString index="24">
            -40 99 -23 151 288 145 66 116 76 vhcurveto
            71 108 79 385 90 180 rrcurveto
            16 31 10 24 24 vvcurveto
            56 -83 23 -183 -344 -205 -40 -76 vhcurveto
            -70 180 24 -76 vvcurveto
            -30 -49 -172 -56 -144 vhcurveto
            -1 -8 -8 0 -8 hhcurveto
            -262 -111 201 273 410 322 412 290 hvcurveto
            return
          </CharString>
          <CharString index="25">
            -26 18 -18 32 49 71 45 55 58 vhcurveto
            184 175 147 184 185 vvcurveto
            113 -58 72 -130 -127 -137 -123 -118 vhcurveto
            -69 84 -62 -71 -86 -191 -197 -59 vvcurveto
            return
          </CharString>
          <CharString index="26">
            -71 127 149 -13 140 hhcurveto
            576 316 473 422 400 -201 321 -625 -341 -340 -80 -177 -265 hvcurveto
            -33 -22 -27 -31 -27 vvcurveto
            -25 22 -12 33 vhcurveto
            57 357 158 372 hhcurveto
            return
          </CharString>
          <CharString index="27">
            -138 115 -85 240 304 263 79 91 vhcurveto
            104 -208 -98 140 62 18 66 50 vvcurveto
            167 -168 93 -260 vhcurveto
            400 62 280 113 279 vvcurveto
            320 -406 88 -286 -541 -307 -102 -157 -244 vhcurveto
            -33 -21 -24 -32 -27 vvcurveto
            -22 22 -13 31 vhcurveto
            return
          </CharString>
          <CharString index="28">
            rmoveto
            -45 -50 -69 -81 -51 21 -40 24 hvcurveto
            115 142 20 145 153 132 -24 callgsubr
            69 84 43 -12 45 -23 hvcurveto
            -108 -154 -20 -141 -128 -186 20 -102 hhcurveto
            endchar
          </CharString>
          <CharString index="29">
            145 -172 63 -81 117 -120 -253 -149 -111 -91 -192 -133 rrcurveto
            -37 -25 -31 -36 -39 vvcurveto
            -41 27 -27 31 4 5 1 3 6 vhcurveto
            297 129 233 104 302 122 rrcurveto
            56 22 65 116 69 vvcurveto
            21 -6 15 -16 11 vhcurveto
            -214 150 -175 142 -230 175 rrcurveto
            4 -5 -5 2 -7 hhcurveto
            -53 -44 -43 -57 -27 16 -31 12 -14 hvcurveto
            return
          </CharString>
          <CharString index="30">
            -106 -279 -11 -101 hhcurveto
            -61 -7 -22 -33 -7 hvcurveto
            -41 -190 -99 -371 -72 -223 rrcurveto
            -293 -94 -77 -241 -113 -21 -25 4 -22 hhcurveto
            -26 -26 -12 -32 -33 33 -28 44 -18 hvcurveto
            -32 76 99 -18 127 hhcurveto
            291 137 98 231 76 hvcurveto
            return
          </CharString>
          <CharString index="31">
            -22 12 24 -16 26 hhcurveto
            94 112 265 83 19 -6 13 -10 8 hvcurveto
            45 -79 -170 36 -245 hhcurveto
            -483 -458 -257 -422 -252 194 -170 475 404 360 110 112 172 hvcurveto
            43 28 10 22 21 vvcurveto
            21 -15 11 -16 -18 -17 -5 -7 -21 vhcurveto
            -61 -182 -306 -64 -206 hhcurveto
            -183 -121 45 206 hvcurveto
            return
          </CharString>
          <CharString index="32">
            rmoveto
            23 70 21 67 18 66 243 40 230 83 81 56 rrcurveto
            18 12 13 12 19 vvcurveto
            28 -20 13 -25 -8 -11 -2 -2 -9 vhcurveto
            -57 -14 -120 -72 -294 -19 59 227 55 233 119 293 rrcurveto
            8 21 9 18 26 vvcurveto
            return
          </CharString>
          <CharString index="33">
            hstemhm
            hintmask 10111000
            1697 456 rmoveto
            37 30 -13 -42 -93 -88 -187 -39 -63 hvcurveto
            -58 -36 -62 -40 -211 hhcurveto
            -148 -282 41 87 -199 hvcurveto
            hintmask 01111000
            -91 -102 -57 -35 -62 hhcurveto
            -106 -229 67 48 -102 hvcurveto
            -41 19 -23 17 38 vvcurveto
            200 1177 744 156 329 vhcurveto
            74 35 43 49 68 hhcurveto
            111 334 -141 -140 hvcurveto
            0 -1 0 -10 vvcurveto
            hintmask 10111000
            -35 -247 -753 -604 -285 -192 rrcurveto
            14 480 340 229 50 hhcurveto
            -553 946 rmoveto
            -64 -65 -26 -67 -15 vhcurveto
            -93 -408 -138 -158 -108 hhcurveto
            -44 -11 39 49 119 81 211 123 25 hvcurveto
            14 69 84 6 84 hhcurveto
            182 218 -21 -86 hvcurveto
            return
          </CharString>
          <CharString index="34">
            rmoveto
            -35 29 38 -23 57 hhcurveto
            73 29 7 35 51 hvcurveto
            236 161 210 210 64 vvcurveto
            30 -23 15 -25 -26 -32 -12 -18 -33 vhcurveto
            -189 -102 -70 -36 -150 -67 -124 75 -50 31 -145 99 rrcurveto
            29 -43 -25 8 -23 hhcurveto
            -26 -25 -11 -31 -4 0 -5 1 -6 hvcurveto
            9 -60 117 -165 159 -189 rrcurveto
            endchar
          </CharString>
          <CharString index="35">
            147 138 6 116 -43 callgsubr
            vvcurveto
            107 67 179 78 194 vhcurveto
            108 13 100 21 63 32 rrcurveto
            14 7 19 14 25 vvcurveto
            39 -47 2 -23 -69 -51 -4 -1 -54 vhcurveto
            91 224 87 225 138 vvcurveto
            -32 callsubr
            1178 -111 rmoveto
            46 -26 37 -53 vhcurveto
            return
          </CharString>
          <CharString index="36">
            367 -217 287 -540 -416 -453 -229 -80 return
          </CharString>
          <CharString index="37">
            -86 104 -38 163 51 41 2 9 34 vhcurveto
            endchar
          </CharString>
          <CharString index="38">
            rmoveto
            48 165 19 42 70 159 rrcurveto
            43 97 27 80 60 vvcurveto
            64 -63 24 -96 -156 -225 -64 -84 -207 vhcurveto
            -23 -9 -33 -16 -27 vvcurveto
            -25 18 -10 27 vhcurveto
            55 84 26 51 hhcurveto
            33 24 -4 -23 -46 -102 -187 -111 -239 hvcurveto
            -7 -13 -1 -17 -13 vvcurveto
            -39 60 -2 57 vhcurveto
            return
          </CharString>
          <CharString index="39">
            22 -14 28 -38 vhcurveto
            -116 -249 -11 -109 hhcurveto
            -81 callgsubr
            -298 return
          </CharString>
          <CharString index="40">
            1855 180 rmoveto
            35 25 8 19 21 vvcurveto
            27 -23 13 -18 -14 -18 -8 -12 -21 vhcurveto
            -37 -66 -149 -66 -70 hhcurveto
            -49 -15 24 43 hvcurveto
            53 26 48 50 vvcurveto
            108 -87 51 -167 -86 -101 -12 -9 -61 vhcurveto
            302 63 426 161 251 vvcurveto
            22 -14 28 -38 vhcurveto
            return
          </CharString>
          <CharString index="41">
            -122 -118 101 -166 hhcurveto
            -100 -114 -43 -109 -100 hvcurveto
            -32 -35 -43 -46 -37 vvcurveto
            -32 28 -17 41 vhcurveto
            return
          </CharString>
          <CharString index="42">
            34 -25 27 -39 -26 -33 -15 -27 -33 vhcurveto
            -1626 -1347 rlineto
            -45 -37 -22 -27 -41 vvcurveto
            -34 25 -27 39 26 33 15 27 33 vhcurveto
            return
          </CharString>
          <CharString index="43">
            1021 -38 rmoveto
            386 389 67 166 238 hvcurveto
            18 13 19 20 20 vvcurveto
            24 -12 13 -22 -25 -22 -12 -19 -34 vhcurveto
            -68 -38 -131 -57 -277 -20 rrcurveto
            163 132 104 192 216 vvcurveto
            262 -161 120 -241 -182 -173 -54 return
          </CharString>
          <CharString index="44">
            rmoveto
            -212 -162 -128 -132 -73 vvcurveto
            -25 15 -17 25 12 26 3 16 30 vhcurveto
            201 107 -21 -31 168 104 rrcurveto
            83 51 32 49 40 vvcurveto
            62 -75 42 -72 -33 -31 -19 -15 -20 vhcurveto
            558 -4 rmoveto
            -277 -154 -126 -164 -70 vvcurveto
            return
          </CharString>
          <CharString index="45">
            rmoveto
            8 105 19 144 30 165 411 11 313 76 158 94 rrcurveto
            19 12 12 14 20 vvcurveto
            return
          </CharString>
          <CharString index="46">
            1141 1099 -39 callgsubr
            -89 -454 -130 -251 rrcurveto
            -133 -69 -43 -24 -120 hhcurveto
            -32 -34 -19 -32 -80 240 -102 260 217 124 21 212 70 hvcurveto
            21 64 23 73 24 77 rrcurveto
            -13 63 69 -4 101 hhcurveto
            448 528 209 492 232 -149 233 -558 -490 -377 -158 -77 -143 hvcurveto
            -36 -20 -36 -26 -30 vvcurveto
            -22 21 -14 25 vhcurveto
            return
          </CharString>
          <CharString index="47">
            38 -25 16 -75 vhcurveto
            -31 -109 1 -33 hhcurveto
            -37 -26 -11 -21 -8 hvcurveto
            -12 -31 -44 -65 -50 -76 rrcurveto
            -172 -4 -234 -7 15 vvcurveto
            30 478 362 16 20 vhcurveto
            8 10 5 9 8 vvcurveto
            15 -16 10 -44 vhcurveto
            -67 -323 -8 -26 hhcurveto
            -62 -22 -15 -35 -24 hvcurveto
            -106 -155 -103 -123 -92 -80 rrcurveto
            -41 -36 -24 -27 -26 vvcurveto
            -56 86 -18 39 -7 vhcurveto
            -4 24 70 -4 94 hhcurveto
            67 192 5 7 203 hvcurveto
            -27 -44 -25 -42 -18 -37 rrcurveto
            -6 -12 -1 -17 -14 vvcurveto
            return
          </CharString>
          <CharString index="48">
            -35 -65 -204 -83 -81 hhcurveto
            -42 -22 14 51 81 67 159 63 159 hvcurveto
            57 144 55 143 83 vvcurveto
            22 -14 28 -38 -56 -76 4 5 -77 vhcurveto
            return
          </CharString>
          <CharString index="49">
            6 216 -43 callgsubr
            return
          </CharString>
          <CharString index="50">
            -54 -49 -40 -54 -62 hvcurveto
            -186 -162 -124 -210 -171 vvcurveto
            -112 56 -80 128 124 94 103 98 32 vhcurveto
            4 13 2 12 11 85 -101 44 73 87 185 200 59 vvcurveto
            29 -26 15 -23 vhcurveto
            return
          </CharString>
          <CharString index="51">
            rmoveto
            -277 -154 -181 -286 -70 vvcurveto
            -24 19 -14 15 12 32 3 16 30 vhcurveto
            201 107 87 92 168 104 rrcurveto
            83 51 32 49 40 vvcurveto
            62 -75 42 -72 -26 -26 -6 -12 -22 vhcurveto
            548 -20 rmoveto
            -277 -154 -202 -266 -70 vvcurveto
            -24 19 -14 15 12 32 3 16 30 vhcurveto
            201 107 128 88 -46 callsubr
          </CharString>
          <CharString index="52">
            -82 callsubr
            endchar
          </CharString>
          <CharString index="53">
            rmoveto
            -45 -50 -49 -81 -51 21 -20 24 hvcurveto
            115 112 20 145 153 102 -24 callgsubr
            49 84 43 -12 25 -23 hvcurveto
            -108 -124 -20 -141 -128 -156 20 -102 hhcurveto
            endchar
          </CharString>
          <CharString index="54">
            147 43 6 216 hhcurveto
            35 24 34 43 2 hvcurveto
            18 332 267 475 80 309 rrcurveto
            37 72 84 35 75 hhcurveto
            73 28 -43 -51 hvcurveto
            -202 -319 -481 -293 vvcurveto
            -154 102 -69 198 308 227 84 93 41 -49 9 -52 9 vhcurveto
            -76 13 -67 46 96 194 328 432 341 vvcurveto
            160 -121 99 -197 -183 -192 -89 -169 -217 vhcurveto
            return
          </CharString>
          <CharString index="55">
            rmoveto
            137 -74 235 -134 164 -99 -198 -107 -262 -133 -164 -78 rrcurveto
            -32 -15 -21 -38 -33 vvcurveto
            -49 66 -106 34 4 5 1 3 5 vhcurveto
            268 154 226 134 262 131 rrcurveto
            62 31 41 42 50 vvcurveto
            37 -7 43 -22 13 vhcurveto
            -191 117 -286 187 -192 129 rrcurveto
            4 -6 -5 2 -7 hhcurveto
            -55 -91 -98 -53 -29 11 -22 19 -10 hvcurveto
            return
          </CharString>
          <CharString index="56">
            rmoveto
            32 34 43 48 36 vvcurveto
            32 -31 17 -38 vhcurveto
            return
          </CharString>
          <CharString index="57">
            rmoveto
            -111 -307 -50 -407 -138 -190 rrcurveto
            -59 -82 -103 -15 -71 vvcurveto
            -43 34 -25 65 vhcurveto
            return
          </CharString>
          <CharString index="58">
            -955 -40 209 116 -29 callgsubr
            return
          </CharString>
          <CharString index="59">
            111 150 11 254 hhcurveto
            10 32 1 callsubr
            124 350 65 229 rrcurveto
            9 45 52 7 46 hhcurveto
            76 63 -20 -69 hvcurveto
            -132 -201 -344 -144 vvcurveto
            return
          </CharString>
          <CharString index="60">
            rmoveto
            254 224 22 123 205 hvcurveto
            35 21 23 23 36 vvcurveto
            36 -34 14 -55 vhcurveto
            return
          </CharString>
          <CharString index="61">
            178 88 rrcurveto
            79 39 29 42 38 vvcurveto
            68 -95 54 -82 -25 -23 -4 -11 -19 vhcurveto
            endchar
          </CharString>
          <CharString index="62">
            -122 -138 125 -166 hhcurveto
            -100 -104 -63 -109 -100 hvcurveto
            -32 -35 -43 -46 -37 vvcurveto
            -32 28 -17 41 vhcurveto
            return
          </CharString>
          <CharString index="63">
            57 -72 -111 43 -182 hhcurveto
            -445 -351 -287 -400 -276 212 -86 222 171 187 63 106 143 hvcurveto
            -22 -65 -22 -63 -21 -59 rrcurveto
            return
          </CharString>
          <CharString index="64">
            198 91 29 -48 -72 -72 -26 -93 -32 -73 vhcurveto
            return
          </CharString>
          <CharString index="65">
            -61 -260 -11 -70 hhcurveto
            -81 callgsubr
            vvcurveto
            -144 -138 -152 -248 -65 vhcurveto
            76 206 174 520 129 vvcurveto
            21 -19 25 -33 vhcurveto
            -110 -254 -3 -94 -20 callgsubr
            -8 -10 -328 -413 -966 -90 3 callsubr
            return
          </CharString>
          <CharString index="66">
            28 -18 13 -32 vhcurveto
            -82 -74 -135 -298 hhcurveto
            endchar
          </CharString>
          <CharString index="67">
            111 150 11 254 hhcurveto
            21 30 9 28 2 hvcurveto
            5 79 26 115 97 266 rrcurveto
            114 -10 45 -58 -79 -89 -42 -73 -79 vvcurveto
            return
          </CharString>
          <CharString index="68">
            hstemhm
            -34 -38 callgsubr
            return
          </CharString>
          <CharString index="69">
            -114 -97 -18 -190 hhcurveto
            -93 -41 -17 -73 -35 0 -48 -8 -53 hvcurveto
            -49 -304 -288 -692 -220 vvcurveto
            -82 74 -4 72 vhcurveto
            return
          </CharString>
          <CharString index="70">
            485 208 -197 -21 22 -21 226 -20 21 -20 hstemhm
            hintmask 01001000
            return
          </CharString>
          <CharString index="71">
            1121 1089 -39 callgsubr
            -70 -447 -129 -248 rrcurveto
            -133 -69 -43 -24 -120 hhcurveto
            -32 -34 -19 -32 -80 240 -102 260 149 105 10 74 74 hvcurveto
            return
          </CharString>
          <CharString index="72">
            -63 149 202 -41 187 hhcurveto
            324 341 117 346 235 -291 122 -240 3 hvcurveto
            414 16 232 177 211 vvcurveto
            228 -207 161 -500 -527 -595 -233 -123 -22 22 -11 30 vhcurveto
            return
          </CharString>
          <CharString index="73">
            66 -489 -21 557 256 1220 -20 23 -20 30 -20 return
          </CharString>
          <CharString index="74">
            149 -44 71 -173 -169 -251 -98 -112 -130 vhcurveto
            -44 -38 -38 -36 -38 vvcurveto
            -27 19 -4 25 vhcurveto
            37 46 24 35 hhcurveto
            33 20 -19 -73 -160 -297 -552 -62 -264 hvcurveto
            -6 -27 -3 -35 -29 vvcurveto
            -82 74 -4 72 vhcurveto
            return
          </CharString>
          <CharString index="75">
            180 -74 40 -173 vhcurveto
            return
          </CharString>
          <CharString index="76">
            -8 -145 -29 -189 -108 vvcurveto
            -47 16 -47 51 38 22 28 48 30 vhcurveto
            106 170 112 309 201 vvcurveto
            return
          </CharString>
          <CharString index="77">
            473 1122 -50 callsubr
            return
          </CharString>
          <CharString index="78">
            -32 rmoveto
            -27 -97 -77 -98 -74 -50 rrcurveto
            -48 -33 -13 -14 -20 vvcurveto
            -26 15 -21 51 248 270 324 253 151 -122 92 -164 -233 -164 -136 -146 -102 77 -82 199 22 21 2 3 19 vhcurveto
            return
          </CharString>
          <CharString index="79">
            -445 -40 175 150 -20 649 147 return
          </CharString>
          <CharString index="80">
            6 116 hhcurveto
            42 63 22 45 hvcurveto
            return
          </CharString>
          <CharString index="81">
            147 108 -27 callsubr
            23 -4 20 20 419 341 551 357 vvcurveto
            return
          </CharString>
          <CharString index="82">
            298 271 -95 -214 180 hvcurveto
            return
          </CharString>
          <CharString index="83">
            rmoveto
            -82 callsubr
            return
          </CharString>
          <CharString index="84">
            532 -75 296 10 -20 348 128 -128 470 11 -20 return
          </CharString>
          <CharString index="85">
            -133 -75 -36 -24 -120 hhcurveto
            -32 -35 -19 -33 hvcurveto
            return
          </CharString>
          <CharString index="86">
            917 -50 261 1304 -20 31 -20 30 -20 return
          </CharString>
          <CharString index="87">
            -56 callgsubr
            255 413 670 290 vvcurveto
            -32 callsubr
            610 -1596 rmoveto
            389 142 103 81 hvcurveto
            return
          </CharString>
          <CharString index="88">
            -1982 endchar
          </CharString>
          <CharString index="89">
            -102 -40 10 callsubr
            return
          </CharString>
          <CharString index="90">
            -56 -182 -10 -116 return
          </CharString>
          <CharString index="91">
            236 -19 1 callgsubr
            return
          </CharString>
          <CharString index="92">
            -26 -95 -8 -32 rrcurveto
            -16 -59 -15 -32 -61 vvcurveto
            -73 56 -17 59 -16 vhcurveto
            -2 8 8 -2 6 hhcurveto
            29 14 19 19 5 hvcurveto
            14 54 38 178 30 112 6 return
          </CharString>
          <CharString index="93">
            -275 -40 0 callsubr
            return
          </CharString>
          <CharString index="94">
            233 -232 -21 1242 374 -217 217 return
          </CharString>
          <CharString index="95">
            64 -286 428 -142 142 1296 138 return
          </CharString>
          <CharString index="96">
            64 -40 197 -197 253 -212 -21 return
          </CharString>
          <CharString index="97">
            122 hhcurveto
            47 48 return
          </CharString>
          <CharString index="98">
            rmoveto
            128 83 95 40 102 67 rrcurveto
            22 14 14 28 33 vvcurveto
            45 -44 86 -37 -6 -4 -2 -3 -5 vhcurveto
            -91 -59 -92 -85 -118 -78 -12 -8 rcurveline
            return
          </CharString>
          <CharString index="99">
            -40 199 -199 254 71 -20 601 195 return
          </CharString>
          <CharString index="100">
            -44 112 -56 -21 490 107 353 112 413 107 -27 -20 hstemhm
            249 296 396 291 -255 296 396 291 return
          </CharString>
          <CharString index="101">
            78 -50 29 -60 -90 -105 -33 -110 -20 vhcurveto
            -11 -61 1 -62 -3 -61 rrcurveto
            return
          </CharString>
          <CharString index="102">
            -21 32 -21 294 -20 return
          </CharString>
          <CharString index="103">
            39 -78 -42 42 -24 hhcurveto
            -45 -54 -154 -33 -15 9 -6 21 -9 hvcurveto
            -24 54 187 -35 277 hhcurveto
            448 207 82 151 hvcurveto
            return
          </CharString>
          <CharString index="104">
            -66 -72 -40 -209 -14 vhcurveto
            -74 -5 -15 -21 -26 vvcurveto
            -16 4 -24 90 -7 vhcurveto
            152 -11 56 -55 -62 vvcurveto
            -69 -77 -49 -84 vhcurveto
            endchar
          </CharString>
          <CharString index="105">
            219 rmoveto
            27 3 16 4 5 8 rrcurveto
            5 8 9 42 20 vvcurveto
            14 -9 6 -24 -22 -34 -4 -3 -90 vhcurveto
            14 60 12 53 29 vvcurveto
            return
          </CharString>
          <CharString index="106">
            118 53 7 172 hhcurveto
            34 24 21 29 12 4 21 3 11 hvcurveto
            return
          </CharString>
          <CharString index="107">
            275 -19 -20 843 6 callgsubr
            return
          </CharString>
          <CharString index="108">
            4 33 11 hvcurveto
            57 182 return
          </CharString>
          <CharString index="109">
            -520 111 421 232 41 37 callsubr
            return
          </CharString>
          <CharString index="110">
            vvcurveto
            -10 callgsubr
            return
          </CharString>
          <CharString index="111">
            590 -391 -62 callsubr
            return
          </CharString>
          <CharString index="112">
            2085 1328 rmoveto
            157 -98 92 -193 -203 -218 -94 -198 -246 vhcurveto
            2 18 2 17 16 vvcurveto
            return
          </CharString>
          <CharString index="113">
            64 -20 184 -184 233 -232 -21 785 88 -88 508 -470 50 354 389 -207 207 return
          </CharString>
          <CharString index="114">
            -43 callsubr
            -245 -107 return
          </CharString>
          <CharString index="115">
            258 -258 320 -280 319 -257 156 hstemhm
            return
          </CharString>
          <CharString index="116">
            961 887 rmoveto
            149 70 -121 -136 76 hvcurveto
            return
          </CharString>
          <CharString index="117">
            208 -167 -5 callsubr
            return
          </CharString>
          <CharString index="118">
            6 14 5 15 6 16 49 151 56 204 54 177 rrcurveto
            209 -5 181 -86 -146 vvcurveto
            return
          </CharString>
          <CharString index="119">
            -37 callsubr
            244 534 rmoveto
            -45 return
          </CharString>
          <CharString index="120">
            35 callgsubr
            hstemhm
            return
          </CharString>
          <CharString index="121">
            631 -40 225 -172 -21 284 -20 272 162 25 198 496 167 return
          </CharString>
          <CharString index="122">
            -520 89 471 228 17 -20 775 -20 return
          </CharString>
          <CharString index="123">
            -68 vvcurveto
            34 callgsubr
            return
          </CharString>
          <CharString index="124">
            hhcurveto
            -65 -81 -262 -68 -32 12 -12 30 -19 hvcurveto
            -49 79 198 -73 400 hhcurveto
            return
          </CharString>
          <CharString index="125">
            2 -9 -7 1 -7 hhcurveto
            -28 -15 -18 -19 -5 hvcurveto
            -15 -54 -37 -178 -30 -112 return
          </CharString>
          <CharString index="126">
            rmoveto
            -48 -45 -7 -9 -43 hvcurveto
            57 193 -72 35 rlineto
            -86 -82 -68 -164 -48 vvcurveto
            return
          </CharString>
          <CharString index="127">
            -40 253 -230 -21 1084 463 38 return
          </CharString>
          <CharString index="128">
            1026 -10 327 -305 -21 23 -21 203 121 -121 317 return
          </CharString>
          <CharString index="129">
            -61 -122 -62 -59 hhcurveto
            return
          </CharString>
          <CharString index="130">
            -8 callsubr
            423 -20 hstemhm
            return
          </CharString>
          <CharString index="131">
            -32 13 -30 36 30 15 26 35 10 vhcurveto
            return
          </CharString>
          <CharString index="132">
            rmoveto
            98 122 36 102 79 57 -32 -72 return
          </CharString>
          <CharString index="133">
            64 -20 233 197 146 673 347 -207 207 return
          </CharString>
          <CharString index="134">
            -2 -8 -2 -9 -7 vvcurveto
            -48 58 -21 35 52 50 19 49 14 vhcurveto
            return
          </CharString>
          <CharString index="135">
            -83 -77 -169 -144 vvcurveto
            -181 203 -25 167 vhcurveto
            return
          </CharString>
          <CharString index="136">
            1091 -19 -21 43 -21 27 -21 1266 323 -21 -20 return
          </CharString>
          <CharString index="137">
            -40 204 121 -20 return
          </CharString>
          <CharString index="138">
            27 rrcurveto
            15 57 14 32 63 vvcurveto
            72 -55 18 -58 15 vhcurveto
            return
          </CharString>
          <CharString index="139">
            64 3 -21 27 -21 1522 -20 38 -20 48 -20 return
          </CharString>
          <CharString index="140">
            -21 829 -20 hstem
            return
          </CharString>
          <CharString index="141">
            -30 callgsubr
            hstemhm
            return
          </CharString>
          <CharString index="142">
            254 hhcurveto
            8 34 1 callsubr
            return
          </CharString>
          <CharString index="143">
            -13 -45 -13 -47 -43 vvcurveto
            return
          </CharString>
          <CharString index="144">
            -20 595 201 -29 -20 return
          </CharString>
          <CharString index="145">
            hhcurveto
            47 48 19 84 return
          </CharString>
          <CharString index="146">
            -753 1641 -21 429 -20 hstem
            return
          </CharString>
          <CharString index="147">
            -753 1203 -21 541 -20 hstem
            return
          </CharString>
        <CharString name=".notdef">
          -107 -68 429 1018 491 hstemhm
          173 190 1022 318 -207 207 hintmask 11110000
          173 -68 rmoveto
          1530 1938 -1530 hlineto
          352 -587 rmoveto
          36 37 63 60 21 hhcurveto
          10 11 -5 -13 12 hvcurveto
          33 -38 108 -140 116 -146 145 120 132 115 92 90 rrcurveto
          8 8 11 6 13 hhcurveto
          13 15 -7 -16 17 hvcurveto
          hintmask 11101000
          33 -33 81 -62 -44 vvcurveto
          -48 -92 -63 -61 -54 vhcurveto
          -61 -55 -88 -74 -97 -81 44 -50 rcurveline
          hintmask 11110000
          113 -130 131 -111 -38 vvcurveto
          -31 -144 -118 -29 -43 -68 99 50 -35 vhcurveto
          -36 50 -49 67 -54 70 -147 -123 -144 -121 -85 -79 rrcurveto
          -8 -9 -11 -6 -13 hhcurveto
          -35 -120 120 37 55 92 61 56 49 hvcurveto
          65 57 90 74 97 81 rrcurveto
          -137 140 -135 159 34 vvcurveto
          16 11 17 23 23 vhcurveto
          endchar
        </CharString>
        <CharString name=".null">
          -19 callsubr
        </CharString>
        <CharString name="A">
          -63 callgsubr
          -39 callsubr
          241 425 hintmask 1111010110000000
          -96 callsubr
          hintmask 1110101110000000
          -102 callgsubr
          hintmask 1111010110000000
          -101 callgsubr
          endchar
        </CharString>
        <CharString name="AE">
          14 callsubr
          -39 callsubr
          271 273 -273 479 hintmask 1011111011000000
          1253 -58 callgsubr
          hintmask 0111110110100000
          -60 callgsubr
          hintmask 1011111011000000
          -101 callgsubr
          endchar
        </CharString>
        <CharString name="AEacute">
          14 callsubr
          474 -20 hstemhm
          16 -38 callgsubr
          271 273 -273 479 hintmask 1011111101100000
          1303 -58 callgsubr
          hintmask 0111111011010000
          -60 callgsubr
          hintmask 1011111101100000
          -101 callgsubr
          823 852 -105 callgsubr
        </CharString>
        <CharString name="Aacute">
          -63 callgsubr
          474 -20 -39 callsubr
          hintmask 1111011010000000
          -96 callsubr
          hintmask 1110110110000000
          -102 callgsubr
          hintmask 1111011010000000
          -101 callgsubr
          590 852 -105 callgsubr
        </CharString>
        <CharString name="Abreve">
          -63 callgsubr
          69 266 -266 400 1 -20 -39 callsubr
          hintmask 1111010110100000
          -96 callsubr
          hintmask 1110110101100000
          -102 callgsubr
          hintmask 1111010110100000
          -101 callgsubr
          472 750 rmoveto
          hintmask 1111001010100000
          -84 callsubr
          hintmask 1111010110100000
          -41 callsubr
        </CharString>
        <CharString name="Acircumflex">
          -63 callgsubr
          473 -20 -39 callsubr
          hintmask 1111011010000000
          -96 callsubr
          hintmask 1110110110000000
          -102 callgsubr
          hintmask 1111011010000000
          -101 callgsubr
          583 830 -106 callgsubr
        </CharString>
        <CharString name="Adieresis">
          -63 callgsubr
          65 379 -39 callsubr
          561 280 hintmask 1111011011000000
          -96 callsubr
          hintmask 1110110111000000
          -102 callgsubr
          hintmask 1111011011000000
          -101 callgsubr
          -37 480 -94 callsubr
        </CharString>
        <CharString name="Agrave">
          -63 callgsubr
          60 414 -39 callsubr
          hintmask 1111011010000000
          -96 callsubr
          hintmask 1110110110000000
          -102 callgsubr
          hintmask 1111011010000000
          -101 callgsubr
          68 889 -87 callsubr
        </CharString>
        <CharString name="Amacron">
          -63 callgsubr
          152 221 -39 callsubr
          241 425 hintmask 1111011011000000
          -96 callsubr
          hintmask 1110110111000000
          -102 callgsubr
          hintmask 1111011011000000
          -101 callgsubr
          -12 788 -79 callsubr
        </CharString>
        <CharString name="Aogonek">
          -102 576 0 65 206 endchar
        </CharString>
        <CharString name="Aring">
          -63 callgsubr
          -41 125 239 141 -39 callsubr
          25 248 -32 425 -33 208 -208 250 hintmask 1111001101010000
          1183 -40 rmoveto
          361 150 72 39 56 hvcurveto
          29 20 13 26 29 vvcurveto
          43 -44 -12 -48 4 vhcurveto
          -82 6 -25 32 67 vvcurveto
          hintmask 1111001101101000
          175 175 430 290 vvcurveto
          286 -182 109 -333 -416 -322 -173 -54 -20 14 -10 25 vhcurveto
          hintmask 1110101011010000
          -102 callgsubr
          hintmask 1110011101100100
          -101 callgsubr
          179 604 25 callsubr
          -52 callgsubr
        </CharString>
        <CharString name="Atilde">
          -63 callgsubr
          89 8 callsubr
          -34 447 437 77 hintmask 1111010001100000
          -96 callsubr
          hintmask 1110101001100000
          -102 callgsubr
          -101 callgsubr
          884 657 -51 callsubr
          hintmask 1111000011100000
          22 callsubr
          hintmask 1111000101100000
          -66 callsubr
          hintmask 1111000011100000
          23 callgsubr
          hintmask 1111010001100000
          -45 callgsubr
        </CharString>
        <CharString name="B">
          6 callsubr
          hstemhm
          1521 431 hintmask 0100100110000000
          -36 callsubr
          hintmask 0010011010000000
          -35 callsubr
          hintmask 1001000110000000
          -27 callgsubr
          hintmask 0101001010000000
          11 callsubr
          endchar
        </CharString>
        <CharString name="C">
          -18 callgsubr
          hstemhm
          1508 413 hintmask 01110000
          1373 1453 rmoveto
          71 64 -11 -66 hvcurveto
          -93 -211 -353 -58 vvcurveto
          -94 132 -28 75 281 136 223 222 201 -192 180 -372 -545 -697 -435 -585 -363 315 -233 471 362 447 167 133 25 -24 8 -34 vhcurveto
          hintmask 10110000
          -90 -125 -85 -278 hhcurveto
          -276 -112 173 219 392 362 461 240 hvcurveto
          endchar
        </CharString>
        <CharString name="CR">
          -19 callsubr
        </CharString>
        <CharString name="Cacute">
          -18 callgsubr
          474 -20 -89 callgsubr
          217 560 -105 callgsubr
        </CharString>
        <CharString name="Ccaron">
          -18 callgsubr
          473 -20 -89 callgsubr
          -97 225 -105 callsubr
        </CharString>
        <CharString name="Ccedilla">
          324 0 67 203 endchar
        </CharString>
        <CharString name="Ccircumflex">
          -18 callgsubr
          473 -20 -89 callgsubr
          210 538 -106 callgsubr
        </CharString>
        <CharString name="Cdotaccent">
          -18 callgsubr
          85 383 -89 callgsubr
          -96 208 -89 callsubr
        </CharString>
        <CharString name="D">
          -11 callsubr
          1380 216 hstemhm
          hintmask 10010000
          1041 1360 -86 callsubr
          hintmask 01010000
          -22 callsubr
          hintmask 00110000
          -21 callgsubr
          hintmask 10010000
          -81 callsubr
          endchar
        </CharString>
        <CharString name="Dcaron">
          -11 callsubr
          1380 216 473 -20 hstemhm
          hintmask 10011000
          1041 1360 -86 callsubr
          hintmask 01011000
          -22 callsubr
          hintmask 00111000
          -21 callgsubr
          hintmask 10011000
          -81 callsubr
          124 318 -105 callsubr
        </CharString>
        <CharString name="Dcroat">
          -83 callgsubr
        </CharString>
        <CharString name="Delta">
          -6 208 1469 -20 hstem
          1412 -6 rmoveto
          56 66 79 53 39 -214 1142 -71 323 hvcurveto
          26 -6 -53 15 -40 hhcurveto
          -45 -36 -34 -56 -33 hvcurveto
          -156 -262 -565 -914 -181 -281 rrcurveto
          -4 -6 -1 -5 -6 vvcurveto
          -37 77 -73 47 -3 vhcurveto
          3 hlineto
          28 373 10 58 70 417 -10 210 hhcurveto
          -313 1342 rmoveto
          49 -263 90 -540 52 -321 rrcurveto
          -1 -43 -166 -9 -246 hhcurveto
          -179 -126 3 3 -83 hvcurveto
          176 311 320 553 156 264 rrcurveto
          endchar
        </CharString>
        <CharString name="E">
          -40 -71 callgsubr
          21 callgsubr
          hintmask 11101010
          1753 238 rmoveto
          25 -14 13 -24 -9 -11 -2 -3 -11 vhcurveto
          -45 -164 -186 -41 -164 hhcurveto
          -154 -210 61 193 213 333 51 169 12 hvcurveto
          47 3 69 58 87 vvcurveto
          40 -10 16 -28 vhcurveto
          hintmask 11010110
          -28 -29 -6 -27 hhcurveto
          -203 -156 117 130 143 139 106 174 153 113 -87 -158 70 hvcurveto
          hintmask 11101010
          -45 20 39 -42 45 hhcurveto
          33 17 13 18 18 hvcurveto
          57 53 124 174 75 vvcurveto
          32 -18 17 -20 12 vhcurveto
          86 -143 -284 19 -217 hhcurveto
          -438 -447 -157 -290 -248 449 -45 228 -12 hvcurveto
          -451 -1 -544 -124 -342 vvcurveto
          -282 353 -115 456 377 507 131 147 vhcurveto
          endchar
        </CharString>
        <CharString name="Eacute">
          -40 -71 callgsubr
          474 -20 -107 callgsubr
          -203 1775 -105 callgsubr
        </CharString>
        <CharString name="Ebreve">
          -40 -71 callgsubr
          69 -19 callgsubr
          378 428 hintmask 1110101011000000
          1753 238 rmoveto
          25 -14 13 -24 -9 -11 -2 -3 -11 vhcurveto
          -45 -164 -186 -41 -164 hhcurveto
          -154 -210 61 193 213 333 51 169 12 hvcurveto
          47 3 69 58 87 vvcurveto
          40 -10 16 -28 vhcurveto
          hintmask 1101011011000000
          -28 -29 -6 -27 hhcurveto
          -203 -156 117 130 143 139 106 174 153 113 -87 -158 70 hvcurveto
          hintmask 1110101011000000
          -45 20 39 -42 45 hhcurveto
          33 17 13 18 18 hvcurveto
          57 53 124 174 75 vvcurveto
          32 -18 17 -20 12 vhcurveto
          86 -143 -284 19 -217 hhcurveto
          -438 -447 -157 -290 -248 449 -45 228 -12 hvcurveto
          -451 -1 -544 -124 -342 vvcurveto
          -282 353 -115 456 377 507 131 147 vhcurveto
          -321 1673 rmoveto
          hintmask 1110100101000000
          -84 callsubr
          hintmask 1110101011000000
          -41 callsubr
        </CharString>
        <CharString name="Ecaron">
          -40 -71 callgsubr
          473 -20 -107 callgsubr
          -517 1440 -105 callsubr
        </CharString>
        <CharString name="Ecircumflex">
          -40 -71 callgsubr
          473 -20 -107 callgsubr
          -210 1753 -106 callgsubr
        </CharString>
        <CharString name="Edieresis">
          -40 -71 callgsubr
          65 379 -107 callgsubr
          -830 1403 -94 callsubr
        </CharString>
        <CharString name="Edotaccent">
          -40 -71 callgsubr
          85 383 -107 callgsubr
          -516 1423 -89 callsubr
        </CharString>
        <CharString name="Egrave">
          -40 -71 callgsubr
          60 414 -107 callgsubr
          -725 1812 -87 callsubr
        </CharString>
        <CharString name="Emacron">
          -40 -71 callgsubr
          152 221 -107 callgsubr
          -805 1711 -79 callsubr
        </CharString>
        <CharString name="Eng">
          197 -489 -21 513 -5 callgsubr
          hstemhm
          hintmask 11001000
          914 4 callgsubr
          -247 -102 -108 -134 hvcurveto
          -41 -33 -41 -41 -90 callsubr
          hintmask 10110000
          -56 callgsubr
          vvcurveto
          218 279 520 81 328 vhcurveto
          29 53 66 27 78 hhcurveto
          72 79 -19 -77 -236 -405 -1008 -65 -110 hvcurveto
          -107 -181 -68 -9 -52 vvcurveto
          -50 68 -11 125 401 199 219 475 156 vhcurveto
          123 376 227 539 231 vvcurveto
          163 -118 84 -193 -201 -286 -94 -185 -183 vhcurveto
          1 13 1 13 12 vvcurveto
          hintmask 11001000
          -32 callsubr
          endchar
        </CharString>
        <CharString name="Eogonek">
          -542 158 344 -71 callgsubr
          21 callgsubr
          -2 381 hintmask 1111010010000000
          1408 96 rmoveto
          -69 callgsubr
          125 126 98 44 hvcurveto
          64 29 43 13 50 21 rrcurveto
          188 155 rmoveto
          25 -14 13 -24 -9 -11 -2 -3 -11 vhcurveto
          -45 -164 -186 -41 -164 hhcurveto
          hintmask 1111010100000000
          -154 -210 61 193 213 333 51 169 12 hvcurveto
          47 3 69 58 87 vvcurveto
          40 -10 16 -28 vhcurveto
          hintmask 1110101100000000
          -28 -29 -6 -27 hhcurveto
          -203 -156 117 130 143 139 106 174 153 113 -87 -158 70 hvcurveto
          hintmask 1111010100000000
          -45 20 39 -42 45 hhcurveto
          33 17 13 18 18 hvcurveto
          57 53 124 174 75 vvcurveto
          32 -18 17 -20 12 vhcurveto
          86 -143 -284 19 -217 hhcurveto
          -438 -447 -157 -290 -248 449 -45 228 -12 hvcurveto
          -451 -1 -544 -124 -342 vvcurveto
          -282 353 -115 456 377 507 131 147 vhcurveto
          endchar
        </CharString>
        <CharString name="Eth">
          -83 callgsubr
        </CharString>
        <CharString name="Euro">
          -40 248 -248 333 134 140 143 133 610 123 hstemhm
          1491 503 -384 384 hintmask 01111100
          167 580 rmoveto
          14 callgsubr
          51 76 4 4 82 hvcurveto
          -288 61 273 -179 385 hhcurveto
          337 416 167 133 25 -23 8 -31 hvcurveto
          hintmask 10111010
          -84 -116 -85 -259 hhcurveto
          -185 -105 89 131 -45 hvcurveto
          -5 111 107 -4 58 2 callgsubr
          15 -23 -65 -153 -7 -6 -143 hvcurveto
          -1 11 0 11 11 vvcurveto
          36 3 37 5 37 vhcurveto
          -6 143 153 -7 75 2 callgsubr
          15 -23 -71 -177 -9 -6 -153 hvcurveto
          317 95 249 293 178 hhcurveto
          66 60 -11 -66 hvcurveto
          hintmask 10111100
          -93 -119 -190 -58 vvcurveto
          -58 99 -64 94 203 107 103 179 201 -179 180 -346 -417 -511 -293 -429 -170 vhcurveto
          2 -52 -46 2 -29 hhcurveto
          14 callgsubr
          34 47 1 3 51 hvcurveto
          -7 -41 -5 -42 -1 -43 rrcurveto
          3 -60 -53 2 -33 hhcurveto
          endchar
        </CharString>
        <CharString name="F">
          28 callgsubr
          hstemhm
          hintmask 10110000
          -44 callgsubr
          hintmask 11010000
          -59 callgsubr
          endchar
        </CharString>
        <CharString name="G">
          -12 callsubr
          36 callgsubr
          hintmask 01110000
          -82 callgsubr
          hintmask 10110000
          -83 callsubr
          endchar
        </CharString>
        <CharString name="Gbreve">
          -12 callsubr
          69 -19 callgsubr
          1557 473 hintmask 01110110
          -82 callgsubr
          hintmask 10110110
          -83 callsubr
          166 473 rmoveto
          hintmask 10101010
          -84 callsubr
          hintmask 10110110
          -41 callsubr
        </CharString>
        <CharString name="Gcircumflex">
          -12 callsubr
          473 -20 36 callgsubr
          hintmask 01111000
          -82 callgsubr
          hintmask 10111000
          -83 callsubr
          277 553 -106 callgsubr
        </CharString>
        <CharString name="Gcommaaccent">
          64 -47 callgsubr
          109 164 1274 138 36 callgsubr
          hintmask 10111000
          1401 1438 rmoveto
          65 91 -16 -49 hvcurveto
          -65 -112 -177 -37 vvcurveto
          -94 132 -28 75 281 97 156 110 203 -171 135 -430 -561 -733 -443 -592 -315 186 -226 504 vhcurveto
          21 hlineto
          291 479 5 199 131 hvcurveto
          71 108 -8 77 90 180 rrcurveto
          16 31 10 24 24 vvcurveto
          56 -83 23 -183 -344 -205 -40 -76 vhcurveto
          -68 181 19 -66 vvcurveto
          -68 -60 -165 -58 -99 vhcurveto
          -12 hlineto
          -262 -111 179 273 410 322 412 290 hvcurveto
          -505 -1842 -102 callsubr
          hintmask 01111000
          -70 callsubr
        </CharString>
        <CharString name="Gdotaccent">
          -12 callsubr
          85 383 36 callgsubr
          hintmask 01111000
          -82 callgsubr
          hintmask 10111000
          -83 callsubr
          51 223 -89 callsubr
        </CharString>
        <CharString name="H">
          32 callsubr
          hstemhm
          hintmask 10011000
          904 4 callgsubr
          -248 -101 -109 -133 hvcurveto
          -38 -31 -44 -43 -90 callsubr
          hintmask 01011000
          -72 callsubr
          hintmask 10101000
          -38 callsubr
          hintmask 01011000
          -26 callsubr
          endchar
        </CharString>
        <CharString name="Hbar">
          64 3 -21 27 -21 852 231 -20 -20 479 -20 38 -20 48 -20 hstemhm
          hintmask 10100110
          1681 860 rmoveto
          5 hlineto
          153 179 -24 callgsubr
          59 84 43 -12 45 -23 hvcurveto
          hintmask 10010110
          -140 -179 -20 -132 hhcurveto
          -1030 hmoveto
          hintmask 10100110
          -131 -237 20 -102 hhcurveto
          -45 -50 -59 -81 -51 21 -40 24 hvcurveto
          114 184 20 154 hhcurveto
          hintmask 10010110
          253 696 rmoveto
          -169 -248 -101 -109 -133 hvcurveto
          -38 -31 -44 -43 -90 callsubr
          hintmask 01100110
          -72 callsubr
          hintmask 10101010
          -38 callsubr
          hintmask 01100110
          -26 callsubr
          endchar
        </CharString>
        <CharString name="Hcircumflex">
          32 callsubr
          513 -20 hstemhm
          870 281 hintmask 10011110
          904 4 callgsubr
          -248 -101 -109 -133 hvcurveto
          -38 -31 -44 -43 -90 callsubr
          hintmask 01011110
          -72 callsubr
          hintmask 10101110
          -38 callsubr
          hintmask 01011110
          -26 callsubr
          -509 546 -106 callgsubr
        </CharString>
        <CharString name="I">
          -33 callgsubr
          hstem
          223 208 vstem
          -107 callsubr
          endchar
        </CharString>
        <CharString name="IJ">
          750 -510 143 368 -21 1295 261 hstem
          223 208 817 196 vstem
          -107 callsubr
          1773 315 -84 callgsubr
          endchar
        </CharString>
        <CharString name="Iacute">
          -33 callgsubr
          514 -20 hstem
          223 208 vstem
          -107 callsubr
          659 792 -105 callgsubr
        </CharString>
        <CharString name="Ibreve">
          -33 callgsubr
          109 -19 callgsubr
          223 208 hintmask 11101100
          -107 callsubr
          541 690 rmoveto
          hintmask 11010100
          -84 callsubr
          hintmask 11101100
          -41 callsubr
        </CharString>
        <CharString name="Icircumflex">
          -33 callgsubr
          513 -20 hstem
          223 208 vstem
          -107 callsubr
          652 770 -106 callgsubr
        </CharString>
        <CharString name="Idieresis">
          -33 callgsubr
          105 379 hstem
          223 208 753 146 vstem
          -107 callsubr
          32 420 -94 callsubr
        </CharString>
        <CharString name="Idotaccent">
          -33 callgsubr
          125 383 hstem
          223 208 vstem
          -107 callsubr
          346 440 -89 callsubr
        </CharString>
        <CharString name="Igrave">
          -33 callgsubr
          100 414 hstem
          223 208 vstem
          -107 callsubr
          137 829 -87 callsubr
        </CharString>
        <CharString name="Imacron">
          -33 callgsubr
          192 221 hstem
          223 208 vstem
          -107 callsubr
          57 728 -79 callsubr
        </CharString>
        <CharString name="Iogonek">
          -616 -542 158 385 -21 1295 261 hstemhm
          72 460 -381 381 -309 208 hintmask 11110000
          375 359 rmoveto
          -66 -138 -41 -24 -129 -15 rrcurveto
          -32 -4 -35 -15 -33 vvcurveto
          -79 250 -71 276 204 140 81 209 67 vhcurveto
          146 455 175 399 197 vvcurveto
          118 -45 97 -209 vhcurveto
          hintmask 11100100
          -373 -480 -187 -367 -183 113 -125 130 -80 hvcurveto
          -38 -107 -34 -88 -19 -40 rrcurveto
          273 862 rmoveto
          -62 -69 -231 -71 -211 vhcurveto
          -43 69 -34 79 101 vvcurveto
          232 122 77 40 35 20 -23 -31 vhcurveto
          107 -1125 rmoveto
          hintmask 11101000
          -69 callgsubr
          127 123 96 47 hvcurveto
          endchar
        </CharString>
        <CharString name="Itilde">
          -33 callgsubr
          129 8 callsubr
          hintmask 11010000
          -107 callsubr
          953 597 -51 callsubr
          hintmask 11000100
          22 callsubr
          hintmask 11001000
          -66 callsubr
          hintmask 11000100
          23 callgsubr
          hintmask 11100000
          -45 callgsubr
        </CharString>
        <CharString name="J">
          -616 -510 143 1903 -20 hstem
          -118 196 vstem
          1055 1536 -84 callgsubr
          endchar
        </CharString>
        <CharString name="Jcircumflex">
          -616 -510 143 1903 -20 533 -20 hstem
          -118 196 vstem
          1055 1536 -84 callgsubr
          1188 2358 -106 callgsubr
        </CharString>
        <CharString name="K">
          234 -19 19 callgsubr
          hintmask 11010110
          -32 callgsubr
          hintmask 10110110
          -20 callsubr
          hintmask 11011010
          -53 callgsubr
          28 callsubr
          endchar
        </CharString>
        <CharString name="Kcommaaccent">
          234 -47 callgsubr
          90 19 callgsubr
          -7 90 hintmask 1011010110000000
          -32 callgsubr
          hintmask 1010110110000000
          -20 callsubr
          hintmask 1011011010000000
          -53 callgsubr
          vvcurveto
          hintmask 1011010101000000
          28 callsubr
          -577 -364 -102 callsubr
          hintmask 0111010110000000
          -70 callsubr
        </CharString>
        <CharString name="L">
          -18 -11 callgsubr
          hstemhm
          hintmask 10010000
          -30 callsubr
          hintmask 00110000
          11 callgsubr
          hintmask 01010000
          -66 callgsubr
          hintmask 10010000
          -80 callgsubr
          endchar
        </CharString>
        <CharString name="Lacute">
          -18 -11 callgsubr
          514 -68 callgsubr
          792 891 -105 callgsubr
        </CharString>
        <CharString name="Lcaron">
          -18 -11 callgsubr
          513 -68 callgsubr
          471 556 -105 callsubr
        </CharString>
        <CharString name="Lcommaaccent">
          -47 callgsubr
          91 -11 callgsubr
          hstemhm
          hintmask 10100100
          -30 callsubr
          hintmask 10001100
          11 callgsubr
          hintmask 10010100
          -66 callgsubr
          hintmask 10100100
          -80 callgsubr
          401 -1526 -102 callsubr
          hintmask 01100100
          -70 callsubr
        </CharString>
        <CharString name="Ldot">
          1152 -386 76 199 endchar
        </CharString>
        <CharString name="Lslash">
          -18 -11 callgsubr
          hstemhm
          hintmask 10010000
          139 701 30 callgsubr
          305 65 143 24 151 25 403 53 24 callgsubr
          -418 -97 -139 -23 -126 -21 -356 -32 -100 -17 rrcurveto
          334 421 -50 callsubr
          hintmask 00110000
          11 callgsubr
          hintmask 01010000
          -66 callgsubr
          hintmask 10010000
          -80 callgsubr
          endchar
        </CharString>
        <CharString name="M">
          29 callsubr
          hstemhm
          2395 272 hintmask 11010100
          5 callsubr
          hintmask 11001100
          -33 callsubr
          hintmask 10110100
          147 8 31 callgsubr
          215 269 503 87 329 vhcurveto
          39 70 93 47 95 hhcurveto
          68 48 -27 -64 -133 -279 -470 -96 -401 hvcurveto
          -7 -29 -7 -39 -29 vvcurveto
          hintmask 11010100
          -76 72 -4 70 vhcurveto
          hintmask 10110100
          -53 callsubr
          endchar
        </CharString>
        <CharString name="N">
          -16 callsubr
          hstemhm
          1486 326 hintmask 11001100
          914 4 callgsubr
          -247 -102 -108 -134 hvcurveto
          -41 -33 -41 -41 -90 callsubr
          hintmask 10110100
          -96 callgsubr
          hintmask 11001100
          -32 callsubr
          endchar
        </CharString>
        <CharString name="Nacute">
          -16 callsubr
          514 -20 hstemhm
          1486 326 hintmask 11001110
          914 4 callgsubr
          -247 -102 -108 -134 hvcurveto
          -41 -33 -41 -41 -90 callsubr
          hintmask 10110110
          -96 callgsubr
          hintmask 11001110
          -32 callsubr
          753 457 -105 callgsubr
        </CharString>
        <CharString name="Ncaron">
          -16 callsubr
          513 -20 hstemhm
          1486 326 hintmask 11001110
          914 4 callgsubr
          -247 -102 -108 -134 hvcurveto
          -41 -33 -41 -41 -90 callsubr
          hintmask 10110110
          -96 callgsubr
          hintmask 11001110
          -32 callsubr
          327 122 -105 callsubr
        </CharString>
        <CharString name="Ncommaaccent">
          236 -47 callgsubr
          90 1 callgsubr
          hstemhm
          1180 132 174 326 hintmask 1011001110000000
          914 4 callgsubr
          -247 -102 -108 -134 hvcurveto
          -41 -33 -41 -41 -90 callsubr
          hintmask 1010110110000000
          -96 callgsubr
          hintmask 1011001110000000
          -32 callsubr
          101 -1960 -102 callsubr
          hintmask 0111010110000000
          -70 callsubr
        </CharString>
        <CharString name="Ntilde">
          -16 callsubr
          129 320 -218 156 -156 257 hstemhm
          930 231 325 326 hintmask 1100100111000000
          914 4 callgsubr
          -247 -102 -108 -134 hvcurveto
          -41 -33 -41 -41 -90 callsubr
          hintmask 1011000111000000
          -96 callgsubr
          hintmask 1100110011000000
          -32 callsubr
          1047 262 -51 callsubr
          hintmask 1101001011000000
          22 callsubr
          hintmask 1101000111000000
          -66 callsubr
          23 callgsubr
          hintmask 1101010011000000
          -45 callgsubr
        </CharString>
        <CharString name="O">
          -46 callgsubr
          hstemhm
          hintmask 11000000
          -99 callsubr
          hintmask 10100000
          -97 callsubr
          endchar
        </CharString>
        <CharString name="OE">
          983 -40 175 -175 225 91 -20 459 198 164 499 -339 339 -198 198 -167 167 hstemhm
          1413 510 -318 318 -318 416 -416 445 hintmask 0111100001000000
          2850 238 rmoveto
          25 -14 13 -24 -9 -12 -2 -3 -10 vhcurveto
          -45 -164 -186 -41 -164 hhcurveto
          -138 -206 57 193 213 202 67 280 47 69 61 87 40 -10 16 -28 hvcurveto
          -28 -29 -6 -27 hhcurveto
          hintmask 1011000100010000
          -183 -166 67 130 143 81 156 222 154 92 -97 -148 90 hvcurveto
          hintmask 1011100000100000
          -41 25 34 -46 45 hhcurveto
          33 17 13 18 18 hvcurveto
          57 53 124 174 75 vvcurveto
          32 -18 17 -20 12 vhcurveto
          86 -143 -284 19 -217 hhcurveto
          -448 -307 -296 -151 hvcurveto
          -549 -318 -155 -68 vvcurveto
          -182 362 -215 427 350 424 140 138 vhcurveto
          -1819 849 rmoveto
          72 65 48 32 38 vvcurveto
          21 -16 27 -59 -394 -557 -319 -488 -335 245 -168 469 644 538 365 597 -71 callsubr
          vhcurveto
          hintmask 1011010010000000
          -7 callgsubr
          hintmask 1011001010000000
          -97 callsubr
          endchar
        </CharString>
        <CharString name="Oacute">
          -46 callgsubr
          474 -20 hstemhm
          hintmask 11010000
          -99 callsubr
          hintmask 10110000
          -97 callsubr
          603 926 -105 callgsubr
        </CharString>
        <CharString name="Obreve">
          -46 callgsubr
          69 -19 callgsubr
          hintmask 11010100
          -99 callsubr
          hintmask 10110100
          -97 callsubr
          485 824 rmoveto
          hintmask 11001000
          -84 callsubr
          hintmask 11010100
          -41 callsubr
        </CharString>
        <CharString name="Ocircumflex">
          -46 callgsubr
          473 -20 hstemhm
          1423 480 hintmask 11011000
          -99 callsubr
          hintmask 10111000
          -97 callsubr
          596 904 -106 callgsubr
        </CharString>
        <CharString name="Odieresis">
          -46 callgsubr
          65 379 hstemhm
          1521 510 hintmask 11011000
          -99 callsubr
          hintmask 10111000
          -97 callsubr
          -24 554 -94 callsubr
        </CharString>
        <CharString name="Ograve">
          -46 callgsubr
          60 414 hstemhm
          1423 291 hintmask 11011000
          -99 callsubr
          hintmask 10111000
          -97 callsubr
          81 963 -87 callsubr
        </CharString>
        <CharString name="Ohungarumlaut">
          -46 callgsubr
          31 443 hstemhm
          1546 485 hintmask 11011000
          -99 callsubr
          hintmask 10111000
          -97 callsubr
          350 929 -63 callsubr
          -24 17 -14 24 21 20 5 14 26 vhcurveto
          201 107 52 -14 -46 callsubr
        </CharString>
        <CharString name="Omacron">
          -46 callgsubr
          152 221 hstemhm
          hintmask 11010000
          -99 callsubr
          hintmask 10110000
          -97 callsubr
          1 862 -79 callsubr
        </CharString>
        <CharString name="Omega">
          0 202 -185 -21 208 -20 1260 178 hstemhm
          47 480 -241 241 1005 182 -182 254 hintmask 01111010
          1633 -4 rmoveto
          75 6 84 71 hvcurveto
          hintmask 10010101
          28 -8 23 -23 vhcurveto
          -88 -202 -19 -82 hhcurveto
          260 152 215 363 324 vvcurveto
          407 -290 193 -385 -505 -320 -289 -514 -225 78 -221 130 -188 vhcurveto
          hintmask 01111010
          -130 -178 19 -72 hhcurveto
          -56 -11 -79 -71 -28 8 -23 23 hvcurveto
          hintmask 10011010
          91 326 -3 122 hhcurveto
          52 23 75 35 hvcurveto
          83 -165 291 323 vvcurveto
          459 257 178 309 236 203 -180 -278 -340 -175 -202 -113 -126 vhcurveto
          -63 -70 -100 -63 -20 -34 rrcurveto
          -10 -17 -8 -46 -35 vvcurveto
          -30 8 -23 23 vhcurveto
          hintmask 01111010
          216 239 -4 104 hhcurveto
          endchar
        </CharString>
        <CharString name="Oslash">
          66 -172 -21 153 175 1102 339 -198 198 11 -20 hstemhm
          hintmask 11001000
          429 196 -3 callgsubr
          1379 1156 -9 callsubr
          -767 -265 rmoveto
          72 65 48 32 38 vvcurveto
          21 -16 27 -59 -394 -557 -319 -488 -335 245 -168 469 644 538 365 597 vhcurveto
          hintmask 11100000
          17 callgsubr
          hintmask 11010000
          -97 callsubr
          endchar
        </CharString>
        <CharString name="Otilde">
          -46 callgsubr
          89 8 callsubr
          hintmask 11010000
          -99 callsubr
          hintmask 10101000
          -97 callsubr
          897 731 -51 callsubr
          hintmask 11000010
          22 callsubr
          hintmask 11000100
          -66 callsubr
          hintmask 11000010
          23 callgsubr
          hintmask 11010000
          -45 callgsubr
        </CharString>
        <CharString name="P">
          26 callsubr
          hstemhm
          hintmask 11100000
          -61 callsubr
          hintmask 11010000
          -14 callgsubr
          endchar
        </CharString>
        <CharString name="Q">
          66 -510 420 50 175 -132 -21 1255 339 -198 198 hstemhm
          hintmask 10110000
          690 150 rmoveto
          118 -239 314 -265 220 -100 rrcurveto
          -33 73 107 -23 73 hhcurveto
          184 153 122 186 122 hvcurveto
          32 49 29 46 38 vvcurveto
          37 -22 14 -31 -20 -23 -6 -8 -24 vhcurveto
          -38 -109 -127 -20 -134 hhcurveto
          -303 -370 40 200 -262 hvcurveto
          351 937 rmoveto
          72 65 48 32 38 vvcurveto
          21 -16 27 -59 -394 -557 -319 -488 vhcurveto
          hintmask 11010000
          -335 245 -168 469 644 538 365 597 17 callgsubr
          hintmask 11001000
          -97 callsubr
          endchar
        </CharString>
        <CharString name="R">
          236 -20 -13 callsubr
          hstemhm
          1509 354 hintmask 10101000
          -86 callgsubr
          hintmask 01101000
          -80 callsubr
          hintmask 10011000
          -55 callgsubr
          endchar
        </CharString>
        <CharString name="Racute">
          236 -20 -13 callsubr
          474 -20 hstemhm
          1509 354 hintmask 10101100
          -86 callgsubr
          hintmask 01101100
          -80 callsubr
          hintmask 10011100
          -55 callgsubr
          404 934 -105 callgsubr
        </CharString>
        <CharString name="Rcaron">
          236 -20 -13 callsubr
          473 -20 hstemhm
          1509 354 hintmask 10101100
          -86 callgsubr
          hintmask 01101100
          -80 callsubr
          hintmask 10011100
          -55 callgsubr
          90 599 -105 callsubr
        </CharString>
        <CharString name="Rcommaaccent">
          236 -47 callgsubr
          89 -13 callsubr
          hstemhm
          1149 113 247 354 hintmask 10101011
          -86 callgsubr
          hintmask 10011011
          -80 callsubr
          hintmask 10100111
          -55 callgsubr
          -161 -1483 -102 callsubr
          hintmask 01101011
          -70 callsubr
        </CharString>
        <CharString name="S">
          -40 34 callsubr
          hintmask 10110000
          -101 callsubr
          hintmask 11010000
          -91 callsubr
          hintmask 10110000
          -25 callsubr
          endchar
        </CharString>
        <CharString name="Sacute">
          -40 -30 callgsubr
          474 -20 hstemhm
          hintmask 10111000
          -101 callsubr
          hintmask 11011000
          -91 callsubr
          hintmask 10111000
          -25 callsubr
          -283 956 -105 callgsubr
        </CharString>
        <CharString name="Scaron">
          -40 -30 callgsubr
          473 -20 hstemhm
          hintmask 10111000
          -101 callsubr
          hintmask 11011000
          -91 callsubr
          hintmask 10111000
          -25 callsubr
          -597 621 -105 callsubr
        </CharString>
        <CharString name="Scedilla">
          -600 170 -170 488 -136 398 -190 34 callsubr
          916 291 hintmask 10010111
          -101 callsubr
          hintmask 10101011
          -91 callsubr
          hintmask 01010111
          -25 callsubr
          -812 -1169 19 callsubr
          hintmask 10100111
          -47 56 -7 90 77 36 -39 -48 -58 -41 -37 -72 -89 -134 49 38 -65 -40 callgsubr
          hintmask 01010111
          144 -97 82 -148 vhcurveto
          endchar
        </CharString>
        <CharString name="Scircumflex">
          -40 -30 callgsubr
          473 -20 hstemhm
          hintmask 10111000
          -101 callsubr
          hintmask 11011000
          -91 callsubr
          hintmask 10111000
          -25 callsubr
          -290 934 -106 callgsubr
        </CharString>
        <CharString name="Scommaaccent">
          -47 callgsubr
          69 34 callsubr
          hintmask 10101100
          -101 callsubr
          hintmask 10110100
          -91 callsubr
          hintmask 10101100
          -25 callsubr
          -969 -1461 -102 callsubr
          hintmask 01101100
          -70 callsubr
        </CharString>
        <CharString name="T">
          -14 callsubr
          hstemhm
          hintmask 10101000
          789 -40 -47 callsubr
          hintmask 01101000
          -64 -65 -19 -73 hhcurveto
          -125 -44 94 130 182 75 240 68 141 hvcurveto
          10 24 5 20 18 vvcurveto
          52 -41 26 -70 -109 -116 -7 -160 -159 vhcurveto
          -185 -187 -239 -325 -233 vvcurveto
          hintmask 10101000
          -235 208 -36 272 vhcurveto
          -414 1555 rmoveto
          -123 -33 -79 -316 16 callsubr
          38 90 54 67 163 vhcurveto
          77 186 311 34 182 209 219 -149 65 hhcurveto
          83 100 285 73 63 -47 25 -82 hvcurveto
          hintmask 10110000
          -37 -420 -60 -88 hhcurveto
          hintmask 10100100
          -25 callgsubr
          endchar
        </CharString>
        <CharString name="Tbar">
          -275 -40 275 -19 -20 439 181 -181 508 -104 6 callgsubr
          hstemhm
          hintmask 10101010
          312 816 rmoveto
          -45 -50 -49 -81 -51 21 -20 24 hvcurveto
          115 312 20 145 153 302 -24 callgsubr
          49 84 43 -12 25 -23 hvcurveto
          -108 -324 -20 -141 -128 -356 20 -102 hhcurveto
          477 -856 -47 callsubr
          hintmask 01010010
          -92 callsubr
          hintmask 10101100
          -37 -420 -60 -88 hhcurveto
          hintmask 10101001
          -25 callgsubr
          endchar
        </CharString>
        <CharString name="Tcaron">
          -14 callsubr
          545 -20 hstemhm
          hintmask 10101010
          789 -40 -47 callsubr
          hintmask 01101010
          -92 callsubr
          hintmask 10110010
          -37 -420 -60 -88 hhcurveto
          hintmask 10100110
          -25 callgsubr
          695 163 -105 callsubr
        </CharString>
        <CharString name="Tcommaaccent">
          -275 -47 callgsubr
          69 0 callsubr
          hstemhm
          hintmask 10101010
          789 -40 -47 callsubr
          hintmask 10011010
          -92 callsubr
          hintmask 10101100
          -37 -420 -60 -88 hhcurveto
          hintmask 10101001
          -25 callgsubr
          444 -1919 -102 callsubr
          hintmask 01101010
          -70 callsubr
        </CharString>
        <CharString name="Thorn">
          64 3 -21 27 -21 238 145 633 186 366 -20 hstemhm
          hintmask 10111000
          904 4 callgsubr
          -248 -101 -109 -133 hvcurveto
          -38 -31 -44 -43 -90 callsubr
          hintmask 01111000
          147 138 6 116 -43 callgsubr
          vvcurveto
          37 8 45 14 52 vhcurveto
          -21 107 106 -8 106 hhcurveto
          523 366 120 429 256 -206 159 -228 -109 -67 -12 -35 -80 hvcurveto
          -66 -29 -53 -40 -26 vvcurveto
          -25 37 -13 76 -6 vhcurveto
          134 -10 49 -84 -120 vvcurveto
          -306 -272 -113 -263 -40 -41 2 4 -41 vhcurveto
          107 310 216 431 218 vvcurveto
          -32 callsubr
          endchar
        </CharString>
        <CharString name="U">
          -49 callgsubr
          hstemhm
          hintmask 11000000
          -98 callsubr
          hintmask 10100000
          -92 callgsubr
          hintmask 10010000
          -103 callgsubr
          endchar
        </CharString>
        <CharString name="Uacute">
          -49 callgsubr
          534 -20 -100 callsubr
          540 1822 -105 callgsubr
        </CharString>
        <CharString name="Ubreve">
          -49 callgsubr
          129 -19 callgsubr
          hintmask 11001010
          -98 callsubr
          hintmask 10101010
          -92 callgsubr
          hintmask 10011010
          -103 callgsubr
          422 1720 rmoveto
          hintmask 11000100
          -84 callsubr
          hintmask 11001010
          -41 callsubr
        </CharString>
        <CharString name="Ucircumflex">
          -49 callgsubr
          533 -20 hstemhm
          1554 411 hintmask 11001100
          -98 callsubr
          hintmask 10101100
          -92 callgsubr
          hintmask 10011100
          -103 callgsubr
          533 1800 -106 callgsubr
        </CharString>
        <CharString name="Udieresis">
          -49 callgsubr
          125 379 hstemhm
          843 366 hintmask 11001100
          -98 callsubr
          hintmask 10101100
          -92 callgsubr
          hintmask 10011100
          -103 callgsubr
          -87 1450 -94 callsubr
        </CharString>
        <CharString name="Ugrave">
          -49 callgsubr
          120 414 -100 callsubr
          18 1859 -87 callsubr
        </CharString>
        <CharString name="Uhungarumlaut">
          -49 callgsubr
          91 443 -100 callsubr
          287 1825 -63 callsubr
          -24 17 -14 24 21 20 5 14 26 vhcurveto
          201 107 52 -14 -46 callsubr
        </CharString>
        <CharString name="Umacron">
          -49 callgsubr
          212 221 -100 callsubr
          -62 1758 -79 callsubr
        </CharString>
        <CharString name="Uogonek">
          241 676 0 85 206 endchar
        </CharString>
        <CharString name="Uring">
          241 -40 308 1255 -20 24 -20 28 125 -124 -20 383 141 hstemhm
          1047 162 -162 248 259 351 -250 250 hintmask 1101011010000000
          -98 callsubr
          hintmask 1011011010000000
          -92 callgsubr
          hintmask 1000110101000000
          -103 callgsubr
          129 1574 25 callsubr
          vhcurveto
          hintmask 1101010110000000
          -52 callgsubr
        </CharString>
        <CharString name="Utilde">
          -49 callgsubr
          149 258 -258 320 -280 319 -257 156 -93 callgsubr
          hintmask 10010100
          -103 callgsubr
          834 1627 -51 callsubr
          hintmask 11000001
          22 callsubr
          hintmask 11000010
          -66 callsubr
          hintmask 11000001
          23 callgsubr
          hintmask 11001000
          -45 callgsubr
        </CharString>
        <CharString name="V">
          70 -50 261 1304 -20 31 -20 31 -20 hstemhm
          hintmask 10100000
          367 1160 rmoveto
          -57 -128 -70 -170 -173 vvcurveto
          -375 228 -364 249 414 726 597 667 259 vhcurveto
          29 74 50 148 71 vvcurveto
          13 -12 6 -22 vhcurveto
          hintmask 11010000
          -46 -361 -11 -36 hhcurveto
          -58 -8 -8 -38 -5 -21 rrcurveto
          -580 -132 -472 -657 -151 hhcurveto
          -50 -28 145 89 309 69 218 249 422 hvcurveto
          11 19 5 16 16 vvcurveto
          76 -121 16 -151 -382 -341 -131 -81 -27 25 -23 43 -7 vhcurveto
          73 -12 79 -13 -51 vvcurveto
          -10 -2 -12 -4 -10 vhcurveto
          endchar
        </CharString>
        <CharString name="W">
          -21 callsubr
          hstemhm
          hintmask 10100000
          677 -50 rmoveto
          170 224 108 172 218 hvcurveto
          -167 44 79 -113 136 hhcurveto
          413 707 554 681 274 hvcurveto
          33 82 54 167 72 vvcurveto
          14 -12 6 -22 vhcurveto
          hintmask 11010000
          -46 -321 -11 -36 hhcurveto
          -36 -23 -26 -41 -12 hvcurveto
          -768 -225 -419 -469 -151 hhcurveto
          -67 -4 103 83 249 327 403 93 434 hvcurveto
          hintmask 10100000
          16 -10 7 -24 vhcurveto
          hintmask 11010000
          -46 -341 -11 -36 hhcurveto
          -58 -8 -9 -38 -4 -21 rrcurveto
          -610 -132 -412 -607 -151 hhcurveto
          -50 -28 145 89 309 65 219 253 420 hvcurveto
          11 19 5 16 16 vvcurveto
          76 -121 16 -151 -382 -341 -131 -81 -27 25 -23 43 -7 vhcurveto
          73 -12 79 -13 -51 vvcurveto
          -10 -2 -12 -4 -10 vhcurveto
          -57 -128 -70 -169 -173 vvcurveto
          -375 228 -364 249 vhcurveto
          endchar
        </CharString>
        <CharString name="Wacute">
          -21 callsubr
          534 -20 -104 callgsubr
          1413 2063 -105 callgsubr
        </CharString>
        <CharString name="Wcircumflex">
          -21 callsubr
          533 -20 -104 callgsubr
          1406 2041 -106 callgsubr
        </CharString>
        <CharString name="Wdieresis">
          -21 callsubr
          125 379 -104 callgsubr
          786 1691 -94 callsubr
        </CharString>
        <CharString name="Wgrave">
          -21 callsubr
          120 414 -104 callgsubr
          891 2100 -87 callsubr
        </CharString>
        <CharString name="X">
          -101 -19 -21 35 -21 1293 309 -12 -20 hstemhm
          hintmask 01100000
          1855 118 rmoveto
          69 -56 -4 -72 14 vhcurveto
          -84 17 -44 35 -29 54 -92 171 -200 464 -97 302 rrcurveto
          230 -74 -99 106 -198 hhcurveto
          -373 -285 -167 -98 -27 23 -17 37 hvcurveto
          41 35 8 38 hhcurveto
          92 44 -19 -83 32 hvcurveto
          43 -110 62 -152 73 -190 -197 -159 -178 -90 -257 -108 rrcurveto
          -44 -19 -14 -48 -34 vvcurveto
          -67 72 -222 77 122 248 298 299 227 vhcurveto
          33 -89 35 -96 35 -102 rrcurveto
          hintmask 10010000
          -288 99 208 -36 235 hhcurveto
          151 103 17 37 103 hvcurveto
          76 27 49 35 42 vvcurveto
          23 1446 rmoveto
          -152 -255 -274 -223 -125 hvcurveto
          -13 -23 -9 -19 -20 vvcurveto
          -34 20 -23 33 17 19 5 8 17 vhcurveto
          198 93 132 35 198 35 rrcurveto
          46 8 17 38 45 vvcurveto
          219 -53 130 -90 vhcurveto
          endchar
        </CharString>
        <CharString name="Y">
          -34 callsubr
          hstemhm
          hintmask 11100000
          852 -296 rmoveto
          -28 -38 -96 -78 -45 vvcurveto
          -33 34 -20 65 370 282 107 524 206 vhcurveto
          80 202 205 754 110 259 rrcurveto
          19 46 18 21 27 vvcurveto
          57 -76 36 -67 vhcurveto
          hintmask 11010000
          -50 -115 3 -105 hhcurveto
          -120 -66 -8 -51 -12 hvcurveto
          -97 -401 -120 -400 -124 -328 rrcurveto
          -20 -62 -75 -15 -62 hhcurveto
          -93 -77 34 100 hvcurveto
          221 343 629 140 vvcurveto
          hintmask 11001000
          74 -72 35 -111 -425 -238 -112 -88 -27 25 -23 43 -7 vhcurveto
          73 -12 49 -23 -51 vvcurveto
          -8 -1 -11 -3 -9 vhcurveto
          -26 -86 -244 -447 -245 vvcurveto
          -240 196 -100 194 199 196 83 92 125 vhcurveto
          -91 -225 -91 -183 -85 -110 rrcurveto
          endchar
        </CharString>
        <CharString name="Yacute">
          -34 callsubr
          534 -20 -91 callgsubr
          750 2309 -105 callgsubr
        </CharString>
        <CharString name="Ycircumflex">
          -34 callsubr
          533 -20 -91 callgsubr
          743 2287 -106 callgsubr
        </CharString>
        <CharString name="Ydieresis">
          -34 callsubr
          125 379 hstemhm
          739 400 hintmask 11100110
          852 -296 rmoveto
          -28 -38 -96 -78 -45 vvcurveto
          -33 34 -20 65 370 282 107 524 206 vhcurveto
          80 202 205 754 110 259 rrcurveto
          19 46 18 21 27 vvcurveto
          57 -76 36 -67 vhcurveto
          hintmask 11010110
          -50 -115 3 -105 hhcurveto
          -120 -66 -8 -51 -12 hvcurveto
          -97 -401 -120 -400 -124 -328 rrcurveto
          -20 -62 -75 -15 -62 hhcurveto
          -93 -77 34 100 hvcurveto
          221 343 629 140 vvcurveto
          hintmask 11001110
          74 -72 35 -111 -425 -238 -112 -88 -27 25 -23 43 -7 vhcurveto
          73 -12 49 -23 -51 vvcurveto
          -8 -1 -11 -3 -9 vhcurveto
          -26 -86 -244 -447 -245 vvcurveto
          -240 196 -100 194 199 196 83 92 125 vhcurveto
          -91 -225 -91 -183 -85 -110 rrcurveto
          123 1937 -94 callsubr
        </CharString>
        <CharString name="Ygrave">
          -34 callsubr
          120 414 -91 callgsubr
          228 2346 -87 callsubr
        </CharString>
        <CharString name="Z">
          -38 251 -251 494 -475 -21 1086 463 38 -20 hstemhm
          hintmask 01011000
          1697 456 rmoveto
          hintmask 10011000
          -50 -340 -229 -14 -480 hvcurveto
          285 192 753 604 35 247 rrcurveto
          10 1 0 0 vhcurveto
          140 -334 141 -111 -68 -43 -49 -74 -35 vhcurveto
          -156 -329 -1177 -744 -200 vvcurveto
          -38 23 -17 41 -19 vhcurveto
          -48 102 229 -67 106 hhcurveto
          62 57 35 91 102 hvcurveto
          hintmask 00111000
          -87 199 282 -41 148 hhcurveto
          211 62 40 58 36 hvcurveto
          39 63 88 187 93 vvcurveto
          hintmask 01011000
          42 -30 13 -37 vhcurveto
          -553 946 rmoveto
          86 -218 21 -182 -84 -84 -6 -14 -69 vhcurveto
          -123 -25 -81 -211 -119 vvcurveto
          -49 11 -39 44 108 138 158 93 408 vhcurveto
          67 15 65 26 64 vvcurveto
          endchar
        </CharString>
        <CharString name="Zacute">
          20 callsubr
          503 hstemhm
          hintmask 10110000
          1697 456 rmoveto
          37 30 -13 -42 -93 -88 -187 -39 -63 hvcurveto
          -58 -36 -62 -40 -211 hhcurveto
          -148 -282 41 87 -199 hvcurveto
          hintmask 01110000
          -91 -102 -57 -35 -62 hhcurveto
          -106 -229 67 48 -102 hvcurveto
          -41 19 -23 17 38 vvcurveto
          200 1177 744 156 329 vhcurveto
          74 35 43 49 68 hhcurveto
          111 334 -141 -140 hvcurveto
          0 -1 0 -10 vvcurveto
          hintmask 10110000
          -35 -247 -753 -604 -285 -192 rrcurveto
          14 480 340 229 50 hhcurveto
          -553 946 rmoveto
          -64 -65 -26 -67 -15 vhcurveto
          -93 -408 -138 -158 -108 hhcurveto
          -44 -11 39 49 119 81 211 123 25 hvcurveto
          14 69 84 6 84 hhcurveto
          182 218 -21 -86 hvcurveto
          328 611 -105 callgsubr
        </CharString>
        <CharString name="Zcaron">
          20 callsubr
          -20 522 -20 -74 callsubr
          14 276 -105 callsubr
        </CharString>
        <CharString name="Zdotaccent">
          20 callsubr
          -20 134 383 -74 callsubr
          15 259 -89 callsubr
        </CharString>
        <CharString name="a">
          -40 -12 callgsubr
          hstemhm
          hintmask 01110000
          -75 callgsubr
          hintmask 10101000
          -59 callsubr
          hintmask 10110000
          -79 callgsubr
          endchar
        </CharString>
        <CharString name="aacute">
          -40 -12 callgsubr
          703 -20 hstemhm
          hintmask 01110100
          -75 callgsubr
          hintmask 10101100
          -59 callsubr
          hintmask 10110100
          -79 callgsubr
          -716 1516 -94 callgsubr
        </CharString>
        <CharString name="abreve">
          604 0 97 198 endchar
        </CharString>
        <CharString name="acircumflex">
          560 0 97 195 endchar
        </CharString>
        <CharString name="acute">
          40 callsubr
          743 1712 -94 callgsubr
        </CharString>
        <CharString name="acute.cap">
          -753 1662 -21 409 -20 hstem
          660 2013 -105 callgsubr
        </CharString>
        <CharString name="adieresis">
          597 0 97 200 endchar
        </CharString>
        <CharString name="ae">
          572 -40 175 -175 254 71 -20 649 117 -117 147 30 -20 hstemhm
          2034 471 hintmask 10101110
          2693 192 rmoveto
          43 25 6 15 19 vvcurveto
          27 -19 7 -16 -14 -12 -4 -5 -15 vhcurveto
          -71 -222 -249 -70 -204 hhcurveto
          -144 -172 41 161 -18 hvcurveto
          480 35 368 104 289 vvcurveto
          175 -141 121 -344 -100 -95 -11 -20 -89 vhcurveto
          2 -125 -180 59 -94 hhcurveto
          -66 -31 -20 -30 hvcurveto
          -12 1 -12 -13 vvcurveto
          hintmask 01110110
          -417 -227 -373 -227 -86 -59 66 97 220 167 201 182 77 vhcurveto
          113 48 21 14 35 vvcurveto
          37 -36 22 -140 -522 -346 -311 -358 -334 241 -68 250 301 152 151 149 120 vhcurveto
          -192 40 158 -108 402 hhcurveto
          510 355 183 49 83 hvcurveto
          -1035 255 rmoveto
          219 18 109 248 162 hhcurveto
          51 36 -31 -50 -193 -153 -131 -223 -62 hvcurveto
          endchar
        </CharString>
        <CharString name="aeacute">
          572 965 0 241 194 endchar
        </CharString>
        <CharString name="agrave">
          487 0 97 193 endchar
        </CharString>
        <CharString name="amacron">
          553 0 97 197 endchar
        </CharString>
        <CharString name="ampersand">
          195 -54 -21 35 246 1303 137 hstem
          56 499 842 239 vstem
          1636 1327 rmoveto
          235 -214 84 -252 -323 -286 -160 -334 -103 29 -112 47 -113 vhcurveto
          -425 -132 -156 -187 -220 vvcurveto
          -225 218 -100 246 202 230 63 97 167 vhcurveto
          58 -61 54 -50 45 -36 rrcurveto
          -27 33 40 -21 49 hhcurveto
          124 261 98 61 154 hvcurveto
          42 17 25 19 33 vvcurveto
          22 -6 25 -33 26 vhcurveto
          -192 149 -329 268 -164 288 rrcurveto
          202 85 154 117 194 vvcurveto
          594 -366 rmoveto
          118 -170 45 -87 -33 -27 -13 -33 -9 vhcurveto
          -49 -170 -38 -98 -96 -148 rrcurveto
          -14 -21 -13 -22 -24 vvcurveto
          -29 24 -9 25 16 16 4 9 19 vhcurveto
          206 97 230 153 141 vvcurveto
          -1218 -723 rmoveto
          -20 -70 -74 -12 -68 hhcurveto
          -136 -109 41 144 118 58 91 94 79 hvcurveto
          85 -158 111 -154 109 -129 rrcurveto
          170 1014 rmoveto
          163 52 94 73 47 43 -28 -108 -119 -70 -95 -114 -82 vhcurveto
          -20 59 -11 58 58 vvcurveto
          endchar
        </CharString>
        <CharString name="aogonek">
          -542 158 344 -12 callgsubr
          hstemhm
          861 381 hintmask 10111010
          -75 callgsubr
          hintmask 11010110
          -59 callsubr
          hintmask 11011010
          -79 callgsubr
          -571 -100 rmoveto
          -69 callgsubr
          127 123 96 47 hvcurveto
          endchar
        </CharString>
        <CharString name="approxequal">
          -503 245 214 -194 -20 106 213 104 214 -108 213 hstemhm
          hintmask 10010000
          1080 882 rmoveto
          hintmask 10001000
          -34 callgsubr
          hhcurveto
          hintmask 10010000
          -26 callgsubr
          -71 -102 -85 -58 hhcurveto
          -113 -423 rmoveto
          hintmask 01110000
          -34 callgsubr
          -26 callgsubr
          hintmask 10010000
          -71 -102 -85 -58 hhcurveto
          endchar
        </CharString>
        <CharString name="aring">
          620 0 97 202 endchar
        </CharString>
        <CharString name="asciicircum">
          -503 55 -21 1019 -20 hstem
          1008 72 rmoveto
          -20 6 26 -18 32 hhcurveto
          56 106 79 53 5 -2 4 -2 4 hvcurveto
          -101 269 -114 308 -89 256 rrcurveto
          25 -9 -50 16 -40 hhcurveto
          -45 -34 -35 -55 -35 hvcurveto
          -168 -264 -180 -260 -201 -275 rrcurveto
          -4 -6 -1 -5 -6 vvcurveto
          -37 80 -76 47 30 40 14 28 16 vhcurveto
          98 180 179 272 160 223 68 -218 64 -220 67 -241 rrcurveto
          endchar
        </CharString>
        <CharString name="asciitilde">
          -503 445 214 -108 213 hstemhm
          hintmask 10000000
          1021 659 rmoveto
          hintmask 01000000
          -34 callgsubr
          hhcurveto
          hintmask 10000000
          -26 callgsubr
          -71 -102 -85 -58 hhcurveto
          endchar
        </CharString>
        <CharString name="asterisk">
          -667 612 -21 423 256 404 -20 hstem
          790 276 vstem
          329 1256 rmoveto
          73 -72 159 -69 120 -26 -47 -25 -61 -34 -82 -41 rrcurveto
          -119 -60 -41 -35 -83 vvcurveto
          -55 35 -83 40 12 14 4 9 16 vhcurveto
          102 58 152 145 81 109 rrcurveto
          3 -57 4 -78 -89 vvcurveto
          -174 40 -9 86 64 86 28 66 80 -80 188 -76 103 vhcurveto
          -11 97 137 -31 82 hhcurveto
          94 76 107 92 29 -13 25 -44 2 hvcurveto
          1 -11 -12 0 -13 hhcurveto
          -108 -159 -35 -46 -111 hvcurveto
          28 47 36 65 53 85 rrcurveto
          36 58 38 66 40 vvcurveto
          56 -112 68 -49 -24 -23 -12 -33 -19 vhcurveto
          -62 -113 -46 -195 -4 -131 -47 44 -71 59 -71 77 rrcurveto
          71 -66 -27 15 -46 hhcurveto
          -68 -73 -107 -51 -15 7 -14 14 -13 hvcurveto
          endchar
        </CharString>
        <CharString name="at">
          979 -430 129 261 174 -174 254 646 201 -21 -20 290 144 hstemhm
          162 145 2371 147 hintmask 11001111
          2112 221 rmoveto
          154 242 440 175 vvcurveto
          22 -14 28 -38 vhcurveto
          hintmask 11010111
          -126 -236 21 -96 hhcurveto
          -66 -31 -20 -30 hvcurveto
          -12 1 -12 -13 vvcurveto
          -8 0 -9 -1 -8 vhcurveto
          63 -71 -123 49 -169 hhcurveto
          -512 -284 -379 -336 -281 233 -105 229 232 141 98 58 57 hvcurveto
          -126 57 159 -30 214 hhcurveto
          533 382 208 532 449 -477 305 -710 -942 -534 -478 -600 -592 514 -214 681 476 498 97 191 372 hvcurveto
          -34 85 rlineto
          -159 -354 -487 -85 -459 hhcurveto
          -586 -476 174 512 505 456 420 838 716 361 -236 -386 -344 -187 -210 -265 -86 -28 30 57 hvcurveto
          -943 156 rmoveto
          220 199 263 -43 callsubr
          hintmask 10110111
          -245 -107 -125 -43 -82 hhcurveto
          -86 -59 66 97 hvcurveto
          endchar
        </CharString>
        <CharString name="atilde">
          -40 -12 callgsubr
          231 -15 callgsubr
          hintmask 0111010000000000
          -75 callgsubr
          hintmask 1010110000000000
          -59 callsubr
          hintmask 1011001000000000
          -79 callgsubr
          -354 1228 -51 callsubr
          hintmask 1011000010000000
          -71 -102 -86 -59 hhcurveto
          hintmask 1011000100000000
          -45 callsubr
          hintmask 1011000010000000
          71 102 86 59 hhcurveto
          hintmask 1011010000000000
          -23 callgsubr
        </CharString>
        <CharString name="b">
          -21 182 -180 -21 325 -20 542 254 423 -20 hstemhm
          hintmask 10111000
          47 96 rmoveto
          -68 78 -49 90 68 199 59 40 117 vhcurveto
          hintmask 01111000
          -77 92 162 -41 117 hhcurveto
          25 26 2 2 25 hvcurveto
          445 2 386 119 159 111 rrcurveto
          19 14 16 18 23 vvcurveto
          22 -16 12 -23 -16 -11 -4 -11 -20 vhcurveto
          -93 -51 -177 -58 -243 -21 rrcurveto
          166 134 109 193 204 vvcurveto
          274 -158 116 -259 -191 -171 -76 -132 -115 vhcurveto
          -1 -1 rlineto
          94 250 90 247 18 callgsubr
          -13 1 -12 -13 -298 -379 -917 -82 vvcurveto
          1148 548 rmoveto
          hintmask 10111000
          -48 callgsubr
          endchar
        </CharString>
        <CharString name="backslash">
          -941 -198 -21 1854 -20 hstem
          465 1570 rmoveto
          36 -7 -30 29 -42 hhcurveto
          -43 -25 -35 -38 -6 1 -5 1 -6 hvcurveto
          333 -1699 rlineto
          -36 7 30 -29 42 hhcurveto
          42 26 33 39 6 -1 6 -1 6 hvcurveto
          endchar
        </CharString>
        <CharString name="bar">
          41 callgsubr
          141 -509 rmoveto
          -3 -8 -1 -9 -7 vvcurveto
          -38 30 -28 40 42 27 30 35 10 vhcurveto
          622 2154 rlineto
          2 8 0 7 7 vvcurveto
          39 -24 29 -44 -42 -27 -30 -35 -10 vhcurveto
          endchar
        </CharString>
        <CharString name="braceleft">
          -789 -231 142 -142 171 1586 -20 40 148 3 -20 hstemhm
          255 375 -189 371 hintmask 01110100
          526 -221 rmoveto
          153 52 -10 122 2 callgsubr
          25 -23 hvcurveto
          hintmask 10110100
          -38 -84 -29 -41 hhcurveto
          -90 -30 40 57 hvcurveto
          hintmask 10110010
          73 182 456 81 vvcurveto
          104 -207 35 -91 4 vhcurveto
          114 2 226 16 25 120 rrcurveto
          569 113 12 78 167 37 58 -20 48 38 callsubr
          hvcurveto
          hintmask 10101100
          43 -12 25 -23 vhcurveto
          hintmask 10110010
          -119 -141 -3 -148 hhcurveto
          -304 42 -109 -666 -176 hvcurveto
          -32 -121 -217 52 -38 -60 rrcurveto
          -10 -16 -5 -19 -20 vvcurveto
          -51 23 -8 79 77 36 -5 -53 vhcurveto
          hintmask 10110100
          -160 -186 -389 -146 vvcurveto
          -108 83 -36 188 vhcurveto
          endchar
        </CharString>
        <CharString name="braceright">
          -789 -228 148 -130 -21 1757 171 -142 142 hstemhm
          507 371 -189 375 hintmask 10100100
          793 1687 rmoveto
          -153 -52 10 15 callgsubr
          hintmask 10010100
          38 84 29 41 hhcurveto
          90 30 -40 -57 hvcurveto
          hintmask 10101000
          -73 -182 -456 -81 vvcurveto
          -104 207 -35 91 -4 vhcurveto
          -114 -2 -226 -16 -25 -120 rrcurveto
          -569 -113 -12 -78 -167 -37 -58 20 -48 hhcurveto
          -47 -48 -19 -84 hvcurveto
          hintmask 01100100
          -43 12 -25 23 vhcurveto
          hintmask 10101000
          119 141 3 148 hhcurveto
          304 -42 109 666 176 hvcurveto
          32 121 217 -52 38 60 rrcurveto
          10 16 5 19 20 vvcurveto
          51 -23 8 -79 -77 -36 5 53 vhcurveto
          hintmask 10100100
          160 186 389 146 vvcurveto
          108 -83 36 -188 vhcurveto
          endchar
        </CharString>
        <CharString name="bracketleft">
          -789 -221 141 -130 -21 1757 171 -152 -20 21 -20 hstemhm
          hintmask 01100000
          748 1697 rmoveto
          -52 -36 -26 -72 -14 hvcurveto
          -58 -298 -419 -1169 -298 vvcurveto
          -42 16 -23 22 vhcurveto
          hintmask 10100000
          115 72 10 145 hhcurveto
          hintmask 01100000
          153 52 -10 122 2 callgsubr
          25 -23 hvcurveto
          hintmask 10010000
          -108 -74 -20 -141 hhcurveto
          -23 -23 1 1 -22 hvcurveto
          104 436 233 870 118 317 rrcurveto
          hintmask 10001000
          8 30 1 22 70 85 -24 callgsubr
          19 84 hvcurveto
          hintmask 10100000
          43 -12 25 -23 vhcurveto
          -108 -84 -10 -141 -128 -76 10 -102 hhcurveto
          endchar
        </CharString>
        <CharString name="bracketright">
          -790 -231 171 1586 -20 40 141 10 -20 hstemhm
          hintmask 11010000
          672 -231 rmoveto
          52 36 26 72 14 hvcurveto
          58 298 419 1169 298 vvcurveto
          42 -16 23 -22 vhcurveto
          hintmask 11100000
          -115 -72 -10 -145 hhcurveto
          hintmask 11010000
          -153 -52 10 15 callgsubr
          hintmask 11100000
          108 74 20 141 hhcurveto
          23 23 -1 -1 22 hvcurveto
          -104 -436 -233 -870 -118 -317 rrcurveto
          -8 -30 -1 -22 -70 -85 20 15 callgsubr
          108 84 10 141 128 76 -10 102 hhcurveto
          endchar
        </CharString>
        <CharString name="breve">
          -753 1236 16 callgsubr
          hintmask 10100000
          615 1502 rmoveto
          hintmask 01000000
          -64 callgsubr
          hintmask 10100000
          -9 callgsubr
        </CharString>
        <CharString name="breve.cap">
          -753 1580 -19 callgsubr
          hintmask 10100000
          613 1846 rmoveto
          hintmask 01000000
          -84 callsubr
          hintmask 10100000
          -41 callsubr
        </CharString>
        <CharString name="brokenbar">
          41 callgsubr
          398 374 rmoveto
          -257 -883 rlineto
          -3 -9 -1 -8 -7 vvcurveto
          -39 30 -27 40 42 27 30 35 10 vhcurveto
          264 908 rlineto
          112 405 rmoveto
          246 841 rlineto
          3 9 1 8 7 vvcurveto
          39 -30 27 -40 -42 -27 -30 -35 -10 vhcurveto
          -253 -866 rlineto
          endchar
        </CharString>
        <CharString name="bullet">
          -617 502 -21 605 -20 hstem
          668 481 rmoveto
          259 251 160 191 142 -139 112 -203 -256 -254 -161 -194 -143 141 -107 201 hvcurveto
          endchar
        </CharString>
        <CharString name="c">
          3 callgsubr
          hstemhm
          hintmask 11010000
          9 callsubr
          hintmask 11100000
          -76 callsubr
          hintmask 11010000
          190 86 298 229 vhcurveto
          endchar
        </CharString>
        <CharString name="cacute">
          -445 488 0 99 194 endchar
        </CharString>
        <CharString name="caron">
          40 callgsubr
          396 1256 -73 callsubr
        </CharString>
        <CharString name="caron.cap">
          39 callsubr
          394 1678 -105 callsubr
        </CharString>
        <CharString name="ccaron">
          -445 501 0 99 207 endchar
        </CharString>
        <CharString name="ccedilla">
          -445 191 0 99 203 endchar
        </CharString>
        <CharString name="ccircumflex">
          3 callgsubr
          666 -20 hstemhm
          hintmask 11011000
          9 callsubr
          hintmask 11101000
          -76 callsubr
          hintmask 11011000
          190 86 298 229 vhcurveto
          343 782 -95 callsubr
        </CharString>
        <CharString name="cdotaccent">
          3 callgsubr
          163 423 hstemhm
          hintmask 11011000
          9 callsubr
          hintmask 11101000
          -76 callsubr
          hintmask 11011000
          190 86 298 229 vhcurveto
          49 337 -74 callgsubr
        </CharString>
        <CharString name="cedilla">
          -753 -600 170 -170 488 212 -20 hstemhm
          722 291 hintmask 01110000
          768 -112 19 callsubr
          -47 56 -7 90 77 36 -39 -48 vhcurveto
          hintmask 10110000
          -58 -41 -37 -72 -89 -134 49 38 -65 -40 callgsubr
          hintmask 01110000
          144 -97 82 -148 vhcurveto
          endchar
        </CharString>
        <CharString name="cedilla.cap">
          -753 -600 171 -171 488 212 -20 hstemhm
          706 307 hintmask 01110000
          768 -112 rmoveto
          -69 -57 -16 -24 -62 hvcurveto
          109 217 -72 35 rlineto
          -99 -84 -111 -162 -48 vvcurveto
          -47 56 -7 90 101 52 -29 -57 vhcurveto
          hintmask 10110000
          -71 -50 -24 -66 -91 -114 49 37 -64 -40 callgsubr
          hintmask 01110000
          144 -97 82 -148 vhcurveto
          endchar
        </CharString>
        <CharString name="cent">
          -238 -263 -21 1537 -20 hstem
          1079 1193 rmoveto
          -14 -26 -17 -47 -19 -60 rrcurveto
          -463 -18 -425 -254 -406 vvcurveto
          -244 181 -166 442 -11 vhcurveto
          -20 -97 -11 -68 -18 vvcurveto
          24 callsubr
          51 184 308 3 134 24 59 36 rlinecurve
          44 27 35 309 21 vvcurveto
          22 -19 14 -19 -14 -12 -2 -12 -14 vhcurveto
          -148 -127 -172 -146 -139 -13 63 229 81 297 61 229 116 -30 114 -78 82 -114 rrcurveto
          -12 9 9 -5 12 hhcurveto
          38 76 163 151 20 -8 9 -23 10 hvcurveto
          -84 36 -110 29 -182 8 rrcurveto
          11 42 16 48 40 vvcurveto
          25 callgsubr
          -369 -792 rmoveto
          183 77 258 191 40 vhcurveto
          -59 -218 -67 -284 -48 -227 rrcurveto
          -63 52 -31 97 99 vvcurveto
          endchar
        </CharString>
        <CharString name="circumflex">
          40 callgsubr
          833 1669 -95 callsubr
        </CharString>
        <CharString name="circumflex.cap">
          39 callsubr
          831 1991 -106 callgsubr
        </CharString>
        <CharString name="colon">
          -784 -56 485 215 485 hstem
          470 -56 -77 callgsubr
          192 700 -77 callgsubr
          endchar
        </CharString>
        <CharString name="comma">
          -784 -370 -21 354 466 hstem
          554 -29 callsubr
          endchar
        </CharString>
        <CharString name="commaaccent">
          -753 -47 callgsubr
          hstemhm
          hintmask 10000000
          662 -404 -102 callsubr
          hintmask 01000000
          -70 callsubr
        </CharString>
        <CharString name="commaaccent.cap">
          -753 -47 callgsubr
          hstemhm
          hintmask 10000000
          662 -404 -102 callsubr
          hintmask 01000000
          -70 callsubr
        </CharString>
        <CharString name="copyright">
          208 -130 119 300 156 -156 210 764 97 255 115 hstemhm
          265 115 258 382 306 363 -240 240 317 119 hintmask 1101111011000000
          1370 1263 rmoveto
          42 37 -7 -42 hvcurveto
          hintmask 1011111101000000
          -59 -123 -254 -37 vvcurveto
          -59 77 -18 43 164 79 143 140 177 -112 113 -216 -317 -406 -326 -369 -229 183 -147 275 210 260 105 84 16 -14 5 -19 vhcurveto
          hintmask 1101111101000000
          -53 -73 -54 -161 hhcurveto
          -161 -65 109 139 247 211 323 139 hvcurveto
          -1105 -463 -42 callgsubr
          endchar
        </CharString>
        <CharString name="currency">
          88 228 -154 154 794 154 -154 209 hstemhm
          214 432 -283 283 -215 215 690 214 -214 277 -277 426 hintmask 1010001100000000
          431 598 rmoveto
          -74 12 -67 25 -58 vhcurveto
          -79 -42 -54 -32 -78 -50 rrcurveto
          hintmask 1010100100000000
          -25 -16 -18 -19 -35 vvcurveto
          -46 44 -71 41 15 13 5 6 10 vhcurveto
          76 48 64 44 95 71 rrcurveto
          hintmask 0110100100000000
          -64 79 111 -36 145 hhcurveto
          133 123 37 66 102 hvcurveto
          75 -73 50 -44 64 -49 rrcurveto
          hintmask 1010100010000000
          -6 8 11 -5 15 hhcurveto
          56 69 101 39 22 -9 12 -16 13 hvcurveto
          -63 50 -45 32 -67 43 rrcurveto
          hintmask 1010100100000000
          86 110 51 142 165 vvcurveto
          72 -13 65 -24 57 vhcurveto
          77 40 53 32 76 49 rrcurveto
          hintmask 1001100001000000
          25 16 18 19 35 vvcurveto
          45 -44 72 -41 -15 -13 -5 -6 -10 vhcurveto
          -74 -47 -63 -43 -89 -67 rrcurveto
          hintmask 1010100100000000
          72 -82 -115 41 -141 hhcurveto
          -148 -127 -42 -71 -100 hvcurveto
          -70 67 -48 43 -60 47 rrcurveto
          hintmask 1001010100000000
          6 -8 -11 5 -15 hhcurveto
          -56 -69 -102 -38 -22 8 -12 17 -13 hvcurveto
          61 -50 44 -31 65 -41 rrcurveto
          hintmask 1010001100000000
          -83 -115 -44 -144 -153 vvcurveto
          621 512 rmoveto
          195 89 -122 -179 -276 -152 -217 -254 -196 -88 122 178 248 138 246 268 hvcurveto
          endchar
        </CharString>
        <CharString name="d">
          23 callsubr
          hintmask 10111000
          523 -40 -97 callgsubr
          hintmask 01111000
          -245 -107 -125 -43 -82 hhcurveto
          -86 -59 66 97 hvcurveto
          endchar
        </CharString>
        <CharString name="dagger">
          -505 -413 -21 1242 208 697 -20 hstem
          421 857 rmoveto
          34 callgsubr
          53 77 9 1 108 vhcurveto
          -331 -1149 rlineto
          27 callsubr
          337 1168 rlineto
          -2 41 38 -1 44 hhcurveto
          54 24 0 5 48 hvcurveto
          98 10 3 85 68 vvcurveto
          -4 callgsubr
          -54 -77 -9 -1 -107 vhcurveto
          175 604 rlineto
          2 8 0 7 7 vvcurveto
          32 -42 39 -53 -48 -50 -18 -50 -14 vhcurveto
          -180 -624 rlineto
          2 -41 -40 2 -43 hhcurveto
          -54 -24 0 -5 -48 hvcurveto
          -98 -10 -3 -85 -68 vvcurveto
          endchar
        </CharString>
        <CharString name="daggerdbl">
          -505 -413 -21 715 -20 21 217 300 217 697 -20 hstem
          379 -341 rmoveto
          27 callsubr
          188 651 rlineto
          -2 42 39 -1 45 hhcurveto
          54 24 0 5 48 hvcurveto
          98 10 3 85 68 vvcurveto
          -4 callgsubr
          vhcurveto
          -54 -78 -10 -109 hhcurveto
          88 303 rlineto
          -2 41 38 -1 44 hhcurveto
          54 24 0 5 48 hvcurveto
          98 10 3 85 68 vvcurveto
          -4 callgsubr
          -54 -77 -9 -1 -107 vhcurveto
          175 604 rlineto
          2 8 0 7 7 vvcurveto
          32 -42 39 -53 -48 -50 -18 -50 -14 vhcurveto
          -180 -624 rlineto
          2 -41 -40 2 -43 hhcurveto
          -54 -24 0 -5 -48 hvcurveto
          -98 -10 -3 -85 16 callsubr
          53 77 9 1 108 vhcurveto
          -87 -304 rlineto
          2 -40 -39 2 -42 hhcurveto
          -54 -24 0 -5 -48 hvcurveto
          -98 -10 -3 -85 16 callsubr
          53 76 9 1 106 vhcurveto
          endchar
        </CharString>
        <CharString name="dcaron">
          -23 23 callsubr
          1905 354 hintmask 10111100
          1905 832 -37 callgsubr
          -1382 -872 -97 callgsubr
          hintmask 01111100
          -245 -107 -125 -43 -82 hhcurveto
          -86 -59 66 97 hvcurveto
          endchar
        </CharString>
        <CharString name="dcroat">
          23 callsubr
          hintmask 10111000
          1155 1341 rmoveto
          2 -6 -6 1 -7 hhcurveto
          -43 -71 -55 -78 -28 15 -15 15 -7 hvcurveto
          111 -31 209 -39 139 -39 148 -42 188 -75 118 -34 rrcurveto
          -2 6 6 0 6 hhcurveto
          46 70 59 80 20 -8 14 -13 6 hvcurveto
          -104 30 -221 43 -135 38 -124 35 -241 90 -98 27 rrcurveto
          -632 -1381 -97 callgsubr
          hintmask 01111000
          -245 -107 -125 -43 -82 hhcurveto
          -86 -59 66 97 hvcurveto
          endchar
        </CharString>
        <CharString name="degree">
          -805 1201 203 445 201 hstem
          419 205 449 204 vstem
          883 1849 rmoveto
          112 78 -83 -107 -138 -126 -117 -133 -112 -78 80 108 139 126 118 133 hvcurveto
          394 -159 rmoveto
          204 -152 156 -212 -254 -240 -201 -288 -203 153 -157 211 267 227 219 270 vhcurveto
          endchar
        </CharString>
        <CharString name="dieresis">
          -753 1216 399 hstem
          199 1216 -88 callsubr
        </CharString>
        <CharString name="dieresis.cap">
          -753 1641 379 hstem
          189 1641 -94 callsubr
        </CharString>
        <CharString name="divide">
          -503 59 332 94 208 94 332 hstemhm
          464 467 -297 467 cntrmask 11100000
          hintmask 11101000
          244 534 rmoveto
          34 callgsubr
          vhcurveto
          -16 callgsubr
          140 176 -9 102 hhcurveto
          54 24 0 5 48 hvcurveto
          98 10 3 85 68 vvcurveto
          -4 callgsubr
          vhcurveto
          -17 callsubr
          -76 callgsubr
          577 253 rmoveto
          12 callgsubr
          -170 -728 rmoveto
          hintmask 11110000
          12 callgsubr
          endchar
        </CharString>
        <CharString name="dollar">
          -272 422 -185 185 -169 -21 1419 197 -197 395 hstemhm
          hintmask 10001000
          1658 1091 rmoveto
          -11 10 8 -3 13 hhcurveto
          76 131 265 81 29 -7 15 -23 10 hvcurveto
          -111 47 -144 28 -150 13 4 15 rcurveline
          11 42 16 48 40 vvcurveto
          25 callgsubr
          -13 -24 -18 -49 -21 -67 rrcurveto
          hintmask 10010000
          1 -32 -32 1 -31 hhcurveto
          -47 -45 -2 -4 -45 hvcurveto
          3 10 rlineto
          11 42 16 48 40 vvcurveto
          hintmask 10001000
          25 callgsubr
          -15 -27 -20 -60 -25 -82 rrcurveto
          -343 -72 -241 -198 -265 vvcurveto
          -169 164 -151 161 -131 vhcurveto
          -29 -121 -27 -118 -24 -105 rrcurveto
          79 -161 -124 121 -50 hhcurveto
          -50 -107 -241 -56 -19 9 -13 16 -8 hvcurveto
          52 -28 166 -41 198 -25 rrcurveto
          -22 -102 -12 -71 -21 vvcurveto
          24 callsubr
          6 24 19 66 25 92 rrcurveto
          hintmask 00101000
          -7 74 76 -4 75 hhcurveto
          37 hlineto
          -19 -89 -10 -61 -20 vvcurveto
          hintmask 10001000
          24 callsubr
          hintmask 01001000
          49 176 rlineto
          346 24 281 107 272 vvcurveto
          210 -201 147 -182 135 vhcurveto
          45 163 42 158 35 132 104 -61 98 -93 62 -68 rrcurveto
          -675 105 rmoveto
          14 2 14 2 13 vhcurveto
          7 24 rlineto
          78 29 81 40 93 hhcurveto
          17 17 -2 -4 17 hvcurveto
          -34 -121 -37 -141 -38 -149 rrcurveto
          -90 75 -66 75 84 vvcurveto
          -207 -736 rmoveto
          105 -84 82 -74 -61 vvcurveto
          -67 -82 -24 -56 -44 -43 7 11 -42 vhcurveto
          endchar
        </CharString>
        <CharString name="dotaccent">
          -753 1224 423 hstem
          556 1224 -74 callgsubr
        </CharString>
        <CharString name="dotaccent.cap">
          -753 1661 383 hstem
          554 1661 -89 callsubr
        </CharString>
        <CharString name="dotlessi">
          -49 callsubr
          hstemhm
          298 390 hintmask 11011000
          1130 -31 callgsubr
          hintmask 11101000
          -35 callgsubr
        </CharString>
        <CharString name="dotlessj">
          10 callgsubr
          hstemhm
          hintmask 11010000
          572 -181 -75 callsubr
          31 -26 18 -33 vhcurveto
          hintmask 11100000
          -77 callsubr
          endchar
        </CharString>
        <CharString name="e">
          -28 callsubr
          hstem
          1023 471 vstem
          -103 callsubr
          endchar
        </CharString>
        <CharString name="eacute">
          -28 callsubr
          662 -20 hstem
          1023 471 vstem
          -103 callsubr
          503 1265 -94 callgsubr
        </CharString>
        <CharString name="ebreve">
          -28 callsubr
          175 16 callgsubr
          1023 471 hintmask 11110110
          -103 callsubr
          402 1055 rmoveto
          hintmask 11101010
          -64 callgsubr
          hintmask 11110110
          -9 callgsubr
        </CharString>
        <CharString name="ecaron">
          -28 callsubr
          666 -20 hstem
          1023 471 vstem
          -103 callsubr
          169 809 -73 callsubr
        </CharString>
        <CharString name="ecircumflex">
          -445 390 0 101 195 endchar
        </CharString>
        <CharString name="edieresis">
          -28 callsubr
          155 399 hstem
          1023 471 vstem
          -103 callsubr
          -21 769 -88 callsubr
        </CharString>
        <CharString name="edotaccent">
          -445 373 0 101 199 endchar
        </CharString>
        <CharString name="egrave">
          -445 317 0 101 193 endchar
        </CharString>
        <CharString name="eight">
          -51 169 1385 168 hstemhm
          164 371 925 275 -145 145 -145 222 hintmask 11101000
          462 1139 rmoveto
          -147 97 -109 121 -95 vhcurveto
          -282 -78 -234 -126 -226 vvcurveto
          -256 296 -153 388 487 400 154 391 vhcurveto
          407 -666 139 251 vvcurveto
          127 134 85 158 143 86 -68 -114 vhcurveto
          hintmask 11110000
          -172 -130 -4 -78 vvcurveto
          -35 27 -21 37 vhcurveto
          hintmask 11100100
          136 152 161 165 198 -165 136 -349 -386 -450 -159 -373 hvcurveto
          73 -798 rmoveto
          161 86 117 164 92 vhcurveto
          173 -119 177 -103 -140 vvcurveto
          -125 -129 -106 -182 -153 -136 88 135 vhcurveto
          endchar
        </CharString>
        <CharString name="ellipsis">
          1315 -56 485 hstem
          490 -56 -77 callgsubr
          1099 hmoveto
          -87 callgsubr
          1099 hmoveto
          -87 callgsubr
          endchar
        </CharString>
        <CharString name="emacron">
          -28 callsubr
          263 181 hstem
          1023 471 vstem
          -103 callsubr
          1 1058 -54 callsubr
        </CharString>
        <CharString name="emdash">
          547 12 callsubr
          26 -14 25 vhcurveto
          hintmask 10000000
          56 746 10 116 hhcurveto
          hintmask 00101000
          140 646 -9 102 hhcurveto
          54 24 0 5 48 hvcurveto
          98 10 3 85 68 vvcurveto
          -4 callgsubr
          vhcurveto
          hintmask 10000000
          -56 -652 -10 -116 hhcurveto
          hintmask 01010000
          -140 -740 9 -102 hhcurveto
          -54 -24 0 -5 -48 hvcurveto
          -98 -10 -3 -85 -68 vvcurveto
          endchar
        </CharString>
        <CharString name="endash">
          -491 12 callsubr
          13 -14 12 vhcurveto
          hintmask 10000000
          28 373 10 58 hhcurveto
          hintmask 00101000
          70 323 -9 51 hhcurveto
          27 12 0 5 24 hvcurveto
          49 10 2 85 68 vvcurveto
          45 -13 14 -13 vhcurveto
          hintmask 10000000
          -28 -326 -10 -58 hhcurveto
          hintmask 01010000
          -70 -370 9 -51 hhcurveto
          -27 -12 0 -5 -24 hvcurveto
          -49 -10 -1 -85 -68 vvcurveto
          endchar
        </CharString>
        <CharString name="eng">
          -102 -510 169 342 13 callsubr
          hintmask 11011000
          2029 184 rmoveto
          36 26 9 22 18 vvcurveto
          24 -17 11 -20 -18 -20 -7 -6 -11 vhcurveto
          -46 -84 -286 -62 -70 hhcurveto
          70 237 124 268 189 vvcurveto
          144 -153 59 -112 -190 -253 -90 -57 -135 vhcurveto
          7 32 4 27 17 vvcurveto
          hintmask 11010100
          -68 callsubr
          -273 -542 -82 3 callsubr
          hintmask 10111000
          111 150 11 254 hhcurveto
          9 33 1 callsubr
          123 350 66 229 rrcurveto
          9 45 52 7 46 hhcurveto
          76 63 -20 -69 -125 -104 -309 -68 -183 hvcurveto
          -255 -95 -90 -185 -103 -21 -25 4 -22 hhcurveto
          -26 -26 -12 -32 -80 182 -49 197 359 84 104 394 109 hvcurveto
          245 52 238 111 46 33 rrcurveto
          endchar
        </CharString>
        <CharString name="eogonek">
          -445 296 0 101 206 endchar
        </CharString>
        <CharString name="equal">
          -503 276 -20 29 208 -197 -21 470 208 9 -20 21 -20 hstemhm
          hintmask 00110000
          216 334 rmoveto
          34 callgsubr
          vhcurveto
          hintmask 11010000
          -16 callgsubr
          140 176 -9 102 hhcurveto
          54 24 0 5 48 hvcurveto
          98 10 3 85 68 vvcurveto
          -4 callgsubr
          vhcurveto
          -17 callsubr
          -76 callgsubr
          104 460 rmoveto
          34 callgsubr
          vhcurveto
          -16 callgsubr
          140 176 -9 102 hhcurveto
          54 24 0 5 48 hvcurveto
          98 10 3 85 68 vvcurveto
          hintmask 11000100
          -4 callgsubr
          vhcurveto
          hintmask 11010000
          -17 callsubr
          hhcurveto
          hintmask 11001000
          -76 callgsubr
          endchar
        </CharString>
        <CharString name="eth">
          -40 183 142 -20 627 159 685 -20 hstem
          684 1322 rmoveto
          -27 -15 -15 -22 -36 vvcurveto
          -43 31 -21 41 9 13 1 4 7 vhcurveto
          272 129 65 -82 35 -96 18 -98 rlinecurve
          7 -55 -58 1 -82 hhcurveto
          -467 -385 -231 -379 -386 402 -95 306 51 51 3 5 49 hvcurveto
          427 22 511 107 143 99 rrcurveto
          23 16 12 17 22 vvcurveto
          24 -18 10 -21 -16 -20 -5 -8 -21 vhcurveto
          -87 -31 -194 -44 -216 -31 rrcurveto
          187 146 116 222 293 vvcurveto
          300 -146 239 -245 141 vhcurveto
          145 60 rlineto
          23 10 10 21 25 vvcurveto
          50 -40 63 -42 -6 -6 -1 -3 -5 vhcurveto
          -288 -137 rlineto
          34 -112 -125 18 -134 hhcurveto
          -65 -75 -3 -8 -54 hvcurveto
          -38 -5 -49 -10 -43 vvcurveto
          -24 15 -15 39 -5 vhcurveto
          133 -16 102 -36 80 -50 rrcurveto
          264 -631 rmoveto
          -303 -133 -355 -194 -129 -46 90 130 249 172 280 275 18 18 -2 -2 17 vhcurveto
          1 -29 1 -30 -28 vvcurveto
          endchar
        </CharString>
        <CharString name="exclam">
          -784 -56 485 1302 -20 hstem
          756 557 rmoveto
          46 36 21 44 14 hvcurveto
          106 328 187 224 170 465 rrcurveto
          3 9 3 14 12 vvcurveto
          36 -28 21 -55 -89 -325 -20 -12 -109 vhcurveto
          -47 -5 -17 -24 -8 -49 rrcurveto
          -45 -264 -179 -554 -191 vvcurveto
          -34 26 -18 41 -1 vhcurveto
          -2 74 116 0 80 hhcurveto
          -286 -613 -77 callgsubr
          endchar
        </CharString>
        <CharString name="exclamdown">
          -784 -490 -21 1302 485 hstem
          532 663 rmoveto
          80 116 0 -2 74 hvcurveto
          41 -1 26 -18 -34 vvcurveto
          -191 -179 -554 -45 -264 vhcurveto
          -8 -49 -17 -24 -47 -5 rrcurveto
          -12 -109 -325 -20 -89 hhcurveto
          -55 -28 21 36 12 3 14 3 9 hvcurveto
          170 465 187 224 106 328 rrcurveto
          44 14 36 21 46 hhcurveto
          286 613 -6 callgsubr
        </CharString>
        <CharString name="f">
          -616 13 callgsubr
          hstem
          1161 199 vstem
          4 callsubr
          -17 callgsubr
          -106 callsubr
          endchar
        </CharString>
        <CharString name="ff">
          750 13 callgsubr
          hstem
          1161 199 1167 199 vstem
          4 callsubr
          -17 callgsubr
          -106 callsubr
          1086 -1319 -62 callsubr
          -17 callgsubr
          -106 callsubr
          endchar
        </CharString>
        <CharString name="fi">
          411 29 callgsubr
          852 -20 31 -20 121 459 -226 142 hstemhm
          1161 199 304 390 hintmask 1001011011000000
          4 callsubr
          hintmask 1010011011000000
          -17 callgsubr
          hintmask 1100010111000000
          -106 callsubr
          hintmask 1100011011000000
          1141 216 -61 callgsubr
          485 -873 -85 callgsubr
          hintmask 1010101011000000
          -35 callgsubr
        </CharString>
        <CharString name="five">
          -40 181 612 206 218 459 -459 490 17 -20 hstemhm
          hintmask 11101000
          1063 959 rmoveto
          -162 -168 -39 -59 -153 hvcurveto
          219 480 rlineto
          -79 279 385 -85 136 hhcurveto
          166 33 254 186 38 -43 29 -46 hvcurveto
          -38 -145 -62 -10 -153 hhcurveto
          hintmask 11010000
          -310 -223 31 -62 hhcurveto
          -34 -89 -61 -34 -13 hvcurveto
          -122 -320 -146 -360 -47 vvcurveto
          -46 53 -64 47 vhcurveto
          32 142 18 115 hhcurveto
          283 169 -102 -161 -175 -140 -174 -228 hvcurveto
          -272 -210 334 -76 17 callsubr
          431 467 217 377 355 -343 50 -330 hvcurveto
          endchar
        </CharString>
        <CharString name="fl">
          407 29 callgsubr
          1197 142 hstemhm
          1161 199 hintmask 10011100
          4 callsubr
          hintmask 10101100
          -17 callgsubr
          hintmask 11001100
          -106 callsubr
          1664 -736 rmoveto
          42 30 7 13 18 vvcurveto
          hintmask 10101100
          -99 callgsubr
          endchar
        </CharString>
        <CharString name="florin">
          -325 -489 -21 990 138 461 497 -175 175 hstemhm
          hintmask 11010000
          313 632 rmoveto
          14 callgsubr
          54 81 4 5 87 hvcurveto
          -54 -218 -57 -233 -65 -236 rrcurveto
          -46 -166 -129 -24 -52 vvcurveto
          -50 68 -11 125 401 96 74 365 78 vhcurveto
          34 158 34 191 48 205 rrcurveto
          -5 138 144 -7 72 2 callgsubr
          15 -23 -68 -165 -8 -6 -148 hvcurveto
          26 101 30 104 36 105 rrcurveto
          326 111 70 147 93 hhcurveto
          54 20 -60 -229 115 hvcurveto
          hintmask 11100000
          -20 10 14 -13 22 hhcurveto
          72 85 278 75 31 -5 13 -19 8 hvcurveto
          44 -98 -143 48 -149 hhcurveto
          -393 -249 -158 -397 -123 hvcurveto
          -37 -120 -36 -134 -36 -143 rrcurveto
          4 -85 -79 4 -44 hhcurveto
          endchar
        </CharString>
        <CharString name="four">
          -7 -21 27 -21 471 207 -172 172 989 -20 hstemhm
          hintmask 10101000
          1763 502 rmoveto
          32 4 20 10 6 17 rrcurveto
          6 16 10 18 43 vvcurveto
          28 -11 14 -28 -26 -70 2 2 -134 vhcurveto
          44 133 41 115 64 vvcurveto
          80 -31 34 -90 vhcurveto
          -38 -83 2 -40 hhcurveto
          -45 -31 -22 -45 -10 hvcurveto
          -14 -64 -90 -137 -94 -158 rrcurveto
          -87 -94 1 2 -78 hvcurveto
          -98 2 -135 14 25 vvcurveto
          65 782 726 19 41 vhcurveto
          10 22 6 20 17 vvcurveto
          31 -19 21 -53 vhcurveto
          -82 -438 -16 -32 hhcurveto
          -75 -34 -26 -80 -21 hvcurveto
          -114 -437 -322 -311 -117 -154 rrcurveto
          -4 -6 -2 -7 -7 vvcurveto
          -53 103 -87 44 -18 vhcurveto
          -12 29 84 -5 114 hhcurveto
          74 201 10 13 221 hvcurveto
          -56 -105 -45 -105 -18 -90 rrcurveto
          -6 -29 -3 -33 -29 vvcurveto
          -60 40 -26 65 vhcurveto
          hintmask 01011000
          103 211 6 84 hhcurveto
          42 53 22 45 24 6 41 2 44 hvcurveto
          3 100 28 116 35 114 139 9 101 8 10 1 rrcurveto
          endchar
        </CharString>
        <CharString name="fraction">
          -1023 12 -21 1555 -20 hstem
          1418 1380 9 callgsubr
          -65 callsubr
          endchar
        </CharString>
        <CharString name="g">
          2 callsubr
          33 callgsubr
          hintmask 11101100
          -72 callgsubr
          hintmask 11110010
          -44 callsubr
          hintmask 11110100
          -70 callgsubr
          endchar
        </CharString>
        <CharString name="gbreve">
          540 0 103 198 endchar
        </CharString>
        <CharString name="gcircumflex">
          496 0 103 195 endchar
        </CharString>
        <CharString name="gcommaaccent">
          2 callsubr
          143 306 -306 491 33 callgsubr
          hintmask 1110110100000000
          -72 callgsubr
          hintmask 1111010010000000
          -44 callsubr
          hintmask 1111001100000000
          -70 callgsubr
          -302 1570 rmoveto
          89 55 76 9 111 30 rrcurveto
          40 11 33 16 36 vvcurveto
          29 -36 10 -49 -291 -270 -93 -210 -150 159 -38 114 244 173 81 101 vhcurveto
          hintmask 1111010100000000
          86 -104 38 -163 -51 -41 -2 -9 -34 vhcurveto
          endchar
        </CharString>
        <CharString name="gdotaccent">
          2 callsubr
          212 423 33 callgsubr
          hintmask 11101110
          -72 callgsubr
          hintmask 11110101
          -44 callsubr
          hintmask 11110110
          -70 callgsubr
          125 1344 -74 callgsubr
        </CharString>
        <CharString name="germandbls">
          65 -422 -21 403 164 -164 334 -312 -21 22 -21 323 -20 1152 111 hstemhm
          966 408 -3 460 hintmask 1100011100000000
          2315 193 rmoveto
          21 14 12 15 25 vvcurveto
          25 -18 13 -18 -16 -11 -5 -8 -16 vhcurveto
          -66 -41 -132 -55 -150 -32 rrcurveto
          40 55 22 66 75 340 -609 3 141 vvcurveto
          hintmask 1100011010000000
          105 457 56 251 vvcurveto
          183 -259 109 -374 -393 -203 -112 -248 -181 vhcurveto
          -135 -186 -111 -337 -77 -338 -31 12 -30 12 -26 12 rrcurveto
          5 -11 -12 2 -10 hhcurveto
          -26 -17 -11 -26 -31 30 -22 21 -14 hvcurveto
          23 -15 30 -19 34 -19 -45 -215 -30 -209 -15 -163 rrcurveto
          -16 15 -17 19 vhcurveto
          158 253 -16 48 hhcurveto
          21 25 23 29 4 hvcurveto
          63 474 123 415 126 394 rrcurveto
          362 116 112 163 148 hhcurveto
          81 76 -61 -111 hvcurveto
          hintmask 1100011100000000
          -313 -405 -3 -249 -233 392 -18 -169 vvcurveto
          -83 -56 -53 -98 vhcurveto
          hintmask 1010001100000000
          -211 -44 170 -61 hhcurveto
          -70 -79 -107 -61 -10 2 -9 5 -7 hvcurveto
          -76 48 295 -64 285 hhcurveto
          hintmask 1001011100000000
          26 22 1 26 hhcurveto
          hintmask 1000111100000000
          16 16 1 16 hhcurveto
          392 14 332 144 95 73 rrcurveto
          endchar
        </CharString>
        <CharString name="grave">
          40 callsubr
          485 1716 -54 callgsubr
        </CharString>
        <CharString name="grave.cap">
          -753 1636 414 hstem
          413 2050 -87 callsubr
        </CharString>
        <CharString name="greater">
          -503 30 -21 1078 -20 hstem
          423 875 -52 callsubr
          endchar
        </CharString>
        <CharString name="greaterequal">
          -503 -10 208 -197 -21 22 -21 226 -20 21 -20 1177 -20 hstemhm
          hintmask 01001100
          423 1153 -52 callsubr
          -230 -1114 rmoveto
          34 callgsubr
          vhcurveto
          hintmask 10000100
          -16 callgsubr
          hhcurveto
          hintmask 00101100
          140 176 -9 102 hhcurveto
          54 24 0 5 48 hvcurveto
          98 10 3 85 68 vvcurveto
          -4 callgsubr
          vhcurveto
          hintmask 10000100
          -17 callsubr
          hhcurveto
          hintmask 01010100
          -76 callgsubr
          endchar
        </CharString>
        <CharString name="guillemotleft">
          329 32 -21 1086 -20 hstem
          1070 183 rmoveto
          -78 callgsubr
          800 hmoveto
          -78 callgsubr
          endchar
        </CharString>
        <CharString name="guillemotright">
          329 32 -21 1086 -20 hstem
          552 925 rmoveto
          -78 callsubr
          800 hmoveto
          -78 callsubr
          endchar
        </CharString>
        <CharString name="guilsinglleft">
          -441 32 -21 1086 -20 hstem
          1070 183 rmoveto
          -78 callgsubr
          endchar
        </CharString>
        <CharString name="guilsinglright">
          -441 32 -21 1086 -20 hstem
          552 925 rmoveto
          -78 callsubr
          endchar
        </CharString>
        <CharString name="h">
          -18 callsubr
          546 250 423 -20 hstemhm
          1147 405 hintmask 10011110
          1984 269 -90 callgsubr
          endchar
        </CharString>
        <CharString name="hbar">
          -18 callsubr
          546 250 423 -20 hstemhm
          1147 405 hintmask 10011110
          223 1195 30 callgsubr
          205 55 143 24 151 25 203 13 24 callgsubr
          -218 -57 -139 -23 -126 -21 -256 -22 -100 -17 rrcurveto
          1761 -926 -90 callgsubr
          endchar
        </CharString>
        <CharString name="hcircumflex">
          -18 callsubr
          546 250 986 -20 hstemhm
          1147 405 hintmask 10011110
          1984 269 -90 callgsubr
          -896 1720 -106 callgsubr
        </CharString>
        <CharString name="hungarumlaut">
          -753 1193 -21 566 -20 hstem
          448 1720 -56 callsubr
        </CharString>
        <CharString name="hungarumlaut.cap">
          -753 1607 -21 21 443 hstemhm
          hintmask 01000000
          327 2016 -63 callsubr
          hintmask 10000000
          -24 17 -14 24 21 20 5 14 26 vhcurveto
          201 107 52 -14 -46 callsubr
        </CharString>
        <CharString name="hyphen">
          -503 12 callsubr
          26 -14 25 vhcurveto
          hintmask 10000000
          -16 callgsubr
          hhcurveto
          hintmask 00101000
          140 176 -9 102 hhcurveto
          54 24 0 5 48 hvcurveto
          98 10 3 85 68 vvcurveto
          -4 callgsubr
          vhcurveto
          hintmask 10000000
          -17 callsubr
          hhcurveto
          hintmask 01010000
          -76 callgsubr
          endchar
        </CharString>
        <CharString name="i">
          -49 callsubr
          121 459 hstemhm
          298 390 hintmask 11011100
          645 1144 -61 callgsubr
          485 -873 -85 callgsubr
          hintmask 11101100
          -35 callgsubr
        </CharString>
        <CharString name="iacute">
          -49 callsubr
          700 -20 38 callgsubr
          hintmask 11011100
          -2 callgsubr
          hintmask 11101100
          -104 callsubr
          -299 1441 -94 callgsubr
        </CharString>
        <CharString name="ibreve">
          -49 callsubr
          213 16 callgsubr
          318 390 hintmask 11011011
          -2 callgsubr
          hintmask 11101011
          -104 callsubr
          -400 1231 rmoveto
          hintmask 11010101
          -64 callgsubr
          hintmask 11011011
          -9 callgsubr
        </CharString>
        <CharString name="icircumflex">
          -49 callsubr
          704 -20 38 callgsubr
          hintmask 11011100
          -2 callgsubr
          hintmask 11101100
          -104 callsubr
          -226 1398 -95 callsubr
        </CharString>
        <CharString name="idieresis">
          -49 callsubr
          193 399 38 callgsubr
          hintmask 11011100
          -2 callgsubr
          hintmask 11101100
          -104 callsubr
          -823 945 -88 callsubr
        </CharString>
        <CharString name="igrave">
          -49 callsubr
          700 -20 38 callgsubr
          hintmask 11011100
          -2 callgsubr
          hintmask 11101100
          -104 callsubr
          -613 1445 -54 callgsubr
        </CharString>
        <CharString name="ij">
          70 -510 169 301 216 109 -29 callgsubr
          121 459 hstemhm
          298 390 hintmask 11101110
          645 1144 -61 callgsubr
          485 -873 -85 callgsubr
          hintmask 11110110
          -104 callsubr
          469 -452 -75 callsubr
          hintmask 11101110
          31 -26 18 -33 vhcurveto
          hintmask 11110110
          -77 callsubr
          79 1325 -61 callgsubr
          endchar
        </CharString>
        <CharString name="imacron">
          -49 callsubr
          301 181 38 callgsubr
          hintmask 11011100
          -2 callgsubr
          hintmask 11101100
          -104 callsubr
          -801 1234 -54 callsubr
        </CharString>
        <CharString name="infinity">
          287 237 -174 174 486 209 -160 190 hstemhm
          229 186 1195 192 hintmask 01101100
          554 350 rmoveto
          166 102 78 167 115 hvcurveto
          hintmask 10011100
          -161 73 101 -147 212 hhcurveto
          320 159 275 298 208 -75 181 -240 -215 -124 -134 -191 -114 hvcurveto
          hintmask 01101100
          155 -71 -86 140 -170 hhcurveto
          -272 -206 -198 -324 -246 129 -101 196 hvcurveto
          796 174 rmoveto
          -128 -67 125 144 -64 hvcurveto
          hintmask 10011100
          176 123 84 90 130 hhcurveto
          129 53 -93 -114 -204 -105 -124 -155 hvcurveto
          hintmask 10101100
          -714 486 rmoveto
          124 58 -129 -149 61 hvcurveto
          -134 -115 -91 -52 -89 hhcurveto
          -124 -45 81 108 176 106 99 115 hvcurveto
          endchar
        </CharString>
        <CharString name="integral">
          -529 173 -173 428 1360 414 -173 173 hstemhm
          hintmask 10100000
          798 119 rmoveto
          -319 -45 -85 -156 -104 hhcurveto
          -92 -80 139 83 -27 hvcurveto
          hintmask 01010000
          21 -7 -17 12 -22 hhcurveto
          -72 -85 -209 -75 -31 5 -13 19 -8 hvcurveto
          -44 98 113 -48 149 hhcurveto
          324 123 284 271 38 hvcurveto
          141 999 rlineto
          319 45 109 156 88 hhcurveto
          57 61 -26 -182 73 hvcurveto
          hintmask 10100000
          -21 8 16 -12 22 hhcurveto
          50 107 236 34 31 -5 13 -19 8 hvcurveto
          44 -98 -113 48 -149 hhcurveto
          -327 -112 -229 -326 -46 hvcurveto
          endchar
        </CharString>
        <CharString name="iogonek">
          -955 -351 0 105 206 endchar
        </CharString>
        <CharString name="itilde">
          -49 callsubr
          228 -15 callgsubr
          hintmask 11011000
          -2 callgsubr
          hintmask 11100100
          -104 callsubr
          63 1153 -51 callsubr
          hintmask 11010001
          -71 -102 -86 -59 hhcurveto
          hintmask 11010010
          -45 callsubr
          hintmask 11010001
          71 102 86 59 hhcurveto
          hintmask 11011000
          -23 callgsubr
        </CharString>
        <CharString name="j">
          10 callgsubr
          121 459 hstemhm
          hintmask 11011000
          572 -181 -75 callsubr
          31 -26 18 -33 vhcurveto
          hintmask 11101000
          -77 callsubr
          79 1325 -61 callgsubr
          endchar
        </CharString>
        <CharString name="jcircumflex">
          10 callgsubr
          704 -20 hstemhm
          hintmask 11011000
          572 -181 -75 callsubr
          31 -26 18 -33 vhcurveto
          hintmask 11101000
          -77 callsubr
          308 1850 -95 callsubr
        </CharString>
        <CharString name="k">
          -278 -40 20 callgsubr
          1168 313 hintmask 10010111
          -67 callsubr
          hintmask 01011011
          -42 callsubr
          hintmask 00110111
          -40 callsubr
          hintmask 10010111
          8 callgsubr
          endchar
        </CharString>
        <CharString name="kcommaaccent">
          -278 -47 callgsubr
          69 20 callgsubr
          864 146 158 313 hintmask 1010010111100000
          -67 callsubr
          hintmask 1001011011100000
          -42 callsubr
          hintmask 1000110111100000
          -40 callsubr
          hintmask 1010010111100000
          8 callgsubr
          -1142 -584 -102 callsubr
          hintmask 0110010111100000
          -70 callsubr
        </CharString>
        <CharString name="kgreenlandic">
          -278 -40 202 -161 -5 callsubr
          767 -20 28 -20 23 -20 hstemhm
          1168 313 hintmask 10010011
          -67 callsubr
          hintmask 10011001
          -61 -260 -11 -70 hhcurveto
          -81 callgsubr
          vvcurveto
          -144 -138 -152 -247 -65 vhcurveto
          66 178 40 127 106 vvcurveto
          hintmask 01010101
          21 -19 25 -33 vhcurveto
          -110 -254 -11 -94 -20 callgsubr
          -8 -10 -328 -270 -514 -90 3 callsubr
          hintmask 00110011
          -40 callsubr
          hintmask 10010011
          8 callgsubr
          endchar
        </CharString>
        <CharString name="l">
          -959 30 callsubr
          1219 -20 hstem
          1168 192 rmoveto
          42 30 7 13 18 vvcurveto
          -99 callgsubr
          endchar
        </CharString>
        <CharString name="lacute">
          -959 30 callsubr
          1785 -20 hstem
          1168 192 rmoveto
          42 30 7 13 18 vvcurveto
          -99 callgsubr
          -284 1821 -105 callgsubr
        </CharString>
        <CharString name="lcaron">
          -870 30 callsubr
          1219 -20 hstem
          1058 354 vstem
          1058 832 -37 callgsubr
          110 -640 rmoveto
          42 30 7 13 18 vvcurveto
          -99 callgsubr
          endchar
        </CharString>
        <CharString name="lcommaaccent">
          -959 -47 callgsubr
          69 204 121 -20 1219 -20 hstemhm
          hintmask 10111000
          1168 192 rmoveto
          42 30 7 13 18 vvcurveto
          -99 callgsubr
          -758 -596 -102 callsubr
          hintmask 01111000
          -70 callsubr
        </CharString>
        <CharString name="ldot">
          -522 30 callsubr
          255 423 541 -20 hstem
          1168 192 rmoveto
          42 30 7 13 18 vvcurveto
          -99 callgsubr
          44 328 -74 callgsubr
        </CharString>
        <CharString name="less">
          -503 50 -21 1078 -20 hstem
          1099 241 -51 callgsubr
          endchar
        </CharString>
        <CharString name="lessequal">
          -503 -10 208 -197 -21 22 -21 217 109 -100 -20 21 -20 1197 -20 hstemhm
          hintmask 01010010
          1099 519 -51 callgsubr
          -976 -480 rmoveto
          34 callgsubr
          vhcurveto
          hintmask 10000010
          -16 callgsubr
          hhcurveto
          hintmask 00100110
          140 176 -9 102 hhcurveto
          54 24 0 5 48 hvcurveto
          98 10 3 85 68 vvcurveto
          -4 callgsubr
          vhcurveto
          hintmask 10000010
          -17 callsubr
          hhcurveto
          hintmask 01001010
          -76 callgsubr
          endchar
        </CharString>
        <CharString name="logicalnot">
          -503 198 495 -208 208 9 -20 21 -20 hstemhm
          hintmask 01000000
          244 534 rmoveto
          34 callgsubr
          vhcurveto
          -16 callgsubr
          hhcurveto
          130 161 -8 -1 104 hvcurveto
          -10 -41 -10 -36 -6 -23 rrcurveto
          36 callsubr
          hintmask 10000000
          27 callgsubr
          rrcurveto
          12 46 60 241 110 vvcurveto
          hintmask 00010000
          -4 callgsubr
          vhcurveto
          hintmask 10000000
          -17 callsubr
          hhcurveto
          hintmask 00100000
          -76 callgsubr
          endchar
        </CharString>
        <CharString name="lozenge">
          -468 -21 2388 -20 hstem
          1605 578 rmoveto
          137 -195 986 -61 157 vhcurveto
          25 -10 -49 16 -40 hhcurveto
          -45 -36 -34 -56 -33 hvcurveto
          -92 -154 -700 -868 -122 vvcurveto
          -99 183 -633 113 -392 vhcurveto
          -26 7 52 -4 45 hhcurveto
          40 36 0 50 42 hvcurveto
          118 140 625 754 123 vvcurveto
          -406 1015 rmoveto
          46 -228 76 -468 43 -302 -149 -237 -220 -320 -201 -244 -88 294 -80 322 -41 242 148 252 317 485 149 204 rrcurveto
          endchar
        </CharString>
        <CharString name="lslash">
          -959 30 callsubr
          1350 228 -228 288 -203 143 -143 228 hstemhm
          hintmask 11010000
          1335 1736 rmoveto
          33 33 42 49 36 vvcurveto
          32 -31 17 -38 vhcurveto
          hintmask 11001000
          -71 -67 -60 -91 hhcurveto
          hintmask 11000100
          -122 -138 85 -166 hhcurveto
          -117 -91 -58 -71 -93 hvcurveto
          -38 -29 -37 -52 -37 vvcurveto
          -32 28 -17 41 vhcurveto
          71 94 68 122 hhcurveto
          hintmask 11100000
          122 134 -85 165 hhcurveto
          100 80 54 67 68 hvcurveto
          -167 -1544 rmoveto
          42 30 7 13 18 vvcurveto
          -99 callgsubr
          endchar
        </CharString>
        <CharString name="m">
          576 -40 219 -178 13 callsubr
          1840 415 hintmask 10011010
          2707 184 rmoveto
          42 31 3 16 18 vvcurveto
          24 -22 12 -20 -18 -22 -8 -8 -18 vhcurveto
          -34 -72 -138 -56 -110 hhcurveto
          -48 -29 32 42 hvcurveto
          128 146 238 210 vvcurveto
          166 -124 66 -119 -174 -207 -87 -83 -159 vhcurveto
          120 -31 -122 50 -102 hhcurveto
          -169 -158 -71 -76 -138 hvcurveto
          7 32 4 27 17 vvcurveto
          hintmask 01010110
          -68 callsubr
          -272 -542 -82 3 callsubr
          hintmask 00111010
          111 149 11 35 callsubr
          122 350 67 229 rrcurveto
          9 25 32 7 36 hhcurveto
          85 31 -32 -57 hvcurveto
          -188 -199 -365 -133 vvcurveto
          hintmask 01011010
          -35 17 -15 24 vhcurveto
          hintmask 00111010
          115 96 11 254 hhcurveto
          49 -3 37 34 7 hvcurveto
          30 150 136 316 22 241 rrcurveto
          10 39 35 6 34 hhcurveto
          76 33 -30 -69 hvcurveto
          -132 -155 -314 -144 vvcurveto
          hintmask 10011010
          -80 82 -56 118 399 352 171 53 71 vhcurveto
          endchar
        </CharString>
        <CharString name="macron">
          -753 1324 181 -180 -21 hstemhm
          hintmask 10000000
          265 1505 rmoveto
          -45 -50 -49 -81 hvcurveto
          hintmask 01000000
          -51 21 -20 24 vhcurveto
          hintmask 10000000
          115 112 20 145 hhcurveto
          hintmask 01000000
          153 102 -24 callgsubr
          49 84 hvcurveto
          hintmask 10000000
          43 -12 25 -23 vhcurveto
          -108 -124 -20 -141 -128 -156 20 -102 hhcurveto
          endchar
        </CharString>
        <CharString name="macron.cap">
          -753 1728 221 -220 -21 hstemhm
          hintmask 10000000
          235 1949 rmoveto
          -45 -50 -69 -81 hvcurveto
          hintmask 01000000
          -51 21 -40 24 vhcurveto
          hintmask 10000000
          115 142 20 145 hhcurveto
          hintmask 01000000
          153 132 -24 callgsubr
          69 84 hvcurveto
          hintmask 10000000
          43 -12 45 -23 vhcurveto
          -108 -154 -20 -141 -128 -186 20 -102 hhcurveto
          endchar
        </CharString>
        <CharString name="minus">
          -503 12 callsubr
          26 -14 25 vhcurveto
          hintmask 10000000
          -16 callgsubr
          hhcurveto
          hintmask 00101000
          140 176 -9 102 hhcurveto
          54 24 0 5 48 hvcurveto
          98 10 3 85 68 vvcurveto
          -4 callgsubr
          vhcurveto
          hintmask 10000000
          -17 callsubr
          hhcurveto
          hintmask 01010000
          -76 callgsubr
          endchar
        </CharString>
        <CharString name="mu">
          -503 -476 -21 458 198 -198 222 -202 -21 248 -20 852 -20 hstemhm
          hintmask 11001100
          1329 62 rmoveto
          37 37 24 30 43 vvcurveto
          25 -14 11 -24 -13 -16 -8 -7 -13 vhcurveto
          -20 -37 -37 -14 -36 hhcurveto
          -43 -24 39 48 hvcurveto
          178 208 457 120 vvcurveto
          21 -13 18 -25 vhcurveto
          -39 -103 -12 -27 hhcurveto
          -36 -11 -13 -24 -6 hvcurveto
          -51 -216 -75 -214 -65 -229 rrcurveto
          hintmask 10101100
          -97 -96 -110 -52 -119 hhcurveto
          -103 -53 47 74 hvcurveto
          149 170 401 136 vvcurveto
          22 -14 28 -38 vhcurveto
          -60 -55 -11 -47 hhcurveto
          -53 -15 -24 -58 -234 -264 -774 -72 -258 hvcurveto
          37 callgsubr
          59 13 1 37 vhcurveto
          43 1 20 10 7 24 23 86 73 280 46 153 rrcurveto
          -73 26 62 -37 81 hhcurveto
          151 150 67 99 82 hvcurveto
          hintmask 10011100
          -104 22 69 -63 129 hhcurveto
          107 75 44 58 58 hvcurveto
          endchar
        </CharString>
        <CharString name="multiply">
          -503 92 -21 22 -21 1018 -20 hstemhm
          hintmask 10100000
          369 994 rmoveto
          -23 -23 -11 -17 -16 vvcurveto
          -34 135 -159 92 -93 vhcurveto
          66 -71 -243 -208 rlineto
          -56 -49 -92 -61 -55 vvcurveto
          -37 90 -100 35 13 11 6 8 9 vhcurveto
          85 79 144 121 147 123 54 -70 49 -67 36 -50 rrcurveto
          hintmask 01100000
          -50 35 68 -99 43 hhcurveto
          29 144 118 31 38 -131 111 -113 130 hvcurveto
          -44 50 97 81 88 74 61 55 rlinecurve
          61 54 92 63 48 vvcurveto
          30 -103 112 -33 -13 -11 -6 -8 -8 vhcurveto
          -89 -79 -141 -123 -145 -124 -122 153 -117 152 -35 40 rrcurveto
          13 -12 -11 5 -10 hhcurveto
          -21 -63 -60 -36 -37 hvcurveto
          endchar
        </CharString>
        <CharString name="n">
          -102 -40 208 -167 13 callsubr
          1149 405 hintmask 10011010
          -65 callgsubr
          hintmask 01010110
          -68 callsubr
          -273 -542 -82 3 callsubr
          hintmask 00111010
          -48 callsubr
          hintmask 10011010
          7 callgsubr
          endchar
        </CharString>
        <CharString name="nacute">
          -102 -40 208 -167 35 callgsubr
          703 -20 hstemhm
          1149 405 hintmask 10011011
          -65 callgsubr
          hintmask 01010111
          -68 callsubr
          -273 -542 -82 3 callsubr
          hintmask 00111011
          -48 callsubr
          hintmask 10011011
          7 callgsubr
          -709 1528 -94 callgsubr
        </CharString>
        <CharString name="nbspace">
          -1210 endchar
        </CharString>
        <CharString name="ncaron">
          -102 590 0 110 207 endchar
        </CharString>
        <CharString name="ncommaaccent">
          -102 -47 callgsubr
          69 208 -167 13 callsubr
          948 149 52 405 hintmask 1010011011000000
          -65 callgsubr
          hintmask 1001010111000000
          -68 callsubr
          -273 -542 -82 3 callsubr
          hintmask 1000111011000000
          -48 callsubr
          hintmask 1010011011000000
          7 callgsubr
          -1229 -588 -102 callsubr
          hintmask 0110011011000000
          -70 callsubr
        </CharString>
        <CharString name="nine">
          -37 -21 586 261 -261 286 623 202 hstemhm
          198 500 hintmask 10111000
          307 -47 rmoveto
          -8 52 75 -3 65 hhcurveto
          670 624 423 633 438 -306 203 -459 -438 -392 -298 -421 -251 176 -141 238 181 123 64 79 76 hvcurveto
          23 24 17 34 29 vvcurveto
          31 -19 25 -53 vhcurveto
          hintmask 11011000
          -33 -41 -25 -53 hhcurveto
          -92 -43 86 132 230 127 200 167 182 67 -227 -166 -524 -369 -395 -573 -70 hvcurveto
          -45 -5 -15 -21 -28 vvcurveto
          -27 22 -14 46 -7 vhcurveto
          endchar
        </CharString>
        <CharString name="notequal">
          -503 47 446 -218 -20 21 -20 29 208 252 208 -208 421 hstemhm
          hintmask 10000100
          1289 1048 rmoveto
          16 21 7 20 19 vvcurveto
          33 -24 25 -31 -23 -27 -13 -31 -25 vhcurveto
          -764 -957 rlineto
          -16 -21 -7 -20 -19 vvcurveto
          -33 24 -25 31 23 27 13 31 25 vhcurveto
          -239 243 rmoveto
          hintmask 01011000
          34 callgsubr
          vhcurveto
          -16 callgsubr
          hhcurveto
          hintmask 00111000
          140 176 -9 102 hhcurveto
          54 24 0 5 48 hvcurveto
          98 10 3 85 68 vvcurveto
          -4 callgsubr
          vhcurveto
          hintmask 10001000
          -17 callsubr
          -76 callgsubr
          104 460 rmoveto
          34 callgsubr
          vhcurveto
          -16 callgsubr
          140 176 -9 102 hhcurveto
          54 24 0 5 48 hvcurveto
          98 10 3 85 68 vvcurveto
          -4 callgsubr
          vhcurveto
          -17 callsubr
          -76 callgsubr
          endchar
        </CharString>
        <CharString name="ntilde">
          -102 590 0 110 196 endchar
        </CharString>
        <CharString name="numbersign">
          -503 37 -21 507 203 217 194 453 -20 hstem
          1265 1587 rmoveto
          18 callsubr
          -19 -71 rcurveline
          -1 -31 -27 0 -23 hhcurveto
          -62 -68 1 2 -66 hvcurveto
          26 91 19 72 8 31 callsubr
          18 callsubr
          -17 -63 rcurveline
          -21 hlineto
          -54 -24 0 -5 -48 hvcurveto
          -98 -10 -3 -65 16 callsubr
          26 54 2 2 61 vhcurveto
          -60 -217 rlineto
          -9 hlineto
          -54 -24 0 -5 -48 hvcurveto
          -98 -10 -3 -65 16 callsubr
          24 48 2 2 56 vhcurveto
          -33 -118 -15 callsubr
          25 14 49 15 57 rrcurveto
          22 hlineto
          70 95 -2 -3 89 hvcurveto
          -33 -119 -15 callsubr
          24 12 45 15 53 rrcurveto
          22 hlineto
          54 24 0 5 48 hvcurveto
          98 10 3 65 68 vvcurveto
          -4 callgsubr
          -23 -55 -2 -2 -64 vhcurveto
          60 217 rlineto
          10 hlineto
          54 24 0 5 48 hvcurveto
          98 10 3 65 68 vvcurveto
          -4 callgsubr
          -22 -48 -1 -2 -59 vhcurveto
          25 89 20 70 7 31 callsubr
          -357 -870 rmoveto
          -66 -73 2 2 -70 hvcurveto
          64 228 rlineto
          9 hlineto
          73 101 -3 -2 93 hvcurveto
          -63 -227 rlineto
          endchar
        </CharString>
        <CharString name="o">
          -8 callgsubr
          hstem
          614 453 vstem
          734 -40 -98 callgsubr
          endchar
        </CharString>
        <CharString name="oacute">
          -8 callgsubr
          662 -20 hstem
          734 -40 -98 callgsubr
          584 1390 -94 callgsubr
        </CharString>
        <CharString name="obreve">
          -275 482 0 111 198 endchar
        </CharString>
        <CharString name="ocircumflex">
          -275 438 0 111 195 endchar
        </CharString>
        <CharString name="odieresis">
          -275 475 0 111 200 endchar
        </CharString>
        <CharString name="oe">
          473 -40 175 150 -20 627 169 hstem
          1935 471 vstem
          2594 192 rmoveto
          43 25 6 15 19 vvcurveto
          27 -19 7 -16 -14 -12 -4 -5 -15 vhcurveto
          -71 -222 -249 -70 -204 hhcurveto
          -144 -172 41 161 -18 hvcurveto
          480 35 368 104 289 vvcurveto
          175 -141 121 -344 -187 -170 -37 -68 -140 vhcurveto
          81 -112 -163 24 -172 hhcurveto
          -473 -441 -239 -412 -314 276 -136 395 181 152 33 56 123 hvcurveto
          -58 95 145 -31 216 hhcurveto
          510 355 183 49 83 hvcurveto
          -1980 130 rmoveto
          283 171 287 181 87 14 -82 -68 -276 -139 -329 -179 -112 -23 93 92 vhcurveto
          945 125 rmoveto
          219 18 109 248 162 hhcurveto
          51 36 -31 -50 -193 -153 -131 -223 -62 hvcurveto
          endchar
        </CharString>
        <CharString name="ogonek">
          -753 -542 158 480 -20 hstem
          275 381 vstem
          879 96 rmoveto
          -69 callgsubr
          127 123 96 47 hvcurveto
          endchar
        </CharString>
        <CharString name="ograve">
          -275 365 0 111 193 endchar
        </CharString>
        <CharString name="ohungarumlaut">
          -8 callgsubr
          677 -20 hstem
          734 -40 -98 callgsubr
          567 1398 -56 callsubr
        </CharString>
        <CharString name="omacron">
          -275 431 0 111 197 endchar
        </CharString>
        <CharString name="one">
          -796 -7 -21 37 -21 1258 387 hstemhm
          hintmask 10100000
          838 164 rmoveto
          74 310 60 217 136 325 rrcurveto
          76 182 39 126 125 vvcurveto
          135 -85 49 -120 -195 -276 -134 -175 -259 vhcurveto
          -40 -27 -18 -21 -31 vvcurveto
          -25 22 -28 34 vhcurveto
          69 97 54 64 hhcurveto
          41 39 -21 -36 -96 -266 -443 -139 -501 hvcurveto
          -8 -28 -1 -34 -29 vvcurveto
          -82 74 -4 72 vhcurveto
          hintmask 01100000
          147 44 16 216 hhcurveto
          42 53 22 45 hvcurveto
          9 -1 13 15 vvcurveto
          21 3 26 6 25 vhcurveto
          endchar
        </CharString>
        <CharString name="onehalf">
          1026 -30 185 -161 236 -218 -21 626 164 583 209 -27 -20 hstemhm
          951 511 hintmask 10011010
          1255 882 -69 callsubr
          -1 callsubr
          1088 498 9 callgsubr
          hintmask 00110110
          -65 callsubr
          1053 31 rmoveto
          hintmask 01011010
          -57 -96 -126 -13 -36 hhcurveto
          -45 -91 70 31 52 293 144 125 61 hvcurveto
          209 102 63 50 57 vvcurveto
          40 -33 16 -49 -170 -87 -30 -15 -77 vhcurveto
          -1 -7 -8 -2 -8 hhcurveto
          -20 -18 9 21 26 13 16 35 17 hvcurveto
          80 167 204 49 238 hhcurveto
          240 136 -69 -133 hvcurveto
          hintmask 10011010
          -268 -467 -18 -271 -144 vhcurveto
          hintmask 01011010
          4 251 323 71 85 hhcurveto
          34 19 -13 -16 -52 -93 -170 -48 -4 hvcurveto
          hintmask 10011010
          -4 -59 -25 -1 -25 hhcurveto
          -158 -281 59 35 -137 hvcurveto
          endchar
        </CharString>
        <CharString name="onequarter">
          21 callsubr
          851 209 -27 -20 hstemhm
          hintmask 00110100
          2707 -2 callsubr
          hintmask 00101100
          -60 callsubr
          hintmask 10000100
          -28 33 -12 53 vhcurveto
          hintmask 00110100
          5 callgsubr
          -1552 663 -69 callsubr
          -1 callsubr
          1088 498 9 callgsubr
          hintmask 01010010
          -65 callsubr
          endchar
        </CharString>
        <CharString name="onesuperior">
          -913 1048 -20 34 -21 583 209 hstemhm
          679 511 hintmask 01110000
          983 1142 -69 callsubr
          hintmask 10110000
          -1 callsubr
          endchar
        </CharString>
        <CharString name="ordfeminine">
          -477 1003 176 321 135 10 -20 hstemhm
          321 376 318 281 -281 439 hintmask 11011000
          697 1272 rmoveto
          127 110 101 129 60 19 -35 -43 -37 -14 -42 -15 -29 vhcurveto
          -108 -56 -62 -27 -76 hhcurveto
          -57 -38 38 55 hvcurveto
          742 -209 rmoveto
          28 14 24 20 29 vvcurveto
          16 -8 12 -20 -15 -13 -4 -7 -21 vhcurveto
          -7 -20 -31 -11 -26 hhcurveto
          -23 -18 9 29 hvcurveto
          hintmask 10110100
          88 158 253 100 vvcurveto
          13 -9 16 -25 vhcurveto
          -82 -154 12 -63 hhcurveto
          -43 -20 -11 -18 hvcurveto
          -45 vlineto
          hintmask 11011000
          36 -47 -73 28 -111 hhcurveto
          -334 -172 -218 -192 -162 139 -60 149 152 85 56 34 37 hvcurveto
          -75 28 90 -15 75 hhcurveto
          167 96 9 51 100 hvcurveto
          endchar
        </CharString>
        <CharString name="ordmasculine">
          -477 1003 112 413 107 hstem
          362 378 311 374 vstem
          822 1003 rmoveto
          406 197 175 207 177 -193 73 -243 -351 -276 -137 -237 -153 162 -105 298 hvcurveto
          -82 218 rmoveto
          162 117 145 124 60 10 -47 -39 -159 -96 -168 -123 -76 -16 53 53 vhcurveto
          endchar
        </CharString>
        <CharString name="oslash">
          -275 -92 -21 73 177 407 124 224 169 98 -20 hstem
          279 276 -3 callgsubr
          1031 648 -9 callsubr
          -576 -964 -98 callgsubr
          endchar
        </CharString>
        <CharString name="otilde">
          -8 callgsubr
          190 -15 callgsubr
          hintmask 11101000
          734 -40 -98 callgsubr
          946 1102 -51 callsubr
          hintmask 11100010
          -71 -102 -86 -59 hhcurveto
          hintmask 11100100
          -45 callsubr
          hintmask 11100010
          71 102 86 59 hhcurveto
          hintmask 11110000
          -23 callgsubr
        </CharString>
        <CharString name="p">
          -1 callgsubr
          -21 -20 hstemhm
          268 410 hintmask 11011010
          -64 callsubr
          -154 -136 vhcurveto
          43 14 53 41 vvcurveto
          hintmask 10110110
          -41 callgsubr
          hintmask 11011010
          19 19 1 1 19 hvcurveto
          174 682 rmoveto
          -48 callgsubr
          endchar
        </CharString>
        <CharString name="paragraph">
          64 -419 -21 2016 -20 hstem
          918 205 104 200 vstem
          1904 1302 rmoveto
          -19 44 20 -3 11 hhcurveto
          16 17 6 25 94 -354 171 -530 -537 -352 -230 -360 -286 281 -106 268 174 131 32 57 86 hvcurveto
          -118 -422 -143 -430 -184 vvcurveto
          -73 30 -14 46 51 38 2 5 43 vhcurveto
          -2 19 -1 21 21 vvcurveto
          435 335 799 56 556 vhcurveto
          34 -4 34 -6 33 -8 rrcurveto
          -44 -499 -344 -941 -342 vvcurveto
          -14 1 -20 1 -13 vhcurveto
          38 43 1 3 46 hvcurveto
          51 3 20 9 57 vvcurveto
          442 213 661 123 611 vhcurveto
          45 -16 47 -19 49 -21 rrcurveto
          endchar
        </CharString>
        <CharString name="parenleft">
          -789 -302 -21 2071 -20 hstem
          368 327 vstem
          1341 1584 rmoveto
          41 29 101 63 43 vvcurveto
          19 -17 10 -28 -43 -44 -20 -38 -77 vhcurveto
          -448 -221 -458 -346 -688 vvcurveto
          -339 156 -232 287 -148 vhcurveto
          -21 41 46 -18 17 hhcurveto
          32 5 19 12 28 -68 54 -45 81 hvcurveto
          -102 183 -42 185 180 vvcurveto
          500 331 448 315 217 vhcurveto
          endchar
        </CharString>
        <CharString name="parenright">
          -789 -322 -21 2071 -20 hstem
          658 327 vstem
          12 -179 rmoveto
          -41 -29 -101 -63 -43 vvcurveto
          -19 17 -10 28 43 44 20 38 77 vhcurveto
          448 221 458 346 688 vvcurveto
          339 -156 232 -287 148 vhcurveto
          21 -41 -46 18 -17 hhcurveto
          -32 -5 -19 -12 -28 68 -54 45 -81 hvcurveto
          102 -183 42 -185 -180 vvcurveto
          -500 -331 -448 -315 -217 vhcurveto
          endchar
        </CharString>
        <CharString name="partialdiff">
          -41 179 748 158 410 172 hstem
          339 251 732 248 vstem
          709 1488 rmoveto
          -35 -29 -20 -33 -21 vvcurveto
          -22 14 -13 25 vhcurveto
          51 82 84 190 hhcurveto
          231 75 -166 -246 hvcurveto
          -7 -1 -6 -7 vvcurveto
          19 -71 -127 3 -94 hhcurveto
          -375 -315 -252 -408 -288 214 -137 241 505 271 476 600 361 -141 230 -316 -123 -156 -31 -107 -125 hvcurveto
          103 -1350 rmoveto
          -148 -74 121 151 255 167 221 382 37 91 -7 -12 45 hvcurveto
          -368 -39 -164 -361 -297 hhcurveto
          endchar
        </CharString>
        <CharString name="percent">
          182 -7 callsubr
          hintmask 1011101101000000
          669 941 -85 callsubr
          1424 189 9 callgsubr
          hintmask 0111011101000000
          -65 callsubr
          hintmask 1011101011000000
          1054 -77 -85 callsubr
          endchar
        </CharString>
        <CharString name="period">
          -784 -56 485 hstem
          484 -56 -77 callgsubr
          endchar
        </CharString>
        <CharString name="periodcentered">
          -784 491 485 hstem
          594 491 -77 callgsubr
          endchar
        </CharString>
        <CharString name="perthousand">
          1245 -7 callsubr
          171 296 396 291 hintmask 1011101101110000
          2551 -44 -85 callsubr
          -1758 735 -85 callsubr
          1424 189 9 callgsubr
          hintmask 0111011101110000
          -65 callsubr
          hintmask 1011101011110000
          1054 -77 -85 callsubr
          endchar
        </CharString>
        <CharString name="pi">
          -10 -21 38 -21 982 212 63 -20 hstemhm
          1061 263 hintmask 01111000
          366 908 rmoveto
          -10 12 16 -8 10 hhcurveto
          19 14 12 12 11 hvcurveto
          34 35 47 22 77 1 -12 -55 -14 -75 -23 -89 -48 -190 -83 -285 -32 -114 rrcurveto
          37 callgsubr
          20 13 1 37 vhcurveto
          43 1 81 10 6 24 15 55 59 257 29 113 53 209 62 197 15 102 121 -2 135 -4 123 -3 -12 -56 -15 -72 -20 -78 rrcurveto
          -50 -198 -83 -254 -155 vvcurveto
          hintmask 10111000
          -113 95 -64 66 47 176 79 63 15 -5 12 -13 5 vhcurveto
          -60 23 -43 15 54 vvcurveto
          41 23 100 15 63 vhcurveto
          49 203 54 198 21 113 rrcurveto
          70 hlineto
          92 101 47 38 30 hvcurveto
          19 24 8 22 21 vvcurveto
          47 -86 91 -28 -14 -12 -6 -8 -11 vhcurveto
          -40 -61 -97 -9 -269 -173 -309 9 -126 hhcurveto
          -131 -78 -28 -83 -108 hvcurveto
          -21 -16 -18 -18 -18 vvcurveto
          -28 34 -32 68 -58 vhcurveto
          endchar
        </CharString>
        <CharString name="plus">
          -503 51 -21 446 225 393 -20 hstem
          244 534 rmoveto
          -17 3 -13 6 -9 vhcurveto
          3 -3 8 -10 10 -5 11 -2 rlinecurve
          10 hlineto
          14 21 0 1 27 hvcurveto
          44 2 46 2 54 2 51 1 rlinecurve
          7 7 1 7 18 18 1 16 hhcurveto
          -28 -111 -26 -103 -18 -63 rrcurveto
          -13 -45 -13 -47 -43 vvcurveto
          27 callgsubr
          15 55 36 213 29 113 5 21 rcurveline
          10 10 0 -1 10 hvcurveto
          15 14 -1 15 hhcurveto
          -1 11 10 0 11 7 7 -1 6 hhcurveto
          20 hlineto
          6 7 -1 6 hhcurveto
          108 hlineto
          16 14 1 1 15 hvcurveto
          9 10 1 1 10 hvcurveto
          1 2 1 1 hhcurveto
          5 4 1 1 5 hvcurveto
          11 2 9 3 9 4 14 9 rcurveline
          15 14 6 8 6 9 5 11 3 12 rlinecurve
          2 6 2 7 1 7 rrcurveto
          4 1 3 4 vvcurveto
          2 16 rlineto
          10 vlineto
          4 1 3 4 vvcurveto
          27 vlineto
          3 -1 3 3 vvcurveto
          -1 2 0 2 2 vvcurveto
          -4 9 -6 12 -7 7 -8 5 rlineto
          -1 -1 1 0 hvcurveto
          -7 2 rlineto
          1 -5 -5 1 -5 hhcurveto
          -14 -22 -1 -1 -27 hvcurveto
          -16 hlineto
          -56 -3 rlineto
          -10 -10 0 -1 -10 hvcurveto
          -13 -14 -1 -14 hhcurveto
          -1 -24 -25 -1 -23 -7 -7 -1 -6 hhcurveto
          -45 hlineto
          45 160 41 140 56 vvcurveto
          34 -16 11 -27 -34 -47 -5 -2 -35 vhcurveto
          -45 -2 -20 -9 -6 -24 -14 -55 -20 -131 -29 -113 -14 -56 rcurveline
          -2 hlineto
          -19 -18 1 1 -18 hvcurveto
          -11 -11 0 1 -10 hvcurveto
          -21 hlineto
          -6 -7 1 -6 -29 -27 1 -23 hhcurveto
          -54 -24 0 -5 -48 hvcurveto
          -74 -8 -20 -49 -5 -53 rrcurveto
          -1 -4 0 -4 -3 vvcurveto
          -1 -7 0 -7 -7 vvcurveto
          endchar
        </CharString>
        <CharString name="plusminus">
          -503 -77 -528 43 45 endchar
        </CharString>
        <CharString name="product">
          3 -21 27 -21 1339 221 -20 -20 26 -20 hstemhm
          379 259 469 268 hintmask 10100110
          467 1525 rmoveto
          -60 -19 -142 -170 16 callsubr
          38 88 20 32 128 vhcurveto
          52 13 50 11 49 8 -2 -55 -8 -57 -15 -46 -49 -150 -197 -552 -58 -262 rrcurveto
          -9 -41 -4 -42 -44 vvcurveto
          -47 17 -15 36 vhcurveto
          hintmask 01100110
          42 95 6 32 hhcurveto
          33 7 17 33 hvcurveto
          24 -3 39 20 vvcurveto
          242 286 645 29 313 vhcurveto
          4 70 68 2 68 hhcurveto
          93 87 -3 -5 79 hvcurveto
          -1 -12 -1 -11 -2 -12 rrcurveto
          -49 -304 -258 -713 -220 vvcurveto
          hintmask 10100110
          -44 8 -21 43 vhcurveto
          hintmask 01100110
          28 89 6 44 hhcurveto
          36 24 22 45 hvcurveto
          23 -4 20 20 vvcurveto
          365 214 466 54 350 vhcurveto
          -15 136 93 -15 34 hhcurveto
          49 137 128 82 48 -23 21 -65 hvcurveto
          hintmask 10010110
          -81 -96 -20 -88 hhcurveto
          hintmask 10001110
          -114 -833 6 -180 hhcurveto
          -68 -53 -1 -8 -24 hvcurveto
          endchar
        </CharString>
        <CharString name="q">
          -475 -21 456 254 71 37 callsubr
          hstemhm
          hintmask 11101000
          523 -40 rmoveto
          230 148 97 58 58 hvcurveto
          -85 -219 -101 -264 -78 vvcurveto
          -22 14 -28 38 vhcurveto
          116 249 11 109 hhcurveto
          66 31 20 30 hvcurveto
          13 -1 12 13 vvcurveto
          92 41 153 56 170 vhcurveto
          218 30 255 90 71 55 rrcurveto
          19 14 16 20 23 vvcurveto
          24 -15 11 -21 -16 -9 -4 -6 -13 vhcurveto
          -38 -79 -178 -67 -182 hhcurveto
          -14 hlineto
          125 350 158 370 50 vvcurveto
          72 -40 20 -62 -68 -278 -49 -46 -139 vhcurveto
          hintmask 11110000
          59 -76 -131 65 -176 hhcurveto
          -512 -264 -379 -336 -281 213 -105 229 hvcurveto
          119 417 rmoveto
          220 199 263 198 91 31 -58 -62 -72 -29 -102 -32 -73 vhcurveto
          -245 -107 -124 -34 -82 hhcurveto
          -86 -59 66 97 hvcurveto
          endchar
        </CharString>
        <CharString name="question">
          -448 -56 485 930 381 hstem
          394 1209 rmoveto
          81 134 143 69 280 hhcurveto
          84 47 -31 -43 hvcurveto
          -132 -537 -303 -180 vvcurveto
          -74 135 -76 39 15 13 5 9 8 vhcurveto
          222 275 670 128 415 vvcurveto
          284 -328 104 -356 -190 -212 -32 -39 -72 vhcurveto
          -62 -34 -146 -302 -99 vvcurveto
          -29 23 -9 27 23 26 5 8 14 vhcurveto
          144 -1265 -77 callgsubr
          endchar
        </CharString>
        <CharString name="questiondown">
          -448 -511 381 930 485 hstem
          1200 20 rmoveto
          8 14 26 5 23 hhcurveto
          27 23 -9 -29 -99 -146 -302 -62 -34 hvcurveto
          -39 -72 -212 -32 -190 hhcurveto
          -356 -328 104 284 415 670 128 222 275 hvcurveto
          9 8 13 5 15 hhcurveto
          39 135 -76 -74 hvcurveto
          -180 -537 -303 -132 vvcurveto
          -43 47 -31 84 280 143 69 81 134 vhcurveto
          -144 1265 -6 callgsubr
        </CharString>
        <CharString name="quotedbl">
          -653 909 -21 863 -20 hstemhm
          435 375 -338 338 125 375 -338 338 hintmask 11011000
          810 1644 rmoveto
          -6 callsubr
          hintmask 11010100
          -31 callsubr
          500 hmoveto
          -6 callsubr
          hintmask 11100100
          -31 callsubr
          endchar
        </CharString>
        <CharString name="quotedblbase">
          -459 -389 33 callsubr
          281 368 232 368 vstem
          90 -366 -57 callgsubr
        </CharString>
        <CharString name="quotedblleft">
          -559 899 33 callsubr
          363 339 231 339 vstem
          838 1707 rmoveto
          -57 callsubr
          570 hmoveto
          -57 callsubr
          endchar
        </CharString>
        <CharString name="quotedblright">
          -559 899 33 callsubr
          499 368 232 368 vstem
          308 922 -57 callgsubr
        </CharString>
        <CharString name="quoteleft">
          -1163 899 33 callsubr
          363 339 vstem
          838 1707 rmoveto
          -57 callsubr
          endchar
        </CharString>
        <CharString name="quoteright">
          -1163 899 33 callsubr
          499 368 vstem
          308 922 rmoveto
          -55 callsubr
        </CharString>
        <CharString name="quotesinglbase">
          -1163 -489 33 callsubr
          226 368 vstem
          35 -466 rmoveto
          -55 callsubr
        </CharString>
        <CharString name="quotesingle">
          -1163 909 -21 863 -20 hstemhm
          472 338 vstemhm
          810 1644 rmoveto
          -6 callsubr
          hintmask 11100000
          -31 callsubr
          endchar
        </CharString>
        <CharString name="r">
          -617 -19 -21 52 -21 738 311 21 -20 hstem
          -62 callgsubr
          endchar
        </CharString>
        <CharString name="racute">
          -617 349 0 114 194 endchar
        </CharString>
        <CharString name="radical">
          -503 -35 -21 632 221 1036 -20 hstem
          165 627 rmoveto
          -28 8 -23 23 vhcurveto
          223 hlineto
          51 -201 34 -182 32 -195 rrcurveto
          -30 5 33 -24 31 hhcurveto
          56 104 0 35 19 hvcurveto
          142 254 507 1090 184 354 rrcurveto
          6 12 5 8 8 vvcurveto
          19 -18 14 -22 15 vhcurveto
          42 -63 -68 38 -39 hhcurveto
          -19 -8 -10 -21 -8 hvcurveto
          -147 -383 -354 -828 -172 -359 -39 217 -15 103 -29 188 rrcurveto
          41 -6 -35 16 -45 -54 -194 -1 -48 hhcurveto
          -75 -5 -98 -71 hvcurveto
          endchar
        </CharString>
        <CharString name="rcaron">
          -617 362 0 114 207 endchar
        </CharString>
        <CharString name="rcommaaccent">
          -617 -47 callgsubr
          90 -21 52 -21 738 311 21 -20 hstemhm
          hintmask 10111100
          -62 callgsubr
          -586 -1394 -102 callsubr
          hintmask 01111100
          -70 callsubr
        </CharString>
        <CharString name="registered">
          208 -130 119 787 390 72 135 242 115 hstemhm
          265 115 844 378 -343 453 -298 188 -188 330 262 119 hintmask 1111101001000000
          265 800 -42 callgsubr
          792 263 rmoveto
          23 48 2 8 14 vvcurveto
          29 -33 3 -32 -62 -93 -12 -29 -50 vhcurveto
          -132 -76 -21 -322 -66 -164 rrcurveto
          -83 -33 -24 -14 -63 hhcurveto
          -17 -18 -12 -19 -50 130 -68 138 115 56 17 132 33 hvcurveto
          21 85 24 116 24 109 rrcurveto
          27 hlineto
          92 46 -59 -44 hvcurveto
          hintmask 1111110001000000
          -59 -35 -84 -79 vvcurveto
          -86 61 -52 127 vhcurveto
          hintmask 1111101001000000
          160 140 48 57 hvcurveto
          hintmask 1111100101000000
          64 -110 -60 86 54 9 50 50 vvcurveto
          104 -109 66 -137 vhcurveto
          hintmask 1111100011000000
          211 39 168 76 173 vvcurveto
          198 -234 55 -152 -286 -182 -64 -97 -129 vhcurveto
          -18 -13 -12 -19 -18 vvcurveto
          -13 11 -8 17 vhcurveto
          32 135 97 243 hhcurveto
          99 146 -16 -139 -143 -127 -82 -180 -23 hvcurveto
          24 102 22 88 19 39 rrcurveto
          endchar
        </CharString>
        <CharString name="ring">
          -753 1152 125 259 141 hstem
          195 248 340 250 vstem
          443 1392 rmoveto
          108 112 36 102 74 52 -38 -63 -107 -94 -51 -102 -79 -65 39 76 vhcurveto
          241 285 rmoveto
          -305 -184 -133 -175 -143 131 -74 220 298 189 135 166 138 -117 86 -232 hvcurveto
          endchar
        </CharString>
        <CharString name="ring.cap">
          -753 1535 125 239 141 hstem
          185 248 360 250 vstem
          433 1765 25 callsubr
          -52 callgsubr
        </CharString>
        <CharString name="s">
          -448 -39 -13 callgsubr
          hstemhm
          626 175 hintmask 10010110
          -67 callgsubr
          hintmask 10011010
          -50 callgsubr
          hintmask 01001010
          -28 callgsubr
          hintmask 00111010
          22 callgsubr
          hintmask 10011010
          25 24 0 1 25 hvcurveto
          endchar
        </CharString>
        <CharString name="sacute">
          -448 407 0 115 194 endchar
        </CharString>
        <CharString name="scaron">
          -448 420 0 115 207 endchar
        </CharString>
        <CharString name="scedilla">
          -448 93 0 115 203 endchar
        </CharString>
        <CharString name="scircumflex">
          -448 -39 -13 callgsubr
          666 -20 hstemhm
          626 175 hintmask 10010111
          -67 callgsubr
          hintmask 10011011
          -50 callgsubr
          hintmask 01001011
          -28 callgsubr
          hintmask 00111011
          22 callgsubr
          hintmask 10011011
          25 24 0 1 25 hvcurveto
          497 1708 -95 callsubr
        </CharString>
        <CharString name="scommaaccent">
          -448 -47 callgsubr
          70 -13 callgsubr
          hstemhm
          626 175 hintmask 1010010110000000
          -67 callgsubr
          hintmask 1010011010000000
          -50 callgsubr
          hintmask 1001001010000000
          -28 callgsubr
          hintmask 1000111010000000
          22 callgsubr
          hintmask 1010011010000000
          25 24 0 1 25 hvcurveto
          -22 -365 -102 callsubr
          hintmask 0110011010000000
          -70 callsubr
        </CharString>
        <CharString name="section">
          -24 -140 164 -164 334 142 163 554 383 -175 175 hstemhm
          hintmask 10101000
          38 3 rmoveto
          22 callgsubr
          304 264 95 229 60 -21 50 -33 44 hvcurveto
          -2 37 38 0 36 hhcurveto
          368 140 121 172 hvcurveto
          248 -533 121 161 vvcurveto
          80 89 22 60 117 91 -64 -133 111 vhcurveto
          hintmask 10110000
          -7 6 8 -4 8 hhcurveto
          72 58 198 75 25 -4 15 -12 7 hvcurveto
          53 -86 -167 10 -171 hhcurveto
          -280 -456 -88 -317 -30 6 -27 10 -23 hvcurveto
          -264 -31 -303 -106 -258 -273 481 10 -173 vvcurveto
          -59 -46 -37 -68 vhcurveto
          hintmask 01110000
          -28 callgsubr
          1199 592 rmoveto
          -59 -46 -37 -68 -75 -58 16 23 -49 vhcurveto
          -3 -1 rlineto
          -97 49 -80 43 55 vvcurveto
          80 89 22 60 32 31 -5 -9 30 vhcurveto
          118 -52 116 -40 -85 vvcurveto
          endchar
        </CharString>
        <CharString name="semicolon">
          -784 -370 -21 354 466 215 485 hstem
          549 -29 callsubr
          93 676 -77 callgsubr
          endchar
        </CharString>
        <CharString name="seven">
          -368 -1 -21 1070 -20 279 354 hstem
          514 1641 rmoveto
          -107 -53 -130 -185 -286 vvcurveto
          -38 30 -31 51 vhcurveto
          120 275 259 460 hhcurveto
          39 79 -2 -9 68 hvcurveto
          -413 -295 -682 -601 -328 vvcurveto
          -70 34 -24 56 129 198 2 9 117 vhcurveto
          82 6 55 10 12 67 rrcurveto
          114 628 688 567 199 vvcurveto
          48 -88 72 -43 -47 -56 -50 -94 -94 vhcurveto
          107 -282 -355 112 -186 hhcurveto
          -53 -36 -3 -17 -35 hvcurveto
          endchar
        </CharString>
        <CharString name="six">
          -40 202 623 286 -261 261 586 -20 hstemhm
          1316 500 hintmask 11011000
          1707 1646 rmoveto
          8 -52 -75 3 -65 hhcurveto
          -670 -624 -423 -633 -438 306 -203 459 438 392 298 421 251 -176 141 -238 -181 -123 -64 -79 -76 hvcurveto
          -23 -24 -17 -34 -29 vvcurveto
          -31 19 -25 53 vhcurveto
          hintmask 10111000
          33 41 25 53 hhcurveto
          92 43 -86 -132 -230 -127 -200 -167 -182 -67 227 166 524 369 395 573 70 hvcurveto
          45 5 15 21 28 vvcurveto
          27 -22 14 -46 7 vhcurveto
          endchar
        </CharString>
        <CharString name="slash">
          -859 -198 -21 1854 -20 hstem
          170 -129 rmoveto
          -4 -9 -2 -8 -8 vvcurveto
          -36 35 -29 37 42 21 32 33 16 vhcurveto
          833 1699 rlineto
          4 8 2 9 8 vvcurveto
          34 -33 31 -39 -42 -21 -32 -33 -16 vhcurveto
          endchar
        </CharString>
        <CharString name="space">
          -1210 endchar
        </CharString>
        <CharString name="sterling">
          -18 148 -129 -21 614 195 -160 208 264 476 -173 173 hstemhm
          hintmask 10101000
          169 786 rmoveto
          -43 -2 -45 -48 -76 vvcurveto
          -59 24 -18 25 54 77 5 6 84 vhcurveto
          -25 -150 -33 -135 -66 -91 rrcurveto
          -59 -82 -103 -15 -71 vvcurveto
          -43 34 -25 65 vhcurveto
          120 32 20 147 hhcurveto
          hintmask 01101000
          224 367 -22 262 hhcurveto
          236 86 99 206 48 hvcurveto
          30 129 4 44 80 vvcurveto
          44 -34 24 -35 -31 -27 -10 -20 -19 vhcurveto
          hintmask 10010100
          -273 -285 -174 -145 -508 -16 121 51 81 122 58 168 17 51 16 54 16 55 rrcurveto
          -1 99 150 -1 70 hhcurveto
          77 68 13 119 50 -15 26 -24 hvcurveto
          -112 -8 -134 -12 -133 -11 rrcurveto
          306 77 66 292 144 hhcurveto
          103 75 -99 -193 143 hvcurveto
          hintmask 10101000
          -7 5 9 -4 8 hhcurveto
          72 98 265 75 25 -4 15 -12 7 hvcurveto
          53 -86 -217 36 -171 hhcurveto
          -280 -439 -8 -468 -124 hvcurveto
          -27 -101 -17 -106 -16 -105 rrcurveto
          -85 hlineto
          -41 -40 -1 -2 -40 hvcurveto
          endchar
        </CharString>
        <CharString name="summation">
          -11 206 1089 248 -182 182 16 -20 hstemhm
          hintmask 10100000
          140 193 rmoveto
          -73 28 -131 36 vhcurveto
          1241 hlineto
          53 32 21 49 8 hvcurveto
          10 63 17 104 12 vvcurveto
          48 -26 12 -24 -9 -11 -1 -4 -11 vhcurveto
          -95 -38 -72 -45 -187 -15 rrcurveto
          -4 -54 -38 -1 -100 hhcurveto
          -155 -173 2 1 -132 hvcurveto
          223 128 519 291 106 55 rrcurveto
          42 22 18 17 56 vvcurveto
          57 -20 12 -42 24 vhcurveto
          -78 39 -335 280 -197 176 rrcurveto
          411 hlineto
          97 100 -1 -12 91 hvcurveto
          hintmask 11000000
          -23 177 51 -30 59 hhcurveto
          21 21 15 19 9 hvcurveto
          28 62 14 71 29 vvcurveto
          hintmask 10010000
          54 -33 14 -53 vhcurveto
          hintmask 11000000
          -86 -213 -16 -325 hhcurveto
          -497 hlineto
          -85 -74 -137 -73 -59 295 -247 331 -256 hvcurveto
          -511 -265 -402 -221 -81 vvcurveto
          endchar
        </CharString>
        <CharString name="t">
          -785 -40 39 callgsubr
          787 -20 274 -20 hstem
          1343 187 -88 callgsubr
          endchar
        </CharString>
        <CharString name="tbar">
          -785 -40 39 callgsubr
          286 135 366 -20 274 -20 hstem
          630 690 rmoveto
          -202 -18 -201 -13 -119 -18 rrcurveto
          -35 -5 -20 -26 -32 vvcurveto
          -34 30 -14 29 33 179 9 12 161 vhcurveto
          -6 -8 152 7 402 38 90 19 rlinecurve
          43 9 29 24 39 vvcurveto
          47 -36 12 -38 -35 -245 -46 -6 -214 vhcurveto
          716 -499 -88 callgsubr
          endchar
        </CharString>
        <CharString name="tcaron">
          -703 -40 39 callgsubr
          1180 -20 hstem
          1225 354 vstem
          1293 187 rmoveto
          39 26 9 17 20 vvcurveto
          20 -13 15 -18 -19 -20 -7 -7 -19 vhcurveto
          -52 -143 -135 -43 -182 hhcurveto
          -50 -38 17 54 92 139 280 100 258 hvcurveto
          66 6 57 8 35 9 rrcurveto
          43 11 29 22 39 vvcurveto
          47 -39 12 -38 -17 -33 -7 -7 -52 vhcurveto
          30 92 20 83 64 vvcurveto
          22 -14 28 -38 -113 -277 -80 -15 -115 vhcurveto
          -65 -9 -49 -22 -30 -13 1 -12 -13 vvcurveto
          -48 -5 -48 -8 -47 vhcurveto
          -44 -5 -40 -4 -33 -5 rrcurveto
          -35 -5 -20 -26 -32 vvcurveto
          -34 30 -14 29 11 34 1 2 41 vhcurveto
          -84 -303 -188 -284 -133 vvcurveto
          -102 100 -65 192 318 418 93 134 203 vhcurveto
          -68 645 -37 callgsubr
          endchar
        </CharString>
        <CharString name="tcommaaccent">
          -785 -47 callgsubr
          69 39 callgsubr
          787 -20 274 -20 hstemhm
          hintmask 10111100
          1343 187 -88 callgsubr
          -933 -591 -102 callsubr
          hintmask 01111100
          -70 callsubr
        </CharString>
        <CharString name="thorn">
          -1 callgsubr
          423 -20 hstemhm
          hintmask 11011100
          -64 callsubr
          -156 -138 vhcurveto
          93 250 91 248 18 callgsubr
          -36 7 -32 -33 vvcurveto
          -155 -93 -255 -135 -369 vhcurveto
          -207 -564 -103 -315 -121 vvcurveto
          -21 18 -26 34 vhcurveto
          126 243 12 96 hhcurveto
          66 31 20 30 hvcurveto
          10 -1 9 10 vvcurveto
          102 13 205 52 167 vhcurveto
          5 1 4 2 5 2 rrcurveto
          hintmask 10111100
          -74 98 148 -40 132 hhcurveto
          hintmask 11011100
          19 19 1 1 19 hvcurveto
          174 682 rmoveto
          -48 callgsubr
          endchar
        </CharString>
        <CharString name="three">
          -40 161 1130 388 -251 251 hstemhm
          1253 451 hintmask 11010000
          830 121 rmoveto
          -328 -169 354 -84 17 callsubr
          464 418 170 313 272 -204 102 -274 34 hvcurveto
          304 57 269 145 240 vvcurveto
          230 -250 116 -280 -409 -219 -121 -121 -144 vhcurveto
          -24 -20 -32 -33 -41 vvcurveto
          -32 24 -20 30 28 23 12 23 52 vhcurveto
          hintmask 10110000
          79 176 83 23 163 hhcurveto
          123 110 -84 -96 -150 -179 -109 -317 -38 hvcurveto
          -63 -8 -60 -22 -52 vvcurveto
          -35 45 -25 91 -21 vhcurveto
          228 -53 127 -119 -133 vvcurveto
          -191 -160 -131 -135 vhcurveto
          endchar
        </CharString>
        <CharString name="threequarters">
          21 callsubr
          254 26 callgsubr
          -32 -20 hstemhm
          hintmask 0011010011000000
          2777 -2 callsubr
          hintmask 0010110011000000
          -60 callsubr
          hintmask 1000010011000000
          -28 33 -12 53 vhcurveto
          hintmask 0011010010100000
          5 callgsubr
          -446 1161 9 callgsubr
          34 -25 27 -39 -26 -33 -15 -27 -33 vhcurveto
          -1626 -1347 rlineto
          -45 -37 -22 -27 -41 vvcurveto
          hintmask 0101010011000000
          -34 25 -27 39 26 33 15 27 33 vhcurveto
          35 860 rmoveto
          -76 -96 31 38 -75 hvcurveto
          hintmask 1000001011000000
          -4 callsubr
          hintmask 1000000101000000
          -36 callgsubr
          hintmask 1000010011000000
          -3 callsubr
        </CharString>
        <CharString name="threesuperior">
          -652 1016 26 callgsubr
          hstemhm
          943 484 hintmask 10011100
          714 1142 rmoveto
          -76 -96 31 38 -75 hvcurveto
          hintmask 01011100
          -4 callsubr
          hintmask 00101100
          -36 callgsubr
          hintmask 10011100
          -3 callsubr
        </CharString>
        <CharString name="tilde">
          -753 1251 -15 callgsubr
          hintmask 01000000
          1092 1424 -51 callsubr
          hintmask 00010000
          -71 -102 -86 -59 hhcurveto
          hintmask 00100000
          -45 callsubr
          hintmask 00010000
          71 102 86 59 hhcurveto
          hintmask 10000000
          -23 callgsubr
        </CharString>
        <CharString name="tilde.cap">
          -753 1665 8 callsubr
          hintmask 01000000
          1092 1818 -51 callsubr
          hintmask 00010000
          22 callsubr
          hintmask 00100000
          -66 callsubr
          hintmask 00010000
          23 callgsubr
          hintmask 10000000
          -45 callgsubr
        </CharString>
        <CharString name="trademark">
          237 830 126 -118 -21 22 -21 486 273 -226 226 -32 -20 27 -20 36 -20 25 -20 hstemhm
          420 285 342 269 292 493 -239 340 -227 126 -126 252 hintmask 1000010101110000
          1383 1568 rmoveto
          -72 -113 -42 -53 -54 hvcurveto
          -23 -22 -17 -31 -33 vvcurveto
          hintmask 1000100001110000
          -20 7 -16 17 vhcurveto
          16 18 8 14 hhcurveto
          15 8 -10 -35 hvcurveto
          -86 -152 -226 -132 vvcurveto
          -38 29 -2 31 vhcurveto
          61 17 2 89 hhcurveto
          19 25 10 22 hvcurveto
          10 -2 11 10 vvcurveto
          86 85 189 47 149 vhcurveto
          18 27 38 28 46 hhcurveto
          27 22 -12 -29 -64 -117 -160 -41 -187 hvcurveto
          -3 -15 -3 -17 -15 vvcurveto
          -34 32 -2 29 vhcurveto
          61 31 2 90 hhcurveto
          16 9 16 20 1 hvcurveto
          6 136 85 187 44 141 rrcurveto
          17 24 29 16 31 hhcurveto
          hintmask 1001000001100100
          32 11 -19 -24 hvcurveto
          hintmask 0011000001101000
          -98 -113 -189 -123 vvcurveto
          -64 51 -30 78 129 82 40 43 20 -20 4 -22 5 vhcurveto
          hintmask 1001000001110000
          -30 6 -29 22 45 vvcurveto
          hintmask 1001000001100010
          90 126 204 158 vvcurveto
          76 -50 46 -82 -75 -63 -40 -77 -84 vhcurveto
          74 -1 -44 43 -79 hhcurveto
          -83 -87 -42 -88 -102 hvcurveto
          1 5 0 6 5 vvcurveto
          hintmask 1000010101110000
          71 -24 34 -71 vhcurveto
          -977 -19 rmoveto
          -51 -16 -33 -208 -32 vvcurveto
          -21 10 -7 10 18 37 25 32 67 vhcurveto
          40 19 58 13 58 8 -9 -7 -7 -7 -6 -6 rrcurveto
          -77 -88 -101 -189 -109 vvcurveto
          hintmask 0101000001110000
          -101 60 -38 98 101 119 18 51 75 vhcurveto
          15 11 9 13 17 vvcurveto
          hintmask 1001000001110000
          20 -15 9 -23 vhcurveto
          -26 -27 -9 -30 hhcurveto
          -52 -19 37 60 83 53 174 30 72 hvcurveto
          -10 82 90 -59 23 hhcurveto
          hintmask 1000001011110000
          35 42 193 35 29 -20 12 -34 hvcurveto
          hintmask 1000010101110000
          -16 -173 -28 -38 hhcurveto
          hintmask 1000001011110000
          -46 -191 7 -76 hhcurveto
          -27 -23 0 -3 -10 hvcurveto
          endchar
        </CharString>
        <CharString name="two">
          -55 373 1014 304 hstem
          366 129 rmoveto
          -74 201 535 -110 233 hhcurveto
          37 37 1 4 37 hvcurveto
          120 13 137 351 108 vvcurveto
          33 -29 27 -50 -123 -696 -154 -10 -384 vhcurveto
          428 317 884 112 507 vvcurveto
          288 -285 94 -267 -311 -234 -106 -162 -168 vhcurveto
          -53 -51 -15 -27 -37 vvcurveto
          -36 26 -13 28 11 12 2 4 11 vhcurveto
          11 33 256 111 236 hhcurveto
          112 84 -34 -103 -149 -131 -93 -284 -182 hvcurveto
          -473 -303 -237 -244 -109 vvcurveto
          -93 69 -13 79 42 54 65 55 38 vhcurveto
          endchar
        </CharString>
        <CharString name="twosuperior">
          -652 1010 185 -185 260 -236 -20 643 170 hstemhm
          hintmask 01010000
          575 1104 rmoveto
          -35 137 281 -59 158 hhcurveto
          25 25 1 4 59 hvcurveto
          48 4 93 170 52 vvcurveto
          16 -19 13 -34 vhcurveto
          hintmask 10010000
          -85 -323 -71 -4 -251 hvcurveto
          271 144 467 18 268 vvcurveto
          133 -136 69 -240 -238 -204 -49 -80 -167 vhcurveto
          -35 -17 -13 -16 -26 vvcurveto
          -21 18 -9 20 8 8 2 1 7 vhcurveto
          15 77 87 30 170 hhcurveto
          49 33 -16 -40 -57 -63 -50 -209 -102 hvcurveto
          -125 -61 -293 -144 -52 vvcurveto
          hintmask 00110000
          -31 91 -70 45 36 126 13 57 96 vhcurveto
          endchar
        </CharString>
        <CharString name="u">
          -102 -40 -22 callgsubr
          hstemhm
          hintmask 10110000
          -93 callsubr
          hintmask 01110000
          -95 callgsubr
          endchar
        </CharString>
        <CharString name="uacute">
          -102 -40 -22 callgsubr
          703 -20 hstemhm
          hintmask 10111000
          -93 callsubr
          hintmask 01111000
          -95 callgsubr
          -736 1535 -94 callgsubr
        </CharString>
        <CharString name="ubreve">
          -102 -40 -22 callgsubr
          216 16 callgsubr
          hintmask 10111010
          -93 callsubr
          hintmask 01111010
          -95 callgsubr
          -837 1325 rmoveto
          hintmask 10110100
          -64 callgsubr
          hintmask 10111010
          -9 callgsubr
        </CharString>
        <CharString name="ucircumflex">
          -102 519 0 117 195 endchar
        </CharString>
        <CharString name="udieresis">
          -102 -40 -22 callgsubr
          196 399 hstemhm
          hintmask 10111000
          -93 callsubr
          hintmask 01111000
          -95 callgsubr
          -1260 1039 -88 callsubr
        </CharString>
        <CharString name="ugrave">
          -102 446 0 117 193 endchar
        </CharString>
        <CharString name="uhungarumlaut">
          -102 814 0 117 205 endchar
        </CharString>
        <CharString name="umacron">
          -102 -40 -22 callgsubr
          304 181 hstemhm
          hintmask 10111000
          -93 callsubr
          hintmask 01111000
          -95 callgsubr
          -1238 1328 -54 callsubr
        </CharString>
        <CharString name="underscore">
          -857 -335 152 hstem
          -312 -183 rmoveto
          -43 -22 -38 -38 -38 22 -38 43 hvcurveto
          1391 hlineto
          43 22 38 38 38 -22 38 -43 hvcurveto
          endchar
        </CharString>
        <CharString name="uni0001">
          -19 callsubr
        </CharString>
        <CharString name="uni0002">
          -19 callsubr
        </CharString>
        <CharString name="uni0003">
          -19 callsubr
        </CharString>
        <CharString name="uni0004">
          -19 callsubr
        </CharString>
        <CharString name="uni0005">
          -19 callsubr
        </CharString>
        <CharString name="uni0006">
          -19 callsubr
        </CharString>
        <CharString name="uni0007">
          -19 callsubr
        </CharString>
        <CharString name="uni0008">
          -19 callsubr
        </CharString>
        <CharString name="uni0009">
          -19 callsubr
        </CharString>
        <CharString name="uni0010">
          -19 callsubr
        </CharString>
        <CharString name="uni0011">
          -19 callsubr
        </CharString>
        <CharString name="uni0012">
          -19 callsubr
        </CharString>
        <CharString name="uni0013">
          -19 callsubr
        </CharString>
        <CharString name="uni0014">
          -19 callsubr
        </CharString>
        <CharString name="uni0015">
          -19 callsubr
        </CharString>
        <CharString name="uni0016">
          -19 callsubr
        </CharString>
        <CharString name="uni0017">
          -19 callsubr
        </CharString>
        <CharString name="uni0018">
          -19 callsubr
        </CharString>
        <CharString name="uni0019">
          -19 callsubr
        </CharString>
        <CharString name="uni00AD">
          -439 -37 callsubr
          349 534 rmoveto
          34 callgsubr
          vhcurveto
          hintmask 10000000
          -16 callgsubr
          hhcurveto
          hintmask 00101000
          140 176 -9 102 hhcurveto
          54 24 0 5 48 hvcurveto
          98 10 3 85 68 vvcurveto
          -4 callgsubr
          vhcurveto
          hintmask 10000000
          -17 callsubr
          hhcurveto
          hintmask 01010000
          -76 callgsubr
          endchar
        </CharString>
        <CharString name="uni1E02">
          6 callsubr
          85 383 hstemhm
          1521 431 hintmask 0100100111000000
          -36 callsubr
          hintmask 0010011011000000
          -35 callsubr
          hintmask 1001000111000000
          -27 callgsubr
          hintmask 0101001011000000
          11 callsubr
          -3 1153 -89 callsubr
        </CharString>
        <CharString name="uni1E03">
          929 0 98 199 endchar
        </CharString>
        <CharString name="uni1E0A">
          -11 callsubr
          1380 216 85 383 hstemhm
          hintmask 10011000
          1041 1360 -86 callsubr
          hintmask 01011000
          -22 callsubr
          hintmask 00111000
          -21 callgsubr
          hintmask 10011000
          -81 callsubr
          215 301 -89 callsubr
        </CharString>
        <CharString name="uni1E0B">
          -8 callsubr
          163 423 hstemhm
          hintmask 10111000
          523 -40 -97 callgsubr
          hintmask 01111000
          -245 -107 -125 -43 -82 hhcurveto
          -86 -59 66 97 hvcurveto
          117 847 -74 callgsubr
        </CharString>
        <CharString name="uni1E1E">
          28 callgsubr
          85 383 hstemhm
          hintmask 10111000
          -44 callgsubr
          hintmask 11011000
          -59 callgsubr
          -436 610 -89 callsubr
        </CharString>
        <CharString name="uni1E1F">
          -616 13 callgsubr
          73 423 hstem
          1161 199 vstem
          4 callsubr
          -17 callgsubr
          -106 callsubr
          -182 664 -74 callgsubr
        </CharString>
        <CharString name="uni1E40">
          29 callsubr
          125 383 hstemhm
          2395 272 hintmask 11010110
          5 callsubr
          hintmask 11001110
          -33 callsubr
          hintmask 10110110
          147 8 31 callgsubr
          215 269 503 87 329 vhcurveto
          39 70 93 47 95 hhcurveto
          68 48 -27 -64 -133 -279 -470 -96 -401 hvcurveto
          -7 -29 -7 -39 -29 vvcurveto
          hintmask 11010110
          -76 72 -4 70 vhcurveto
          hintmask 10110110
          -53 callsubr
          -317 342 -89 callsubr
        </CharString>
        <CharString name="uni1E41">
          576 913 0 109 199 endchar
        </CharString>
        <CharString name="uni1E56">
          26 callsubr
          85 383 hstemhm
          hintmask 11101000
          -61 callsubr
          hintmask 11011000
          -14 callgsubr
          254 562 -89 callsubr
        </CharString>
        <CharString name="uni1E57">
          -1 callgsubr
          -21 -20 204 423 hstemhm
          268 410 hintmask 11011011
          -64 callsubr
          -154 -136 vhcurveto
          43 14 53 41 vvcurveto
          hintmask 10110111
          -41 callgsubr
          hintmask 11011011
          19 19 1 1 19 hvcurveto
          174 682 rmoveto
          -48 callgsubr
          166 580 -74 callgsubr
        </CharString>
        <CharString name="uni1E60">
          -40 -30 callgsubr
          85 383 hstemhm
          hintmask 10111000
          -101 callsubr
          hintmask 11011000
          -91 callsubr
          hintmask 10111000
          -25 callsubr
          -506 604 -89 callsubr
        </CharString>
        <CharString name="uni1E61">
          -448 443 0 115 199 endchar
        </CharString>
        <CharString name="uni1E6A">
          -14 callsubr
          157 383 hstemhm
          hintmask 10101010
          789 -40 -47 callsubr
          hintmask 01101010
          -92 callsubr
          hintmask 10110010
          -37 -420 -60 -88 hhcurveto
          hintmask 10100110
          -25 callgsubr
          786 146 -89 callsubr
        </CharString>
        <CharString name="uni1E6B">
          -785 238 185 116 199 endchar
        </CharString>
        <CharString name="uogonek">
          -102 -542 158 344 -22 callgsubr
          hstemhm
          749 381 hintmask 11011100
          -93 callsubr
          hintmask 10111100
          -95 callgsubr
          -662 -81 rmoveto
          -69 callgsubr
          127 123 96 47 hvcurveto
          endchar
        </CharString>
        <CharString name="uring">
          -102 579 0 117 202 endchar
        </CharString>
        <CharString name="utilde">
          -102 549 0 117 196 endchar
        </CharString>
        <CharString name="v">
          -277 -73 295 337 128 -128 470 7 -20 24 -20 hstemhm
          hintmask 11001000
          884 948 rmoveto
          12 16 6 14 18 vvcurveto
          36 -16 8 -17 vhcurveto
          hintmask 10100000
          -19 -460 -10 -1 -50 hvcurveto
          -40 -1 -22 -18 -22 -38 rrcurveto
          -74 -131 -74 -260 -165 vvcurveto
          -361 260 -128 127 254 556 295 309 222 vhcurveto
          8 11 8 11 7 12 rrcurveto
          -5 30 32 -1 31 hhcurveto
          144 135 27 83 109 hvcurveto
          22 17 21 27 25 vvcurveto
          23 -17 14 -19 -21 -16 -8 -8 -14 vhcurveto
          hintmask 11010000
          -52 -93 -95 -20 -98 hhcurveto
          -24 -24 1 4 -24 hvcurveto
          61 111 38 106 85 vvcurveto
          14 vlineto
          20 -10 8 -26 vhcurveto
          -46 -268 -11 -77 hhcurveto
          -54 -6 -24 -43 -7 hvcurveto
          -270 -44 -238 -466 -163 hhcurveto
          -58 -45 86 94 191 84 207 114 148 hvcurveto
          endchar
        </CharString>
        <CharString name="w">
          -23 callsubr
          hstemhm
          2019 504 hintmask 10010100
          1233 1029 rmoveto
          -52 -13 -46 -21 -2 hvcurveto
          -280 -33 -114 -461 -227 hhcurveto
          -85 -13 97 106 205 102 193 101 126 hvcurveto
          13 16 11 17 20 vvcurveto
          hintmask 10101100
          34 -23 5 -16 vhcurveto
          hintmask 10010100
          -19 -460 -11 -50 hhcurveto
          -52 -19 -14 -49 -30 hvcurveto
          -79 -131 -60 -274 -119 vvcurveto
          -311 159 -206 218 160 226 114 165 199 vhcurveto
          -150 66 119 -119 120 hhcurveto
          275 421 257 316 238 hvcurveto
          45 61 rlineto
          -7 36 40 -3 40 hhcurveto
          144 135 27 83 109 hvcurveto
          22 17 21 27 25 vvcurveto
          23 -17 14 -19 -21 -16 -8 -8 -14 vhcurveto
          hintmask 10101100
          -52 -93 -95 -20 -98 hhcurveto
          -31 -31 3 6 -31 hvcurveto
          49 90 34 98 114 vvcurveto
          34 -15 8 -26 vhcurveto
          hintmask 01010100
          -46 -316 -6 -5 -34 hvcurveto
          -58 -8 -9 -38 -21 vvcurveto
          -350 -132 -381 -212 -75 -26 80 92 206 93 186 110 153 vhcurveto
          13 18 11 20 21 vvcurveto
          hintmask 10101100
          28 -24 5 -15 vhcurveto
          hintmask 10010100
          -19 -460 -10 -1 -50 hvcurveto
          endchar
        </CharString>
</ttFont>
